<?xml version="1.0" encoding="utf-8"?>
<!-- Generator: Adobe Illustrator 23.0.3, SVG Export Plug-In . SVG Version: 6.00 Build 0)  -->
<svg version="1.1" id="Calque_1" xmlns="http://www.w3.org/2000/svg" xmlns:xlink="http://www.w3.org/1999/xlink" x="0px" y="0px"
	 viewBox="0 0 56 21" style="enable-background:new 0 0 56 21;" xml:space="preserve">
<style type="text/css">
	.st0{fill:#BE1E2D;}
	.st1{fill:#009444;}
	.st2{fill:#FFA902;}
	.st3{fill:#006D44;}
</style>
<g id="XMLID_10_">
	<g id="XMLID_1085_">
		<path id="XMLID_26_" class="st0" d="M43.6,15.1l0.2-6c0,0,0.3-0.3,0.6-0.2c0.2,0.1,2.1-0.3,3.2,0.6c1.1,1,0.2,2.7-1,3.1l1.3,1.9
			l-0.9,0.7l-1.7-2.4L45,13.6l0,1.5L43.6,15.1z"/>
		<polygon id="XMLID_24_" class="st1" points="36.2,15 39.1,9 39.6,9 42.9,15.1 42.7,15.1 41.4,15.2 40.7,14 38.4,13.9 37.8,15.1 
			36.2,15.1 36.2,15 		"/>
		<polygon id="XMLID_75_" class="st2" points="22.2,15 25.2,9 25.7,9 29,15.1 28.8,15.1 27.5,15.2 26.8,14 24.5,13.9 23.9,15.1 
			22.3,15.1 22.2,15 		"/>
		<polygon id="XMLID_25_" class="st1" points="48.8,15 51.8,9 52.2,9 55.6,15.1 55.3,15.1 54,15.2 53.4,14 51.1,13.9 50.4,15.1 
			48.9,15.1 48.8,15 		"/>
		<g id="XMLID_19_">
			<path id="XMLID_33_" d="M18.1,9.7L18.1,9.7c-0.2,0.1-0.3,0.1-0.3,0.2c0,0.1,0.1,0.1,0.2,0.1c0.2,0,0.3-0.1,0.3-0.2
				C18.3,9.7,18.2,9.7,18.1,9.7z M18.2,10.8L18.2,10.8c0-0.2,0-0.3-0.1-0.3c-0.1,0-0.1,0-0.1,0.1v0c0,0.1,0,0.1,0,0.2
				c-0.2,0-0.3,0-0.3,0.1c0,0,0.1,0.1,0.2,0.1c0,0.2,0.1,0.4,0.2,0.4c0,0,0,0,0.1,0c-0.1-0.1-0.1-0.2-0.1-0.3l0,0c0.1,0,0.2,0,0.3,0
				s0.1,0,0.1-0.1v0C18.6,10.8,18.4,10.8,18.2,10.8z M20.9,13.4c-0.1,0-0.2,0.1-0.2,0.2c0,0.1,0,0.1,0.1,0.1h0.1
				c0.1,0,0.2,0,0.2-0.1v0C21.1,13.5,21,13.4,20.9,13.4z M20.9,13.4c-0.1,0-0.2,0.1-0.2,0.2c0,0.1,0,0.1,0.1,0.1h0.1
				c0.1,0,0.2,0,0.2-0.1v0C21.1,13.5,21,13.4,20.9,13.4z M18.2,10.8L18.2,10.8c0-0.2,0-0.3-0.1-0.3c-0.1,0-0.1,0-0.1,0.1v0
				c0,0.1,0,0.1,0,0.2c-0.2,0-0.3,0-0.3,0.1c0,0,0.1,0.1,0.2,0.1c0,0.2,0.1,0.4,0.2,0.4c0,0,0,0,0.1,0c-0.1-0.1-0.1-0.2-0.1-0.3l0,0
				c0.1,0,0.2,0,0.3,0s0.1,0,0.1-0.1v0C18.6,10.8,18.4,10.8,18.2,10.8z M18.1,9.7L18.1,9.7c-0.2,0.1-0.3,0.1-0.3,0.2
				c0,0.1,0.1,0.1,0.2,0.1c0.2,0,0.3-0.1,0.3-0.2C18.3,9.7,18.2,9.7,18.1,9.7z M18.1,9.7L18.1,9.7c-0.2,0.1-0.3,0.1-0.3,0.2
				c0,0.1,0.1,0.1,0.2,0.1c0.2,0,0.3-0.1,0.3-0.2C18.3,9.7,18.2,9.7,18.1,9.7z M18.2,10.8L18.2,10.8c0-0.2,0-0.3-0.1-0.3
				c-0.1,0-0.1,0-0.1,0.1v0c0,0.1,0,0.1,0,0.2c-0.2,0-0.3,0-0.3,0.1c0,0,0.1,0.1,0.2,0.1c0,0.2,0.1,0.4,0.2,0.4c0,0,0,0,0.1,0
				c-0.1-0.1-0.1-0.2-0.1-0.3l0,0c0.1,0,0.2,0,0.3,0s0.1,0,0.1-0.1v0C18.6,10.8,18.4,10.8,18.2,10.8z M20.9,13.4
				c-0.1,0-0.2,0.1-0.2,0.2c0,0.1,0,0.1,0.1,0.1h0.1c0.1,0,0.2,0,0.2-0.1v0C21.1,13.5,21,13.4,20.9,13.4z M20.9,13.4
				c-0.1,0-0.2,0.1-0.2,0.2c0,0.1,0,0.1,0.1,0.1h0.1c0.1,0,0.2,0,0.2-0.1v0C21.1,13.5,21,13.4,20.9,13.4z M18.2,10.8L18.2,10.8
				c0-0.2,0-0.3-0.1-0.3c-0.1,0-0.1,0-0.1,0.1v0c0,0.1,0,0.1,0,0.2c-0.2,0-0.3,0-0.3,0.1c0,0,0.1,0.1,0.2,0.1c0,0.2,0.1,0.4,0.2,0.4
				c0,0,0,0,0.1,0c-0.1-0.1-0.1-0.2-0.1-0.3l0,0c0.1,0,0.2,0,0.3,0s0.1,0,0.1-0.1v0C18.6,10.8,18.4,10.8,18.2,10.8z M18.1,9.7
				L18.1,9.7c-0.2,0.1-0.3,0.1-0.3,0.2c0,0.1,0.1,0.1,0.2,0.1c0.2,0,0.3-0.1,0.3-0.2C18.3,9.7,18.2,9.7,18.1,9.7z M18.1,9.7
				L18.1,9.7c-0.2,0.1-0.3,0.1-0.3,0.2c0,0.1,0.1,0.1,0.2,0.1c0.2,0,0.3-0.1,0.3-0.2C18.3,9.7,18.2,9.7,18.1,9.7z M18.2,10.8
				L18.2,10.8c0-0.2,0-0.3-0.1-0.3c-0.1,0-0.1,0-0.1,0.1v0c0,0.1,0,0.1,0,0.2c-0.2,0-0.3,0-0.3,0.1c0,0,0.1,0.1,0.2,0.1
				c0,0.2,0.1,0.4,0.2,0.4c0,0,0,0,0.1,0c-0.1-0.1-0.1-0.2-0.1-0.3l0,0c0.1,0,0.2,0,0.3,0s0.1,0,0.1-0.1v0
				C18.6,10.8,18.4,10.8,18.2,10.8z M20.9,13.4c-0.1,0-0.2,0.1-0.2,0.2c0,0.1,0,0.1,0.1,0.1h0.1c0.1,0,0.2,0,0.2-0.1v0
				C21.1,13.5,21,13.4,20.9,13.4z M20.9,13.4c-0.1,0-0.2,0.1-0.2,0.2c0,0.1,0,0.1,0.1,0.1h0.1c0.1,0,0.2,0,0.2-0.1v0
				C21.1,13.5,21,13.4,20.9,13.4z M18.2,10.8L18.2,10.8c0-0.2,0-0.3-0.1-0.3c-0.1,0-0.1,0-0.1,0.1v0c0,0.1,0,0.1,0,0.2
				c-0.2,0-0.3,0-0.3,0.1c0,0,0.1,0.1,0.2,0.1c0,0.2,0.1,0.4,0.2,0.4c0,0,0,0,0.1,0c-0.1-0.1-0.1-0.2-0.1-0.3l0,0c0.1,0,0.2,0,0.3,0
				s0.1,0,0.1-0.1v0C18.6,10.8,18.4,10.8,18.2,10.8z M18.1,9.7L18.1,9.7c-0.2,0.1-0.3,0.1-0.3,0.2c0,0.1,0.1,0.1,0.2,0.1
				c0.2,0,0.3-0.1,0.3-0.2C18.3,9.7,18.2,9.7,18.1,9.7z M18.1,9.7L18.1,9.7c-0.2,0.1-0.3,0.1-0.3,0.2c0,0.1,0.1,0.1,0.2,0.1
				c0.2,0,0.3-0.1,0.3-0.2C18.3,9.7,18.2,9.7,18.1,9.7z M18.2,10.8L18.2,10.8c0-0.2,0-0.3-0.1-0.3c-0.1,0-0.1,0-0.1,0.1v0
				c0,0.1,0,0.1,0,0.2c-0.2,0-0.3,0-0.3,0.1c0,0,0.1,0.1,0.2,0.1c0,0.2,0.1,0.4,0.2,0.4c0,0,0,0,0.1,0c-0.1-0.1-0.1-0.2-0.1-0.3l0,0
				c0.1,0,0.2,0,0.3,0s0.1,0,0.1-0.1v0C18.6,10.8,18.4,10.8,18.2,10.8z M20.9,13.4c-0.1,0-0.2,0.1-0.2,0.2c0,0.1,0,0.1,0.1,0.1h0.1
				c0.1,0,0.2,0,0.2-0.1v0C21.1,13.5,21,13.4,20.9,13.4z M20.9,13.4c-0.1,0-0.2,0.1-0.2,0.2c0,0.1,0,0.1,0.1,0.1h0.1
				c0.1,0,0.2,0,0.2-0.1v0C21.1,13.5,21,13.4,20.9,13.4z M18.2,10.8L18.2,10.8c0-0.2,0-0.3-0.1-0.3c-0.1,0-0.1,0-0.1,0.1v0
				c0,0.1,0,0.1,0,0.2c-0.2,0-0.3,0-0.3,0.1c0,0,0.1,0.1,0.2,0.1c0,0.2,0.1,0.4,0.2,0.4c0,0,0,0,0.1,0c-0.1-0.1-0.1-0.2-0.1-0.3l0,0
				c0.1,0,0.2,0,0.3,0s0.1,0,0.1-0.1v0C18.6,10.8,18.4,10.8,18.2,10.8z M18.1,9.7L18.1,9.7c-0.2,0.1-0.3,0.1-0.3,0.2
				c0,0.1,0.1,0.1,0.2,0.1c0.2,0,0.3-0.1,0.3-0.2C18.3,9.7,18.2,9.7,18.1,9.7z M18.1,9.7L18.1,9.7c-0.2,0.1-0.3,0.1-0.3,0.2
				c0,0.1,0.1,0.1,0.2,0.1c0.2,0,0.3-0.1,0.3-0.2C18.3,9.7,18.2,9.7,18.1,9.7z M18.2,10.8L18.2,10.8c0-0.2,0-0.3-0.1-0.3
				c-0.1,0-0.1,0-0.1,0.1v0c0,0.1,0,0.1,0,0.2c-0.2,0-0.3,0-0.3,0.1c0,0,0.1,0.1,0.2,0.1c0,0.2,0.1,0.4,0.2,0.4c0,0,0,0,0.1,0
				c-0.1-0.1-0.1-0.2-0.1-0.3l0,0c0.1,0,0.2,0,0.3,0s0.1,0,0.1-0.1v0C18.6,10.8,18.4,10.8,18.2,10.8z M20.9,13.4
				c-0.1,0-0.2,0.1-0.2,0.2c0,0.1,0,0.1,0.1,0.1h0.1c0.1,0,0.2,0,0.2-0.1v0C21.1,13.5,21,13.4,20.9,13.4z M20.9,13.4
				c-0.1,0-0.2,0.1-0.2,0.2c0,0.1,0,0.1,0.1,0.1h0.1c0.1,0,0.2,0,0.2-0.1v0C21.1,13.5,21,13.4,20.9,13.4z M18.2,10.8L18.2,10.8
				c0-0.2,0-0.3-0.1-0.3c-0.1,0-0.1,0-0.1,0.1v0c0,0.1,0,0.1,0,0.2c-0.2,0-0.3,0-0.3,0.1c0,0,0.1,0.1,0.2,0.1c0,0.2,0.1,0.4,0.2,0.4
				c0,0,0,0,0.1,0c-0.1-0.1-0.1-0.2-0.1-0.3l0,0c0.1,0,0.2,0,0.3,0s0.1,0,0.1-0.1v0C18.6,10.8,18.4,10.8,18.2,10.8z M18.1,9.7
				L18.1,9.7c-0.2,0.1-0.3,0.1-0.3,0.2c0,0.1,0.1,0.1,0.2,0.1c0.2,0,0.3-0.1,0.3-0.2C18.3,9.7,18.2,9.7,18.1,9.7z M18.1,9.7
				L18.1,9.7c-0.2,0.1-0.3,0.1-0.3,0.2c0,0.1,0.1,0.1,0.2,0.1c0.2,0,0.3-0.1,0.3-0.2C18.3,9.7,18.2,9.7,18.1,9.7z M18.2,10.8
				L18.2,10.8c0-0.2,0-0.3-0.1-0.3c-0.1,0-0.1,0-0.1,0.1v0c0,0.1,0,0.1,0,0.2c-0.2,0-0.3,0-0.3,0.1c0,0,0.1,0.1,0.2,0.1
				c0,0.2,0.1,0.4,0.2,0.4c0,0,0,0,0.1,0c-0.1-0.1-0.1-0.2-0.1-0.3l0,0c0.1,0,0.2,0,0.3,0s0.1,0,0.1-0.1v0
				C18.6,10.8,18.4,10.8,18.2,10.8z M20.9,13.4c-0.1,0-0.2,0.1-0.2,0.2c0,0.1,0,0.1,0.1,0.1h0.1c0.1,0,0.2,0,0.2-0.1v0
				C21.1,13.5,21,13.4,20.9,13.4z M20.9,13.4c-0.1,0-0.2,0.1-0.2,0.2c0,0.1,0,0.1,0.1,0.1h0.1c0.1,0,0.2,0,0.2-0.1v0
				C21.1,13.5,21,13.4,20.9,13.4z M18.2,10.8L18.2,10.8c0-0.2,0-0.3-0.1-0.3c-0.1,0-0.1,0-0.1,0.1v0c0,0.1,0,0.1,0,0.2
				c-0.2,0-0.3,0-0.3,0.1c0,0,0.1,0.1,0.2,0.1c0,0.2,0.1,0.4,0.2,0.4c0,0,0,0,0.1,0c-0.1-0.1-0.1-0.2-0.1-0.3l0,0c0.1,0,0.2,0,0.3,0
				s0.1,0,0.1-0.1v0C18.6,10.8,18.4,10.8,18.2,10.8z M18.1,9.7L18.1,9.7c-0.2,0.1-0.3,0.1-0.3,0.2c0,0.1,0.1,0.1,0.2,0.1
				c0.2,0,0.3-0.1,0.3-0.2C18.3,9.7,18.2,9.7,18.1,9.7z M18.1,9.7L18.1,9.7c-0.2,0.1-0.3,0.1-0.3,0.2c0,0.1,0.1,0.1,0.2,0.1
				c0.2,0,0.3-0.1,0.3-0.2C18.3,9.7,18.2,9.7,18.1,9.7z M18.2,10.8L18.2,10.8c0-0.2,0-0.3-0.1-0.3c-0.1,0-0.1,0-0.1,0.1v0
				c0,0.1,0,0.1,0,0.2c-0.2,0-0.3,0-0.3,0.1c0,0,0.1,0.1,0.2,0.1c0,0.2,0.1,0.4,0.2,0.4c0,0,0,0,0.1,0c-0.1-0.1-0.1-0.2-0.1-0.3l0,0
				c0.1,0,0.2,0,0.3,0s0.1,0,0.1-0.1v0C18.6,10.8,18.4,10.8,18.2,10.8z M20.9,13.4c-0.1,0-0.2,0.1-0.2,0.2c0,0.1,0,0.1,0.1,0.1h0.1
				c0.1,0,0.2,0,0.2-0.1v0C21.1,13.5,21,13.4,20.9,13.4z M20.9,13.4c-0.1,0-0.2,0.1-0.2,0.2c0,0.1,0,0.1,0.1,0.1h0.1
				c0.1,0,0.2,0,0.2-0.1v0C21.1,13.5,21,13.4,20.9,13.4z M18.2,10.8L18.2,10.8c0-0.2,0-0.3-0.1-0.3c-0.1,0-0.1,0-0.1,0.1v0
				c0,0.1,0,0.1,0,0.2c-0.2,0-0.3,0-0.3,0.1c0,0,0.1,0.1,0.2,0.1c0,0.2,0.1,0.4,0.2,0.4c0,0,0,0,0.1,0c-0.1-0.1-0.1-0.2-0.1-0.3l0,0
				c0.1,0,0.2,0,0.3,0s0.1,0,0.1-0.1v0C18.6,10.8,18.4,10.8,18.2,10.8z M18.1,9.7L18.1,9.7c-0.2,0.1-0.3,0.1-0.3,0.2
				c0,0.1,0.1,0.1,0.2,0.1c0.2,0,0.3-0.1,0.3-0.2C18.3,9.7,18.2,9.7,18.1,9.7z M18.1,9.7L18.1,9.7c-0.2,0.1-0.3,0.1-0.3,0.2
				c0,0.1,0.1,0.1,0.2,0.1c0.2,0,0.3-0.1,0.3-0.2C18.3,9.7,18.2,9.7,18.1,9.7z M18.2,10.8L18.2,10.8c0-0.2,0-0.3-0.1-0.3
				c-0.1,0-0.1,0-0.1,0.1v0c0,0.1,0,0.1,0,0.2c-0.2,0-0.3,0-0.3,0.1c0,0,0.1,0.1,0.2,0.1c0,0.2,0.1,0.4,0.2,0.4c0,0,0,0,0.1,0
				c-0.1-0.1-0.1-0.2-0.1-0.3l0,0c0.1,0,0.2,0,0.3,0s0.1,0,0.1-0.1v0C18.6,10.8,18.4,10.8,18.2,10.8z M20.9,13.4
				c-0.1,0-0.2,0.1-0.2,0.2c0,0.1,0,0.1,0.1,0.1h0.1c0.1,0,0.2,0,0.2-0.1v0C21.1,13.5,21,13.4,20.9,13.4z M20.9,13.4
				c-0.1,0-0.2,0.1-0.2,0.2c0,0.1,0,0.1,0.1,0.1h0.1c0.1,0,0.2,0,0.2-0.1v0C21.1,13.5,21,13.4,20.9,13.4z M18.2,10.8L18.2,10.8
				c0-0.2,0-0.3-0.1-0.3c-0.1,0-0.1,0-0.1,0.1v0c0,0.1,0,0.1,0,0.2c-0.2,0-0.3,0-0.3,0.1c0,0,0.1,0.1,0.2,0.1c0,0.2,0.1,0.4,0.2,0.4
				c0,0,0,0,0.1,0c-0.1-0.1-0.1-0.2-0.1-0.3l0,0c0.1,0,0.2,0,0.3,0s0.1,0,0.1-0.1v0C18.6,10.8,18.4,10.8,18.2,10.8z M18.1,9.7
				L18.1,9.7c-0.2,0.1-0.3,0.1-0.3,0.2c0,0.1,0.1,0.1,0.2,0.1c0.2,0,0.3-0.1,0.3-0.2C18.3,9.7,18.2,9.7,18.1,9.7z M18.1,9.7
				L18.1,9.7c-0.2,0.1-0.3,0.1-0.3,0.2c0,0.1,0.1,0.1,0.2,0.1c0.2,0,0.3-0.1,0.3-0.2C18.3,9.7,18.2,9.7,18.1,9.7z M18.2,10.8
				L18.2,10.8c0-0.2,0-0.3-0.1-0.3c-0.1,0-0.1,0-0.1,0.1v0c0,0.1,0,0.1,0,0.2c-0.2,0-0.3,0-0.3,0.1c0,0,0.1,0.1,0.2,0.1
				c0,0.2,0.1,0.4,0.2,0.4c0,0,0,0,0.1,0c-0.1-0.1-0.1-0.2-0.1-0.3l0,0c0.1,0,0.2,0,0.3,0s0.1,0,0.1-0.1v0
				C18.6,10.8,18.4,10.8,18.2,10.8z M20.9,13.4c-0.1,0-0.2,0.1-0.2,0.2c0,0.1,0,0.1,0.1,0.1h0.1c0.1,0,0.2,0,0.2-0.1v0
				C21.1,13.5,21,13.4,20.9,13.4z M20.9,13.4c-0.1,0-0.2,0.1-0.2,0.2c0,0.1,0,0.1,0.1,0.1h0.1c0.1,0,0.2,0,0.2-0.1v0
				C21.1,13.5,21,13.4,20.9,13.4z M18.2,10.8L18.2,10.8c0-0.2,0-0.3-0.1-0.3c-0.1,0-0.1,0-0.1,0.1v0c0,0.1,0,0.1,0,0.2
				c-0.2,0-0.3,0-0.3,0.1c0,0,0.1,0.1,0.2,0.1c0,0.2,0.1,0.4,0.2,0.4c0,0,0,0,0.1,0c-0.1-0.1-0.1-0.2-0.1-0.3l0,0c0.1,0,0.2,0,0.3,0
				s0.1,0,0.1-0.1v0C18.6,10.8,18.4,10.8,18.2,10.8z M18.1,9.7L18.1,9.7c-0.2,0.1-0.3,0.1-0.3,0.2c0,0.1,0.1,0.1,0.2,0.1
				c0.2,0,0.3-0.1,0.3-0.2C18.3,9.7,18.2,9.7,18.1,9.7z M21.6,13.2c0-0.3-0.3-0.7-0.8-1.2l-0.5-0.5l-0.9-0.6
				c-0.4-0.2-0.6-0.4-0.6-0.5c0-0.1,0.1-0.2,0.2-0.2H19c0.1,0,0.2,0,0.4,0.1c0.3,0.1,0.6,0.3,0.8,0.4c0.1,0.1,0.1,0.1,0.2,0.1
				c0.1,0,0.1,0,0.1-0.1c0,0,0.2-0.2,0.6-0.6c0.2-0.2,0.2-0.3,0.2-0.5c0-0.2-0.3-0.4-0.9-0.7c-0.5-0.2-0.9-0.2-1-0.2h-0.2l-0.1,0
				c0,0,0,0,0,0c-0.1,0-0.2,0-0.4,0c-0.6,0.1-1,0.3-1.1,0.5l-0.3,0.4c-0.1,0.3-0.1,0.4-0.1,0.4v0.3c0,0.2,0.1,0.4,0.2,0.6
				c0,0,0.1,0.2,0.3,0.4c0.4,0.3,0.8,0.5,1.1,0.7c0.2,0.1,0.5,0.3,1,0.7c0.1,0.1,0.2,0.2,0.3,0.4v0.3c-0.1,0.2-0.3,0.4-0.5,0.4h-0.1
				c-0.3,0-0.7-0.2-1.2-0.6c-0.2-0.2-0.3-0.3-0.3-0.3l0,0c-0.2,0.2-0.5,0.4-0.7,0.7c-0.1,0-0.1,0.1-0.1,0.2v0.1c0,0,0,0.1,0.1,0.1
				c0,0.1,0.1,0.2,0.4,0.4c0.1,0.1,0.3,0.2,0.4,0.3c0.7,0.3,1.3,0.5,1.8,0.5c0.5-0.1,0.8-0.1,0.9-0.2c0.4-0.2,0.6-0.4,0.6-0.5
				c0.3-0.2,0.4-0.5,0.4-1C21.7,13.4,21.7,13.3,21.6,13.2z M17.5,14.2C17.5,14.2,17.4,14.2,17.5,14.2L17.5,14.2
				c-0.1-0.1,0-0.1,0-0.2h0V14.2L17.5,14.2C17.5,14.2,17.5,14.2,17.5,14.2z M19.1,11.1L19.1,11.1L19.1,11.1c0.3,0.1,0.4,0.2,0.4,0.3
				c0,0,0,0.1-0.1,0.1h0C19.3,11.4,19.2,11.3,19.1,11.1C19.1,11.2,19.1,11.1,19.1,11.1z M18.9,11.3l0.3,0.3v0h-0.1
				c-0.3-0.1-0.4-0.2-0.4-0.2v0C18.8,11.4,18.9,11.3,18.9,11.3z M20.3,9.5l0-0.1c0.2,0,0.4,0.2,0.7,0.4c0,0.1,0,0.1-0.1,0.1h0
				C20.8,9.9,20.5,9.7,20.3,9.5L20.3,9.5z M20.2,9.9C20.2,9.8,20.2,9.8,20.2,9.9c0.4,0.1,0.5,0.2,0.6,0.2v0c0,0.1,0,0.1-0.1,0.1
				C20.4,10,20.2,9.9,20.2,9.9L20.2,9.9z M20.2,10.1L20.2,10.1c0,0,0.1,0.1,0.4,0.3v0c0,0-0.1,0.1-0.1,0.1
				C20.2,10.3,20.1,10.2,20.2,10.1C20.1,10.1,20.1,10.1,20.2,10.1z M18.5,9.2c0.2-0.1,0.4-0.1,0.6-0.1h0.2c0.1,0,0.3,0,0.5,0.1
				c0.1,0,0.1,0.1,0.1,0.3c0,0.2-0.1,0.4-0.1,0.5h0c-0.1,0-0.1-0.1-0.2-0.1c-0.3,0-0.5-0.1-0.5-0.2C19.1,9.6,18.9,9.4,18.5,9.2
				L18.5,9.2z M17.5,10L17.5,10c0-0.1,0.1-0.2,0.2-0.3c0-0.1,0.2-0.3,0.5-0.5l0.1,0c0.3,0.2,0.5,0.4,0.6,0.5v0
				c-0.1,0-0.1,0.1-0.2,0.2c-0.1,0.1-0.2,0.1-0.4,0.1h-0.1c-0.3,0.1-0.5,0.1-0.6,0.1h0C17.5,10.3,17.5,10.2,17.5,10z M18.2,11.5
				c-0.5-0.3-0.7-0.6-0.7-1v0c0,0,0.2-0.1,0.6-0.2h0.1c0.1,0,0.2,0,0.3,0v0.1c0,0.2,0.2,0.4,0.4,0.5v0
				C18.8,11.1,18.6,11.2,18.2,11.5L18.2,11.5z M19.1,11.8c0,0-0.1,0.1-0.2,0.1h0c-0.3-0.1-0.4-0.2-0.4-0.2v0l0.1-0.1
				c0,0,0.1,0,0.1,0C18.9,11.7,19,11.7,19.1,11.8L19.1,11.8z M19.2,12.1L19.2,12.1l0.6-0.5l0.2,0.1c-0.4,0.3-0.6,0.5-0.6,0.5
				C19.3,12.1,19.2,12.1,19.2,12.1z M19.7,12.4L19.7,12.4c-0.1,0-0.1-0.1-0.1-0.1v0c0.4-0.3,0.6-0.5,0.6-0.5c0.1,0,0.1,0,0.1,0.1v0
				C20.2,12.1,20,12.2,19.7,12.4z M19.9,12.6l0.6-0.4c0.1,0,0.2,0.1,0.2,0.2l0.4,0.5v0c-0.3,0-0.6,0.1-0.9,0.2h0
				C20,12.8,19.9,12.6,19.9,12.6z M18.5,14c0.2,0.1,0.4,0.2,0.5,0.2v0l-0.2,0C18.7,14.3,18.6,14.2,18.5,14L18.5,14z M19.1,14.7
				l-0.1,0h0c0,0-0.1,0-0.3,0c-0.5-0.2-0.7-0.4-0.7-0.6c0-0.2,0.1-0.4,0.2-0.5h0c0.1,0.1,0.1,0.1,0.2,0.1c-0.1,0.1-0.1,0.2-0.1,0.2
				v0.1c0.2,0.2,0.4,0.3,0.6,0.3c0.3,0,0.5,0,0.6-0.1h0c0.1,0.1,0.1,0.2,0.2,0.2L19.1,14.7L19.1,14.7z M19.5,15
				c-0.1,0-0.2,0-0.3-0.1v0c0.1,0,0.2-0.1,0.3-0.1h0l0,0C19.6,15,19.5,15,19.5,15z M20.8,14.8c-0.4,0.2-0.7,0.3-0.9,0.3h0v0
				c0-0.2,0-0.5-0.1-0.7v0c0.1,0,0.2-0.1,0.4-0.2h0.1c0.2,0,0.4,0.2,0.7,0.6C20.9,14.7,20.9,14.7,20.8,14.8z M21.4,13.8
				c0,0.1,0,0.2-0.1,0.2l0,0c0,0-0.1,0.2-0.2,0.4c0,0-0.1,0-0.1-0.1c-0.2-0.2-0.4-0.4-0.7-0.4c0-0.1,0-0.2,0-0.4l0-0.2
				c0,0,0,0,0.1,0c0.2-0.1,0.4-0.2,0.6-0.2h0.1c0,0,0,0,0,0C21.3,13.1,21.4,13.3,21.4,13.8L21.4,13.8C21.4,13.7,21.4,13.8,21.4,13.8
				z M20.9,13.4c-0.1,0-0.2,0.1-0.2,0.2c0,0.1,0,0.1,0.1,0.1h0.1c0.1,0,0.2,0,0.2-0.1v0C21.1,13.5,21,13.4,20.9,13.4z M18.2,10.8
				L18.2,10.8c0-0.2,0-0.3-0.1-0.3c-0.1,0-0.1,0-0.1,0.1v0c0,0.1,0,0.1,0,0.2c-0.2,0-0.3,0-0.3,0.1c0,0,0.1,0.1,0.2,0.1
				c0,0.2,0.1,0.4,0.2,0.4c0,0,0,0,0.1,0c-0.1-0.1-0.1-0.2-0.1-0.3l0,0c0.1,0,0.2,0,0.3,0s0.1,0,0.1-0.1v0
				C18.6,10.8,18.4,10.8,18.2,10.8z M18,10c0.2,0,0.3-0.1,0.3-0.2c0-0.1-0.1-0.1-0.2-0.1H18c-0.1,0.1-0.2,0.1-0.2,0.2
				C17.8,9.9,17.9,10,18,10z M18.1,9.7L18.1,9.7c-0.2,0.1-0.3,0.1-0.3,0.2c0,0.1,0.1,0.1,0.2,0.1c0.2,0,0.3-0.1,0.3-0.2
				C18.3,9.7,18.2,9.7,18.1,9.7z M18.2,10.8L18.2,10.8c0-0.2,0-0.3-0.1-0.3c-0.1,0-0.1,0-0.1,0.1v0c0,0.1,0,0.1,0,0.2
				c-0.2,0-0.3,0-0.3,0.1c0,0,0.1,0.1,0.2,0.1c0,0.2,0.1,0.4,0.2,0.4c0,0,0,0,0.1,0c-0.1-0.1-0.1-0.2-0.1-0.3l0,0c0.1,0,0.2,0,0.3,0
				s0.1,0,0.1-0.1v0C18.6,10.8,18.4,10.8,18.2,10.8z M20.9,13.4c-0.1,0-0.2,0.1-0.2,0.2c0,0.1,0,0.1,0.1,0.1h0.1
				c0.1,0,0.2,0,0.2-0.1v0C21.1,13.5,21,13.4,20.9,13.4z M20.9,13.4c-0.1,0-0.2,0.1-0.2,0.2c0,0.1,0,0.1,0.1,0.1h0.1
				c0.1,0,0.2,0,0.2-0.1v0C21.1,13.5,21,13.4,20.9,13.4z M18.2,10.8L18.2,10.8c0-0.2,0-0.3-0.1-0.3c-0.1,0-0.1,0-0.1,0.1v0
				c0,0.1,0,0.1,0,0.2c-0.2,0-0.3,0-0.3,0.1c0,0,0.1,0.1,0.2,0.1c0,0.2,0.1,0.4,0.2,0.4c0,0,0,0,0.1,0c-0.1-0.1-0.1-0.2-0.1-0.3l0,0
				c0.1,0,0.2,0,0.3,0s0.1,0,0.1-0.1v0C18.6,10.8,18.4,10.8,18.2,10.8z M18.1,9.7L18.1,9.7c-0.2,0.1-0.3,0.1-0.3,0.2
				c0,0.1,0.1,0.1,0.2,0.1c0.2,0,0.3-0.1,0.3-0.2C18.3,9.7,18.2,9.7,18.1,9.7z M18.1,9.7L18.1,9.7c-0.2,0.1-0.3,0.1-0.3,0.2
				c0,0.1,0.1,0.1,0.2,0.1c0.2,0,0.3-0.1,0.3-0.2C18.3,9.7,18.2,9.7,18.1,9.7z M18.2,10.8L18.2,10.8c0-0.2,0-0.3-0.1-0.3
				c-0.1,0-0.1,0-0.1,0.1v0c0,0.1,0,0.1,0,0.2c-0.2,0-0.3,0-0.3,0.1c0,0,0.1,0.1,0.2,0.1c0,0.2,0.1,0.4,0.2,0.4c0,0,0,0,0.1,0
				c-0.1-0.1-0.1-0.2-0.1-0.3l0,0c0.1,0,0.2,0,0.3,0s0.1,0,0.1-0.1v0C18.6,10.8,18.4,10.8,18.2,10.8z M20.9,13.4
				c-0.1,0-0.2,0.1-0.2,0.2c0,0.1,0,0.1,0.1,0.1h0.1c0.1,0,0.2,0,0.2-0.1v0C21.1,13.5,21,13.4,20.9,13.4z M20.9,13.4
				c-0.1,0-0.2,0.1-0.2,0.2c0,0.1,0,0.1,0.1,0.1h0.1c0.1,0,0.2,0,0.2-0.1v0C21.1,13.5,21,13.4,20.9,13.4z M18.2,10.8L18.2,10.8
				c0-0.2,0-0.3-0.1-0.3c-0.1,0-0.1,0-0.1,0.1v0c0,0.1,0,0.1,0,0.2c-0.2,0-0.3,0-0.3,0.1c0,0,0.1,0.1,0.2,0.1c0,0.2,0.1,0.4,0.2,0.4
				c0,0,0,0,0.1,0c-0.1-0.1-0.1-0.2-0.1-0.3l0,0c0.1,0,0.2,0,0.3,0s0.1,0,0.1-0.1v0C18.6,10.8,18.4,10.8,18.2,10.8z M18.1,9.7
				L18.1,9.7c-0.2,0.1-0.3,0.1-0.3,0.2c0,0.1,0.1,0.1,0.2,0.1c0.2,0,0.3-0.1,0.3-0.2C18.3,9.7,18.2,9.7,18.1,9.7z M18.1,9.7
				L18.1,9.7c-0.2,0.1-0.3,0.1-0.3,0.2c0,0.1,0.1,0.1,0.2,0.1c0.2,0,0.3-0.1,0.3-0.2C18.3,9.7,18.2,9.7,18.1,9.7z M18.2,10.8
				L18.2,10.8c0-0.2,0-0.3-0.1-0.3c-0.1,0-0.1,0-0.1,0.1v0c0,0.1,0,0.1,0,0.2c-0.2,0-0.3,0-0.3,0.1c0,0,0.1,0.1,0.2,0.1
				c0,0.2,0.1,0.4,0.2,0.4c0,0,0,0,0.1,0c-0.1-0.1-0.1-0.2-0.1-0.3l0,0c0.1,0,0.2,0,0.3,0s0.1,0,0.1-0.1v0
				C18.6,10.8,18.4,10.8,18.2,10.8z M20.9,13.4c-0.1,0-0.2,0.1-0.2,0.2c0,0.1,0,0.1,0.1,0.1h0.1c0.1,0,0.2,0,0.2-0.1v0
				C21.1,13.5,21,13.4,20.9,13.4z M20.9,13.4c-0.1,0-0.2,0.1-0.2,0.2c0,0.1,0,0.1,0.1,0.1h0.1c0.1,0,0.2,0,0.2-0.1v0
				C21.1,13.5,21,13.4,20.9,13.4z M18.2,10.8L18.2,10.8c0-0.2,0-0.3-0.1-0.3c-0.1,0-0.1,0-0.1,0.1v0c0,0.1,0,0.1,0,0.2
				c-0.2,0-0.3,0-0.3,0.1c0,0,0.1,0.1,0.2,0.1c0,0.2,0.1,0.4,0.2,0.4c0,0,0,0,0.1,0c-0.1-0.1-0.1-0.2-0.1-0.3l0,0c0.1,0,0.2,0,0.3,0
				s0.1,0,0.1-0.1v0C18.6,10.8,18.4,10.8,18.2,10.8z M18.1,9.7L18.1,9.7c-0.2,0.1-0.3,0.1-0.3,0.2c0,0.1,0.1,0.1,0.2,0.1
				c0.2,0,0.3-0.1,0.3-0.2C18.3,9.7,18.2,9.7,18.1,9.7z M18.1,9.7L18.1,9.7c-0.2,0.1-0.3,0.1-0.3,0.2c0,0.1,0.1,0.1,0.2,0.1
				c0.2,0,0.3-0.1,0.3-0.2C18.3,9.7,18.2,9.7,18.1,9.7z M18.2,10.8L18.2,10.8c0-0.2,0-0.3-0.1-0.3c-0.1,0-0.1,0-0.1,0.1v0
				c0,0.1,0,0.1,0,0.2c-0.2,0-0.3,0-0.3,0.1c0,0,0.1,0.1,0.2,0.1c0,0.2,0.1,0.4,0.2,0.4c0,0,0,0,0.1,0c-0.1-0.1-0.1-0.2-0.1-0.3l0,0
				c0.1,0,0.2,0,0.3,0s0.1,0,0.1-0.1v0C18.6,10.8,18.4,10.8,18.2,10.8z M20.9,13.4c-0.1,0-0.2,0.1-0.2,0.2c0,0.1,0,0.1,0.1,0.1h0.1
				c0.1,0,0.2,0,0.2-0.1v0C21.1,13.5,21,13.4,20.9,13.4z M20.9,13.4c-0.1,0-0.2,0.1-0.2,0.2c0,0.1,0,0.1,0.1,0.1h0.1
				c0.1,0,0.2,0,0.2-0.1v0C21.1,13.5,21,13.4,20.9,13.4z M18.2,10.8L18.2,10.8c0-0.2,0-0.3-0.1-0.3c-0.1,0-0.1,0-0.1,0.1v0
				c0,0.1,0,0.1,0,0.2c-0.2,0-0.3,0-0.3,0.1c0,0,0.1,0.1,0.2,0.1c0,0.2,0.1,0.4,0.2,0.4c0,0,0,0,0.1,0c-0.1-0.1-0.1-0.2-0.1-0.3l0,0
				c0.1,0,0.2,0,0.3,0s0.1,0,0.1-0.1v0C18.6,10.8,18.4,10.8,18.2,10.8z M18.1,9.7L18.1,9.7c-0.2,0.1-0.3,0.1-0.3,0.2
				c0,0.1,0.1,0.1,0.2,0.1c0.2,0,0.3-0.1,0.3-0.2C18.3,9.7,18.2,9.7,18.1,9.7z M18.1,9.7L18.1,9.7c-0.2,0.1-0.3,0.1-0.3,0.2
				c0,0.1,0.1,0.1,0.2,0.1c0.2,0,0.3-0.1,0.3-0.2C18.3,9.7,18.2,9.7,18.1,9.7z M18.2,10.8L18.2,10.8c0-0.2,0-0.3-0.1-0.3
				c-0.1,0-0.1,0-0.1,0.1v0c0,0.1,0,0.1,0,0.2c-0.2,0-0.3,0-0.3,0.1c0,0,0.1,0.1,0.2,0.1c0,0.2,0.1,0.4,0.2,0.4c0,0,0,0,0.1,0
				c-0.1-0.1-0.1-0.2-0.1-0.3l0,0c0.1,0,0.2,0,0.3,0s0.1,0,0.1-0.1v0C18.6,10.8,18.4,10.8,18.2,10.8z M20.9,13.4
				c-0.1,0-0.2,0.1-0.2,0.2c0,0.1,0,0.1,0.1,0.1h0.1c0.1,0,0.2,0,0.2-0.1v0C21.1,13.5,21,13.4,20.9,13.4z M20.9,13.4
				c-0.1,0-0.2,0.1-0.2,0.2c0,0.1,0,0.1,0.1,0.1h0.1c0.1,0,0.2,0,0.2-0.1v0C21.1,13.5,21,13.4,20.9,13.4z M18.2,10.8L18.2,10.8
				c0-0.2,0-0.3-0.1-0.3c-0.1,0-0.1,0-0.1,0.1v0c0,0.1,0,0.1,0,0.2c-0.2,0-0.3,0-0.3,0.1c0,0,0.1,0.1,0.2,0.1c0,0.2,0.1,0.4,0.2,0.4
				c0,0,0,0,0.1,0c-0.1-0.1-0.1-0.2-0.1-0.3l0,0c0.1,0,0.2,0,0.3,0s0.1,0,0.1-0.1v0C18.6,10.8,18.4,10.8,18.2,10.8z M18.1,9.7
				L18.1,9.7c-0.2,0.1-0.3,0.1-0.3,0.2c0,0.1,0.1,0.1,0.2,0.1c0.2,0,0.3-0.1,0.3-0.2C18.3,9.7,18.2,9.7,18.1,9.7z M18.1,9.7
				L18.1,9.7c-0.2,0.1-0.3,0.1-0.3,0.2c0,0.1,0.1,0.1,0.2,0.1c0.2,0,0.3-0.1,0.3-0.2C18.3,9.7,18.2,9.7,18.1,9.7z M18.2,10.8
				L18.2,10.8c0-0.2,0-0.3-0.1-0.3c-0.1,0-0.1,0-0.1,0.1v0c0,0.1,0,0.1,0,0.2c-0.2,0-0.3,0-0.3,0.1c0,0,0.1,0.1,0.2,0.1
				c0,0.2,0.1,0.4,0.2,0.4c0,0,0,0,0.1,0c-0.1-0.1-0.1-0.2-0.1-0.3l0,0c0.1,0,0.2,0,0.3,0s0.1,0,0.1-0.1v0
				C18.6,10.8,18.4,10.8,18.2,10.8z M20.9,13.4c-0.1,0-0.2,0.1-0.2,0.2c0,0.1,0,0.1,0.1,0.1h0.1c0.1,0,0.2,0,0.2-0.1v0
				C21.1,13.5,21,13.4,20.9,13.4z M20.9,13.4c-0.1,0-0.2,0.1-0.2,0.2c0,0.1,0,0.1,0.1,0.1h0.1c0.1,0,0.2,0,0.2-0.1v0
				C21.1,13.5,21,13.4,20.9,13.4z M18.2,10.8L18.2,10.8c0-0.2,0-0.3-0.1-0.3c-0.1,0-0.1,0-0.1,0.1v0c0,0.1,0,0.1,0,0.2
				c-0.2,0-0.3,0-0.3,0.1c0,0,0.1,0.1,0.2,0.1c0,0.2,0.1,0.4,0.2,0.4c0,0,0,0,0.1,0c-0.1-0.1-0.1-0.2-0.1-0.3l0,0c0.1,0,0.2,0,0.3,0
				s0.1,0,0.1-0.1v0C18.6,10.8,18.4,10.8,18.2,10.8z M18.1,9.7L18.1,9.7c-0.2,0.1-0.3,0.1-0.3,0.2c0,0.1,0.1,0.1,0.2,0.1
				c0.2,0,0.3-0.1,0.3-0.2C18.3,9.7,18.2,9.7,18.1,9.7z M18.1,9.7L18.1,9.7c-0.2,0.1-0.3,0.1-0.3,0.2c0,0.1,0.1,0.1,0.2,0.1
				c0.2,0,0.3-0.1,0.3-0.2C18.3,9.7,18.2,9.7,18.1,9.7z M18.2,10.8L18.2,10.8c0-0.2,0-0.3-0.1-0.3c-0.1,0-0.1,0-0.1,0.1v0
				c0,0.1,0,0.1,0,0.2c-0.2,0-0.3,0-0.3,0.1c0,0,0.1,0.1,0.2,0.1c0,0.2,0.1,0.4,0.2,0.4c0,0,0,0,0.1,0c-0.1-0.1-0.1-0.2-0.1-0.3l0,0
				c0.1,0,0.2,0,0.3,0s0.1,0,0.1-0.1v0C18.6,10.8,18.4,10.8,18.2,10.8z M20.9,13.4c-0.1,0-0.2,0.1-0.2,0.2c0,0.1,0,0.1,0.1,0.1h0.1
				c0.1,0,0.2,0,0.2-0.1v0C21.1,13.5,21,13.4,20.9,13.4z M20.9,13.4c-0.1,0-0.2,0.1-0.2,0.2c0,0.1,0,0.1,0.1,0.1h0.1
				c0.1,0,0.2,0,0.2-0.1v0C21.1,13.5,21,13.4,20.9,13.4z M18.2,10.8L18.2,10.8c0-0.2,0-0.3-0.1-0.3c-0.1,0-0.1,0-0.1,0.1v0
				c0,0.1,0,0.1,0,0.2c-0.2,0-0.3,0-0.3,0.1c0,0,0.1,0.1,0.2,0.1c0,0.2,0.1,0.4,0.2,0.4c0,0,0,0,0.1,0c-0.1-0.1-0.1-0.2-0.1-0.3l0,0
				c0.1,0,0.2,0,0.3,0s0.1,0,0.1-0.1v0C18.6,10.8,18.4,10.8,18.2,10.8z M18.1,9.7L18.1,9.7c-0.2,0.1-0.3,0.1-0.3,0.2
				c0,0.1,0.1,0.1,0.2,0.1c0.2,0,0.3-0.1,0.3-0.2C18.3,9.7,18.2,9.7,18.1,9.7z M18.1,9.7L18.1,9.7c-0.2,0.1-0.3,0.1-0.3,0.2
				c0,0.1,0.1,0.1,0.2,0.1c0.2,0,0.3-0.1,0.3-0.2C18.3,9.7,18.2,9.7,18.1,9.7z M18.2,10.8L18.2,10.8c0-0.2,0-0.3-0.1-0.3
				c-0.1,0-0.1,0-0.1,0.1v0c0,0.1,0,0.1,0,0.2c-0.2,0-0.3,0-0.3,0.1c0,0,0.1,0.1,0.2,0.1c0,0.2,0.1,0.4,0.2,0.4c0,0,0,0,0.1,0
				c-0.1-0.1-0.1-0.2-0.1-0.3l0,0c0.1,0,0.2,0,0.3,0s0.1,0,0.1-0.1v0C18.6,10.8,18.4,10.8,18.2,10.8z M20.9,13.4
				c-0.1,0-0.2,0.1-0.2,0.2c0,0.1,0,0.1,0.1,0.1h0.1c0.1,0,0.2,0,0.2-0.1v0C21.1,13.5,21,13.4,20.9,13.4z M20.9,13.4
				c-0.1,0-0.2,0.1-0.2,0.2c0,0.1,0,0.1,0.1,0.1h0.1c0.1,0,0.2,0,0.2-0.1v0C21.1,13.5,21,13.4,20.9,13.4z M18.2,10.8L18.2,10.8
				c0-0.2,0-0.3-0.1-0.3c-0.1,0-0.1,0-0.1,0.1v0c0,0.1,0,0.1,0,0.2c-0.2,0-0.3,0-0.3,0.1c0,0,0.1,0.1,0.2,0.1c0,0.2,0.1,0.4,0.2,0.4
				c0,0,0,0,0.1,0c-0.1-0.1-0.1-0.2-0.1-0.3l0,0c0.1,0,0.2,0,0.3,0s0.1,0,0.1-0.1v0C18.6,10.8,18.4,10.8,18.2,10.8z M18.1,9.7
				L18.1,9.7c-0.2,0.1-0.3,0.1-0.3,0.2c0,0.1,0.1,0.1,0.2,0.1c0.2,0,0.3-0.1,0.3-0.2C18.3,9.7,18.2,9.7,18.1,9.7z M18.1,9.7
				L18.1,9.7c-0.2,0.1-0.3,0.1-0.3,0.2c0,0.1,0.1,0.1,0.2,0.1c0.2,0,0.3-0.1,0.3-0.2C18.3,9.7,18.2,9.7,18.1,9.7z M18.2,10.8
				L18.2,10.8c0-0.2,0-0.3-0.1-0.3c-0.1,0-0.1,0-0.1,0.1v0c0,0.1,0,0.1,0,0.2c-0.2,0-0.3,0-0.3,0.1c0,0,0.1,0.1,0.2,0.1
				c0,0.2,0.1,0.4,0.2,0.4c0,0,0,0,0.1,0c-0.1-0.1-0.1-0.2-0.1-0.3l0,0c0.1,0,0.2,0,0.3,0s0.1,0,0.1-0.1v0
				C18.6,10.8,18.4,10.8,18.2,10.8z M18.2,10.8L18.2,10.8c0-0.2,0-0.3-0.1-0.3c-0.1,0-0.1,0-0.1,0.1v0c0,0.1,0,0.1,0,0.2
				c-0.2,0-0.3,0-0.3,0.1c0,0,0.1,0.1,0.2,0.1c0,0.2,0.1,0.4,0.2,0.4c0,0,0,0,0.1,0c-0.1-0.1-0.1-0.2-0.1-0.3l0,0c0.1,0,0.2,0,0.3,0
				s0.1,0,0.1-0.1v0C18.6,10.8,18.4,10.8,18.2,10.8z M18.1,9.7L18.1,9.7c-0.2,0.1-0.3,0.1-0.3,0.2c0,0.1,0.1,0.1,0.2,0.1
				c0.2,0,0.3-0.1,0.3-0.2C18.3,9.7,18.2,9.7,18.1,9.7z M20.9,13.4c-0.1,0-0.2,0.1-0.2,0.2c0,0.1,0,0.1,0.1,0.1h0.1
				c0.1,0,0.2,0,0.2-0.1v0C21.1,13.5,21,13.4,20.9,13.4z M20.9,13.4c-0.1,0-0.2,0.1-0.2,0.2c0,0.1,0,0.1,0.1,0.1h0.1
				c0.1,0,0.2,0,0.2-0.1v0C21.1,13.5,21,13.4,20.9,13.4z"/>
			<path id="XMLID_247_" class="st0" d="M19.6,14.9c0,0.1,0,0.2-0.1,0.2c-0.1,0-0.2,0-0.3-0.1v0C19.3,14.9,19.4,14.9,19.6,14.9
				L19.6,14.9L19.6,14.9z"/>
			<path id="XMLID_254_" class="st0" d="M19,14.2L19,14.2l-0.2,0.1c-0.1,0-0.2-0.1-0.3-0.2l0-0.1C18.7,14.1,18.9,14.2,19,14.2z"/>
			<path id="XMLID_224_" class="st1" d="M19.5,14.5l-0.4,0.2l0,0l-0.1,0h0c0,0-0.1,0-0.3,0c-0.5-0.2-0.7-0.4-0.7-0.6
				c0-0.2,0.1-0.4,0.2-0.5h0c0.1,0.1,0.1,0.1,0.2,0.1c-0.1,0.1-0.1,0.2-0.1,0.2v0.1c0.2,0.2,0.4,0.3,0.6,0.3c0.3,0,0.5,0,0.6-0.1h0
				C19.5,14.4,19.5,14.5,19.5,14.5z"/>
			<path id="XMLID_231_" class="st2" d="M20.9,14.6c0,0,0,0.1-0.1,0.1c-0.4,0.2-0.7,0.3-0.9,0.3h0v0c0-0.2,0-0.5-0.1-0.7v0
				c0.1,0,0.2-0.1,0.4-0.2h0.1C20.4,14,20.6,14.2,20.9,14.6z"/>
			<path id="XMLID_241_" class="st1" d="M21.4,13.7L21.4,13.7c0-0.5-0.1-0.7-0.2-0.7c0,0,0,0,0,0H21c-0.2,0-0.4,0.1-0.6,0.2
				c0,0-0.1,0-0.1,0l0,0.2c0,0.2,0,0.3,0,0.4c0.3,0.1,0.5,0.2,0.7,0.4c0,0.1,0.1,0.1,0.1,0.1c0.1-0.2,0.2-0.3,0.2-0.4l0,0
				C21.4,13.9,21.4,13.9,21.4,13.7C21.4,13.8,21.4,13.7,21.4,13.7z M21.1,13.6c0,0.1-0.1,0.1-0.2,0.1h-0.1c-0.1,0-0.1-0.1-0.1-0.1
				c0-0.2,0.1-0.2,0.2-0.2C21,13.4,21.1,13.5,21.1,13.6L21.1,13.6z"/>
			<path id="XMLID_217_" class="st1" d="M20.3,11.9L20.3,11.9c-0.1,0.1-0.3,0.3-0.6,0.5h0c-0.1,0-0.1-0.1-0.1-0.1v0
				c0.4-0.3,0.6-0.5,0.6-0.5C20.2,11.9,20.3,11.9,20.3,11.9z"/>
			<path id="XMLID_210_" class="st0" d="M21.2,12.8L21.2,12.8c-0.3,0-0.6,0.1-0.9,0.2h0c-0.2-0.3-0.4-0.4-0.4-0.5l0.6-0.4
				c0.1,0,0.2,0.1,0.2,0.2L21.2,12.8z"/>
			<path id="XMLID_203_" class="st1" d="M19.9,11.7c-0.4,0.3-0.6,0.5-0.6,0.5c0,0-0.1,0-0.1,0V12l0.6-0.5L19.9,11.7z"/>
			<path id="XMLID_196_" class="st2" d="M19.3,11.6L19.3,11.6L19.3,11.6c-0.3-0.1-0.4-0.2-0.4-0.2v0c0,0,0,0,0.1-0.1L19.3,11.6z"/>
			<path id="XMLID_170_" class="st0" d="M19.5,11.4C19.5,11.5,19.5,11.5,19.5,11.4L19.5,11.4c-0.2,0-0.3-0.1-0.5-0.2
				c0,0,0-0.1,0.1-0.1h0.1v0C19.4,11.3,19.5,11.4,19.5,11.4z"/>
			<path id="XMLID_62_" class="st0" d="M19.1,11.7L19.1,11.7c0,0-0.1,0.1-0.2,0.1h0c-0.3-0.1-0.4-0.2-0.4-0.2v0l0.1-0.1
				c0,0,0.1,0,0.1,0C18.9,11.7,19,11.7,19.1,11.7z"/>
			<path id="XMLID_190_" class="st2" d="M18.5,10.4L18.5,10.4c-0.2-0.1-0.3-0.1-0.3-0.1h-0.1c-0.4,0.1-0.6,0.1-0.6,0.2v0
				c0,0.3,0.2,0.7,0.7,1h0c0.4-0.3,0.6-0.5,0.7-0.5v0C18.6,10.8,18.5,10.6,18.5,10.4z M18.6,10.9c0,0-0.1,0.1-0.1,0.1s-0.2,0-0.3,0
				l0,0c0,0.1,0,0.2,0.1,0.3c0,0-0.1,0-0.1,0c-0.1,0-0.2-0.1-0.2-0.4c-0.2,0-0.2-0.1-0.2-0.1c0,0,0.1-0.1,0.3-0.1c0-0.1,0-0.2,0-0.2
				v0c0,0,0,0,0.1-0.1c0.1,0,0.1,0.1,0.1,0.3v0.1C18.4,10.8,18.6,10.8,18.6,10.9L18.6,10.9z"/>
			<path id="XMLID_181_" class="st0" d="M18.3,9.3l-0.1,0c-0.3,0.2-0.5,0.4-0.5,0.5c-0.1,0-0.1,0.1-0.2,0.2V10c0,0.2,0,0.2,0,0.3h0
				c0.1,0,0.3-0.1,0.6-0.1h0.1c0.2,0,0.4,0,0.4-0.1c0.1-0.1,0.2-0.2,0.2-0.2v0C18.7,9.7,18.5,9.5,18.3,9.3z M18,10
				c-0.1,0-0.2-0.1-0.2-0.1c0-0.1,0.1-0.2,0.2-0.2h0.1c0.1,0,0.2,0,0.2,0.1C18.3,9.9,18.1,10,18,10z"/>
			<path id="XMLID_53_" class="st2" d="M20.5,10.4L20.5,10.4C20.5,10.4,20.5,10.4,20.5,10.4c-0.3,0-0.4-0.1-0.4-0.2
				c0-0.1,0-0.1,0.1-0.1h0C20.2,10.1,20.3,10.2,20.5,10.4z"/>
			<path id="XMLID_61_" class="st2" d="M20.8,10.1L20.8,10.1c0,0.1,0,0.1-0.1,0.1c-0.3-0.2-0.4-0.3-0.5-0.3v0c0-0.1,0-0.1,0.1-0.1
				C20.6,10,20.7,10.1,20.8,10.1z"/>
			<path id="XMLID_65_" class="st2" d="M21,9.8c0,0.1,0,0.1-0.1,0.1h0c-0.1-0.1-0.3-0.2-0.6-0.4V9.5l0-0.1C20.5,9.4,20.7,9.5,21,9.8
				z"/>
			<path id="XMLID_171_" class="st1" d="M19.9,9.5c0,0.2-0.1,0.4-0.1,0.5h0c-0.1,0-0.1-0.1-0.2-0.1c-0.3,0-0.5-0.1-0.5-0.2
				c-0.1-0.1-0.3-0.3-0.6-0.6v0c0.2-0.1,0.4-0.1,0.6-0.1h0.2c0.1,0,0.3,0,0.5,0.1C19.9,9.2,19.9,9.3,19.9,9.5z"/>
			<path id="XMLID_67_" d="M24.5,11.6c-0.1,0-0.2,0.1-0.2,0.1c0,0.2,0.1,0.3,0.2,0.3h0c0.1,0,0.2-0.1,0.2-0.2v0
				C24.7,11.7,24.6,11.6,24.5,11.6z M24.9,10.7L24.9,10.7c-0.2,0-0.3,0.1-0.3,0.2c0,0.1,0.1,0.1,0.3,0.1c0.1-0.1,0.2-0.1,0.2-0.2
				C25.1,10.8,25,10.8,24.9,10.7z M25.7,10.8c-0.1,0-0.2,0-0.2,0.1v0.1c0,0.1,0.1,0.1,0.2,0.1c0.1,0,0.2-0.1,0.2-0.2
				C25.9,10.8,25.8,10.8,25.7,10.8z M27.1,12.6c-0.2,0-0.3,0.1-0.3,0.2c0,0.1,0.1,0.1,0.3,0.1h0c0.1,0,0.1,0,0.1-0.1v-0.1
				C27.2,12.6,27.1,12.6,27.1,12.6z M27.1,12.6c-0.2,0-0.3,0.1-0.3,0.2c0,0.1,0.1,0.1,0.3,0.1h0c0.1,0,0.1,0,0.1-0.1v-0.1
				C27.2,12.6,27.1,12.6,27.1,12.6z M25.7,10.8c-0.1,0-0.2,0-0.2,0.1v0.1c0,0.1,0.1,0.1,0.2,0.1c0.1,0,0.2-0.1,0.2-0.2
				C25.9,10.8,25.8,10.8,25.7,10.8z M24.9,10.7L24.9,10.7c-0.2,0-0.3,0.1-0.3,0.2c0,0.1,0.1,0.1,0.3,0.1c0.1-0.1,0.2-0.1,0.2-0.2
				C25.1,10.8,25,10.8,24.9,10.7z M24.5,11.6c-0.1,0-0.2,0.1-0.2,0.1c0,0.2,0.1,0.3,0.2,0.3h0c0.1,0,0.2-0.1,0.2-0.2v0
				C24.7,11.7,24.6,11.6,24.5,11.6z M24.5,11.6c-0.1,0-0.2,0.1-0.2,0.1c0,0.2,0.1,0.3,0.2,0.3h0c0.1,0,0.2-0.1,0.2-0.2v0
				C24.7,11.7,24.6,11.6,24.5,11.6z M24.9,10.7L24.9,10.7c-0.2,0-0.3,0.1-0.3,0.2c0,0.1,0.1,0.1,0.3,0.1c0.1-0.1,0.2-0.1,0.2-0.2
				C25.1,10.8,25,10.8,24.9,10.7z M25.7,10.8c-0.1,0-0.2,0-0.2,0.1v0.1c0,0.1,0.1,0.1,0.2,0.1c0.1,0,0.2-0.1,0.2-0.2
				C25.9,10.8,25.8,10.8,25.7,10.8z M27.1,12.6c-0.2,0-0.3,0.1-0.3,0.2c0,0.1,0.1,0.1,0.3,0.1h0c0.1,0,0.1,0,0.1-0.1v-0.1
				C27.2,12.6,27.1,12.6,27.1,12.6z M27.1,12.6c-0.2,0-0.3,0.1-0.3,0.2c0,0.1,0.1,0.1,0.3,0.1h0c0.1,0,0.1,0,0.1-0.1v-0.1
				C27.2,12.6,27.1,12.6,27.1,12.6z M25.7,10.8c-0.1,0-0.2,0-0.2,0.1v0.1c0,0.1,0.1,0.1,0.2,0.1c0.1,0,0.2-0.1,0.2-0.2
				C25.9,10.8,25.8,10.8,25.7,10.8z M24.9,10.7L24.9,10.7c-0.2,0-0.3,0.1-0.3,0.2c0,0.1,0.1,0.1,0.3,0.1c0.1-0.1,0.2-0.1,0.2-0.2
				C25.1,10.8,25,10.8,24.9,10.7z M24.5,11.6c-0.1,0-0.2,0.1-0.2,0.1c0,0.2,0.1,0.3,0.2,0.3h0c0.1,0,0.2-0.1,0.2-0.2v0
				C24.7,11.7,24.6,11.6,24.5,11.6z M24.5,11.6c-0.1,0-0.2,0.1-0.2,0.1c0,0.2,0.1,0.3,0.2,0.3h0c0.1,0,0.2-0.1,0.2-0.2v0
				C24.7,11.7,24.6,11.6,24.5,11.6z M24.9,10.7L24.9,10.7c-0.2,0-0.3,0.1-0.3,0.2c0,0.1,0.1,0.1,0.3,0.1c0.1-0.1,0.2-0.1,0.2-0.2
				C25.1,10.8,25,10.8,24.9,10.7z M25.7,10.8c-0.1,0-0.2,0-0.2,0.1v0.1c0,0.1,0.1,0.1,0.2,0.1c0.1,0,0.2-0.1,0.2-0.2
				C25.9,10.8,25.8,10.8,25.7,10.8z M27.1,12.6c-0.2,0-0.3,0.1-0.3,0.2c0,0.1,0.1,0.1,0.3,0.1h0c0.1,0,0.1,0,0.1-0.1v-0.1
				C27.2,12.6,27.1,12.6,27.1,12.6z M27.1,12.6c-0.2,0-0.3,0.1-0.3,0.2c0,0.1,0.1,0.1,0.3,0.1h0c0.1,0,0.1,0,0.1-0.1v-0.1
				C27.2,12.6,27.1,12.6,27.1,12.6z M25.7,10.8c-0.1,0-0.2,0-0.2,0.1v0.1c0,0.1,0.1,0.1,0.2,0.1c0.1,0,0.2-0.1,0.2-0.2
				C25.9,10.8,25.8,10.8,25.7,10.8z M24.9,10.7L24.9,10.7c-0.2,0-0.3,0.1-0.3,0.2c0,0.1,0.1,0.1,0.3,0.1c0.1-0.1,0.2-0.1,0.2-0.2
				C25.1,10.8,25,10.8,24.9,10.7z M24.5,11.6c-0.1,0-0.2,0.1-0.2,0.1c0,0.2,0.1,0.3,0.2,0.3h0c0.1,0,0.2-0.1,0.2-0.2v0
				C24.7,11.7,24.6,11.6,24.5,11.6z M24.5,11.6c-0.1,0-0.2,0.1-0.2,0.1c0,0.2,0.1,0.3,0.2,0.3h0c0.1,0,0.2-0.1,0.2-0.2v0
				C24.7,11.7,24.6,11.6,24.5,11.6z M24.9,10.7L24.9,10.7c-0.2,0-0.3,0.1-0.3,0.2c0,0.1,0.1,0.1,0.3,0.1c0.1-0.1,0.2-0.1,0.2-0.2
				C25.1,10.8,25,10.8,24.9,10.7z M25.7,10.8c-0.1,0-0.2,0-0.2,0.1v0.1c0,0.1,0.1,0.1,0.2,0.1c0.1,0,0.2-0.1,0.2-0.2
				C25.9,10.8,25.8,10.8,25.7,10.8z M27.1,12.6c-0.2,0-0.3,0.1-0.3,0.2c0,0.1,0.1,0.1,0.3,0.1h0c0.1,0,0.1,0,0.1-0.1v-0.1
				C27.2,12.6,27.1,12.6,27.1,12.6z M27.1,12.6c-0.2,0-0.3,0.1-0.3,0.2c0,0.1,0.1,0.1,0.3,0.1h0c0.1,0,0.1,0,0.1-0.1v-0.1
				C27.2,12.6,27.1,12.6,27.1,12.6z M25.7,10.8c-0.1,0-0.2,0-0.2,0.1v0.1c0,0.1,0.1,0.1,0.2,0.1c0.1,0,0.2-0.1,0.2-0.2
				C25.9,10.8,25.8,10.8,25.7,10.8z M24.9,10.7L24.9,10.7c-0.2,0-0.3,0.1-0.3,0.2c0,0.1,0.1,0.1,0.3,0.1c0.1-0.1,0.2-0.1,0.2-0.2
				C25.1,10.8,25,10.8,24.9,10.7z M24.5,11.6c-0.1,0-0.2,0.1-0.2,0.1c0,0.2,0.1,0.3,0.2,0.3h0c0.1,0,0.2-0.1,0.2-0.2v0
				C24.7,11.7,24.6,11.6,24.5,11.6z M28.9,14.6c-0.1-0.4-0.3-0.7-0.5-1.1c-0.4-0.8-0.6-1.2-0.7-1.3l-0.6-1.1
				c-0.4-0.8-0.7-1.3-0.9-1.5c-0.3-0.6-0.6-0.8-0.7-0.8h-0.1l0,0c0,0,0,0,0,0h-0.1c0,0-0.1,0.1-0.3,0.4c-0.1,0.2-0.2,0.4-0.4,0.7
				c-0.7,1.4-1.1,2.1-1.2,2.3c-0.2,0.5-0.4,0.8-0.6,1c0,0.1-0.1,0.3-0.2,0.5c-0.1,0.3-0.3,0.6-0.5,0.9c-0.1,0.3-0.2,0.4-0.2,0.4
				c0,0.1,0.2,0.2,0.7,0.2c0,0,0,0,0,0l0.4,0c0,0,0.1,0,0.1,0h0.1c0,0,0.2,0,0.4,0h0c0.2,0,0.2-0.1,0.2-0.2c0.2-0.2,0.3-0.3,0.3-0.4
				l0.3-0.4c0-0.1,0.1-0.1,0.4-0.1c0,0,0,0,0,0c0,0,0,0,0.1,0h0.2l0.2,0c0,0,0,0,0,0l0,0l0.1,0h0.7c0.1,0,0.2,0,0.3,0
				c0.1,0,0.1,0,0.2,0c0.3,0.5,0.4,0.8,0.5,0.9c0,0.2,0.1,0.3,0.3,0.3c0.2,0,0.4,0,0.4,0c0.3,0,0.5,0,0.5-0.1c0.4,0,0.7-0.1,0.7-0.2
				C29.2,15,29.1,14.8,28.9,14.6z M26.8,11.2L26.8,11.2L26.8,11.2c0.3,0.4,0.4,0.7,0.5,0.9c0,0-0.1,0-0.2,0.1
				c-0.4,0.1-0.6,0.2-0.8,0.3C26.1,12.2,26,12.1,26,12v0c0.1,0,0.2,0,0.2,0h0c0.4,0,0.6,0,0.6-0.1C26.8,11.7,26.8,11.5,26.8,11.2
				L26.8,11.2z M25.7,9.3L25.7,9.3c0.4,0.6,0.7,1,0.8,1.1v0c-0.4,0-0.6,0-0.7,0l-0.1,0c0-0.1,0-0.2,0-0.3
				C25.7,9.6,25.7,9.3,25.7,9.3z M25.4,9C25.4,9,25.4,9,25.4,9L25.4,9c0.1,0,0.1,0,0.1,0C25.5,9.1,25.5,9.1,25.4,9L25.4,9z
				 M25.3,9.3L25.3,9.3L25.3,9.3c0.1,0.4,0.1,0.7,0.1,0.9v0.1l0,0.2c-0.3,0-0.5,0.1-0.5,0.1v0c0,0,0,0-0.1,0l-0.1,0
				C24.7,10.4,24.9,10,25.3,9.3z M24.1,14.5c-0.1,0.3-0.3,0.5-0.4,0.5h-1l-0.2,0c0,0,0,0-0.1,0c0,0,0,0,0-0.1l0,0c0,0,0,0,0,0
				c0.1-0.2,0.2-0.4,0.2-0.5c0.1-0.2,0.2-0.3,0.2-0.3c0.1,0,0.2,0,0.3,0.1l-0.3,0.5l0.1,0.1c0,0,0,0,0.1,0c0.1,0,0.2-0.2,0.4-0.5h0
				C23.5,14.3,23.7,14.3,24.1,14.5L24.1,14.5z M25.7,13.8L25.7,13.8l-0.4,0.1c-0.2,0-0.4,0-0.6,0c0,0-0.1,0-0.2,0
				c-0.1,0-0.2,0.1-0.3,0.3h0c-0.4-0.1-0.6-0.2-0.6-0.2c0.2-0.3,0.3-0.5,0.3-0.5v0c0,0,0,0-0.1,0h-0.1c0,0-0.1,0-0.1,0
				c0,0.1-0.1,0.3-0.3,0.5c-0.1,0-0.3,0-0.4-0.1c0,0,0.1-0.1,0.2-0.3c0.1-0.3,0.3-0.6,0.4-0.8h0.1c0.1,0.3,0.2,0.4,0.3,0.5
				c0.2,0.2,0.5,0.3,0.9,0.3c0.2,0,0.3,0,0.3-0.1c0.1,0,0.3-0.1,0.5-0.2v-0.1c0,0-0.1-0.1-0.1-0.1h-0.1c-0.1,0-0.1,0-0.2,0.1
				c-0.2,0.1-0.3,0.1-0.3,0.1c-0.1,0-0.2,0-0.3,0c-0.2,0-0.5-0.1-0.6-0.4c-0.1-0.2-0.2-0.3-0.2-0.3h0l-0.1,0c0-0.1,0.1-0.2,0.2-0.4
				c0,0,0.1,0,0.1,0c0.2,0.3,0.5,0.5,0.8,0.5h0.2l0.1,0c0,0,0,0.1-0.1,0.2c0,0,0,0.1,0.1,0.1c0.3,0,0.5,0,0.6,0h0
				c0.1,0.3,0.1,0.5,0.1,0.7V13.8z M24.9,11.3C24.9,11.3,25,11.3,24.9,11.3c0.2,0,0.4,0,0.5,0h0.2c0,0,0.1,0.1,0.1,0.2v0h0
				c0,0-0.1,0-0.2,0c0,0-0.1,0-0.1,0c-0.1,0.3-0.2,0.5-0.4,0.8c0,0.1-0.1,0.1-0.3,0.1c-0.2,0-0.4-0.1-0.6-0.4c0-0.1-0.1-0.1-0.2-0.2
				c0.1-0.2,0.1-0.3,0.2-0.3c0.2-0.5,0.4-0.8,0.5-1c0.1,0,0.2,0,0.3,0c0,0,0,0,0.1,0l0,0c0.2,0,0.3,0,0.3,0c0.1,0,0.2,0,0.4,0l0.1,0
				c0.3,0,0.5,0,0.5,0.1c0.1,0,0.2,0.2,0.2,0.6l0,0.1c0,0,0,0,0,0c0,0.1,0,0.2,0,0.3c0,0,0,0.1-0.1,0.1h-0.1c-0.1,0-0.1,0-0.2,0
				c-0.1,0-0.1-0.1-0.1-0.4l0,0c0-0.1-0.1-0.1-0.3-0.2h-0.3l-0.1,0c0,0-0.1,0-0.4,0c-0.2,0-0.3,0.1-0.3,0.1v0.1
				C24.8,11.3,24.8,11.3,24.9,11.3z M27.5,14.9l-0.3-0.5C27.1,14.1,27,14,26.8,14h-0.4c-0.1,0-0.2,0-0.4,0c0,0-0.1-0.3-0.1-0.9
				c0,0,0,0,0,0c0-0.1,0-0.1,0.1-0.1h0.2c0.1,0.1,0.2,0.1,0.2,0.1c0.1-0.1,0.2-0.1,0.2-0.1c-0.1-0.2-0.2-0.3-0.2-0.4h0.1
				c0.1,0,0.2,0,0.3-0.1c0.2-0.1,0.5-0.1,0.7-0.2c0.1,0.2,0.3,0.4,0.3,0.6c-0.4,0.1-0.6,0.2-0.7,0.2c-0.3,0.1-0.5,0.1-0.5,0.2v0
				c0,0,0.1,0.1,0.1,0.1h0.1c0,0,0.1,0,0.2,0c0.2-0.1,0.5-0.2,0.9-0.3c0,0,0.1,0,0.1,0.1c0,0-0.2,0-0.4,0.1
				c-0.5,0.1-0.7,0.2-0.7,0.3c0,0,0.1,0.1,0.2,0.1c0,0,0.1,0,0.3-0.1c0.4-0.1,0.6-0.2,0.7-0.2h0c0.1,0.2,0.1,0.2,0.1,0.3v0h-0.1
				c-0.1,0-0.1,0-0.2,0.1V14l-0.1,0.3h0c-0.1,0-0.3-0.1-0.5-0.2h-0.2l-0.1,0.1v0c0,0.1,0.2,0.2,0.6,0.3v0
				C27.8,14.5,27.7,14.7,27.5,14.9L27.5,14.9z M28.9,15C28.8,15,28.8,15,28.9,15c-0.7,0-1,0.1-1.2,0.1c0,0-0.1,0-0.1,0
				c0,0,0,0,0.1,0c0.1,0,0.2-0.1,0.3-0.4H28c0.3,0.2,0.4,0.3,0.5,0.3c0.1,0,0.1,0,0.2-0.1v-0.1l-0.6-0.4v-0.1
				c0.1-0.2,0.1-0.3,0.2-0.3l0,0L28.9,15L28.9,15z M27.1,12.9L27.1,12.9c0.1,0,0.1,0,0.1-0.1v-0.1c0-0.1,0-0.1-0.1-0.1
				c-0.2,0-0.3,0.1-0.3,0.2C26.8,12.9,26.9,12.9,27.1,12.9z M25.7,11.1c0.1,0,0.2-0.1,0.2-0.2c0-0.1-0.1-0.1-0.2-0.1
				c-0.1,0-0.2,0-0.2,0.1v0.1C25.5,11,25.6,11.1,25.7,11.1z M25.1,10.9c0,0,0-0.1-0.1-0.1h-0.1c-0.2,0-0.3,0.1-0.3,0.2
				c0,0.1,0.1,0.1,0.3,0.1C25,11,25.1,10.9,25.1,10.9z M24.5,11.6c-0.1,0-0.2,0.1-0.2,0.1c0,0.2,0.1,0.3,0.2,0.3h0
				c0.1,0,0.2-0.1,0.2-0.2v0C24.7,11.7,24.6,11.6,24.5,11.6z M24.5,11.6c-0.1,0-0.2,0.1-0.2,0.1c0,0.2,0.1,0.3,0.2,0.3h0
				c0.1,0,0.2-0.1,0.2-0.2v0C24.7,11.7,24.6,11.6,24.5,11.6z M24.9,10.7L24.9,10.7c-0.2,0-0.3,0.1-0.3,0.2c0,0.1,0.1,0.1,0.3,0.1
				c0.1-0.1,0.2-0.1,0.2-0.2C25.1,10.8,25,10.8,24.9,10.7z M25.7,10.8c-0.1,0-0.2,0-0.2,0.1v0.1c0,0.1,0.1,0.1,0.2,0.1
				c0.1,0,0.2-0.1,0.2-0.2C25.9,10.8,25.8,10.8,25.7,10.8z M27.1,12.6c-0.2,0-0.3,0.1-0.3,0.2c0,0.1,0.1,0.1,0.3,0.1h0
				c0.1,0,0.1,0,0.1-0.1v-0.1C27.2,12.6,27.1,12.6,27.1,12.6z M27.1,12.6c-0.2,0-0.3,0.1-0.3,0.2c0,0.1,0.1,0.1,0.3,0.1h0
				c0.1,0,0.1,0,0.1-0.1v-0.1C27.2,12.6,27.1,12.6,27.1,12.6z M25.7,10.8c-0.1,0-0.2,0-0.2,0.1v0.1c0,0.1,0.1,0.1,0.2,0.1
				c0.1,0,0.2-0.1,0.2-0.2C25.9,10.8,25.8,10.8,25.7,10.8z M24.9,10.7L24.9,10.7c-0.2,0-0.3,0.1-0.3,0.2c0,0.1,0.1,0.1,0.3,0.1
				c0.1-0.1,0.2-0.1,0.2-0.2C25.1,10.8,25,10.8,24.9,10.7z M24.5,11.6c-0.1,0-0.2,0.1-0.2,0.1c0,0.2,0.1,0.3,0.2,0.3h0
				c0.1,0,0.2-0.1,0.2-0.2v0C24.7,11.7,24.6,11.6,24.5,11.6z M24.5,11.6c-0.1,0-0.2,0.1-0.2,0.1c0,0.2,0.1,0.3,0.2,0.3h0
				c0.1,0,0.2-0.1,0.2-0.2v0C24.7,11.7,24.6,11.6,24.5,11.6z M24.9,10.7L24.9,10.7c-0.2,0-0.3,0.1-0.3,0.2c0,0.1,0.1,0.1,0.3,0.1
				c0.1-0.1,0.2-0.1,0.2-0.2C25.1,10.8,25,10.8,24.9,10.7z M25.7,10.8c-0.1,0-0.2,0-0.2,0.1v0.1c0,0.1,0.1,0.1,0.2,0.1
				c0.1,0,0.2-0.1,0.2-0.2C25.9,10.8,25.8,10.8,25.7,10.8z M27.1,12.6c-0.2,0-0.3,0.1-0.3,0.2c0,0.1,0.1,0.1,0.3,0.1h0
				c0.1,0,0.1,0,0.1-0.1v-0.1C27.2,12.6,27.1,12.6,27.1,12.6z M27.1,12.6c-0.2,0-0.3,0.1-0.3,0.2c0,0.1,0.1,0.1,0.3,0.1h0
				c0.1,0,0.1,0,0.1-0.1v-0.1C27.2,12.6,27.1,12.6,27.1,12.6z M25.7,10.8c-0.1,0-0.2,0-0.2,0.1v0.1c0,0.1,0.1,0.1,0.2,0.1
				c0.1,0,0.2-0.1,0.2-0.2C25.9,10.8,25.8,10.8,25.7,10.8z M24.9,10.7L24.9,10.7c-0.2,0-0.3,0.1-0.3,0.2c0,0.1,0.1,0.1,0.3,0.1
				c0.1-0.1,0.2-0.1,0.2-0.2C25.1,10.8,25,10.8,24.9,10.7z M24.5,11.6c-0.1,0-0.2,0.1-0.2,0.1c0,0.2,0.1,0.3,0.2,0.3h0
				c0.1,0,0.2-0.1,0.2-0.2v0C24.7,11.7,24.6,11.6,24.5,11.6z M24.5,11.6c-0.1,0-0.2,0.1-0.2,0.1c0,0.2,0.1,0.3,0.2,0.3h0
				c0.1,0,0.2-0.1,0.2-0.2v0C24.7,11.7,24.6,11.6,24.5,11.6z M24.9,10.7L24.9,10.7c-0.2,0-0.3,0.1-0.3,0.2c0,0.1,0.1,0.1,0.3,0.1
				c0.1-0.1,0.2-0.1,0.2-0.2C25.1,10.8,25,10.8,24.9,10.7z M25.7,10.8c-0.1,0-0.2,0-0.2,0.1v0.1c0,0.1,0.1,0.1,0.2,0.1
				c0.1,0,0.2-0.1,0.2-0.2C25.9,10.8,25.8,10.8,25.7,10.8z M27.1,12.6c-0.2,0-0.3,0.1-0.3,0.2c0,0.1,0.1,0.1,0.3,0.1h0
				c0.1,0,0.1,0,0.1-0.1v-0.1C27.2,12.6,27.1,12.6,27.1,12.6z M27.1,12.6c-0.2,0-0.3,0.1-0.3,0.2c0,0.1,0.1,0.1,0.3,0.1h0
				c0.1,0,0.1,0,0.1-0.1v-0.1C27.2,12.6,27.1,12.6,27.1,12.6z M25.7,10.8c-0.1,0-0.2,0-0.2,0.1v0.1c0,0.1,0.1,0.1,0.2,0.1
				c0.1,0,0.2-0.1,0.2-0.2C25.9,10.8,25.8,10.8,25.7,10.8z M24.9,10.7L24.9,10.7c-0.2,0-0.3,0.1-0.3,0.2c0,0.1,0.1,0.1,0.3,0.1
				c0.1-0.1,0.2-0.1,0.2-0.2C25.1,10.8,25,10.8,24.9,10.7z M24.5,11.6c-0.1,0-0.2,0.1-0.2,0.1c0,0.2,0.1,0.3,0.2,0.3h0
				c0.1,0,0.2-0.1,0.2-0.2v0C24.7,11.7,24.6,11.6,24.5,11.6z M24.5,11.6c-0.1,0-0.2,0.1-0.2,0.1c0,0.2,0.1,0.3,0.2,0.3h0
				c0.1,0,0.2-0.1,0.2-0.2v0C24.7,11.7,24.6,11.6,24.5,11.6z M24.9,10.7L24.9,10.7c-0.2,0-0.3,0.1-0.3,0.2c0,0.1,0.1,0.1,0.3,0.1
				c0.1-0.1,0.2-0.1,0.2-0.2C25.1,10.8,25,10.8,24.9,10.7z M25.7,10.8c-0.1,0-0.2,0-0.2,0.1v0.1c0,0.1,0.1,0.1,0.2,0.1
				c0.1,0,0.2-0.1,0.2-0.2C25.9,10.8,25.8,10.8,25.7,10.8z M24.5,11.6c-0.1,0-0.2,0.1-0.2,0.1c0,0.2,0.1,0.3,0.2,0.3h0
				c0.1,0,0.2-0.1,0.2-0.2v0C24.7,11.7,24.6,11.6,24.5,11.6z M24.9,10.7L24.9,10.7c-0.2,0-0.3,0.1-0.3,0.2c0,0.1,0.1,0.1,0.3,0.1
				c0.1-0.1,0.2-0.1,0.2-0.2C25.1,10.8,25,10.8,24.9,10.7z M25.7,10.8c-0.1,0-0.2,0-0.2,0.1v0.1c0,0.1,0.1,0.1,0.2,0.1
				c0.1,0,0.2-0.1,0.2-0.2C25.9,10.8,25.8,10.8,25.7,10.8z M27.1,12.6c-0.2,0-0.3,0.1-0.3,0.2c0,0.1,0.1,0.1,0.3,0.1h0
				c0.1,0,0.1,0,0.1-0.1v-0.1C27.2,12.6,27.1,12.6,27.1,12.6z M27.1,12.6c-0.2,0-0.3,0.1-0.3,0.2c0,0.1,0.1,0.1,0.3,0.1h0
				c0.1,0,0.1,0,0.1-0.1v-0.1C27.2,12.6,27.1,12.6,27.1,12.6z"/>
			<path id="XMLID_80_" d="M30.3,14.6c-0.1,0-0.1,0-0.2,0.1v0.2c0,0.1,0.1,0.1,0.2,0.1h0c0.2-0.1,0.2-0.1,0.2-0.2
				C30.5,14.6,30.4,14.6,30.3,14.6z M31.3,11.4L31.3,11.4c-0.2,0.1-0.3,0.1-0.3,0.2c0,0.1,0.1,0.2,0.3,0.2c0.1,0,0.2-0.1,0.3-0.2
				v-0.1C31.5,11.5,31.4,11.5,31.3,11.4z M33.7,11.4c-0.2,0-0.3,0.1-0.3,0.2v0c0.1,0.1,0.2,0.1,0.2,0.1c0.2,0,0.3-0.1,0.3-0.2
				C33.9,11.4,33.8,11.4,33.7,11.4z M34.7,14.7c-0.1,0-0.2,0.1-0.2,0.2c0,0.1,0.1,0.1,0.2,0.1h0.1c0.1,0,0.2-0.1,0.2-0.2v0
				C34.9,14.7,34.8,14.7,34.7,14.7z M33.7,11.4c-0.2,0-0.3,0.1-0.3,0.2v0c0.1,0.1,0.2,0.1,0.2,0.1c0.2,0,0.3-0.1,0.3-0.2
				C33.9,11.4,33.8,11.4,33.7,11.4z M34.7,14.7c-0.1,0-0.2,0.1-0.2,0.2c0,0.1,0.1,0.1,0.2,0.1h0.1c0.1,0,0.2-0.1,0.2-0.2v0
				C34.9,14.7,34.8,14.7,34.7,14.7z M31.3,11.4L31.3,11.4c-0.2,0.1-0.3,0.1-0.3,0.2c0,0.1,0.1,0.2,0.3,0.2c0.1,0,0.2-0.1,0.3-0.2
				v-0.1C31.5,11.5,31.4,11.5,31.3,11.4z M30.3,14.6c-0.1,0-0.1,0-0.2,0.1v0.2c0,0.1,0.1,0.1,0.2,0.1h0c0.2-0.1,0.2-0.1,0.2-0.2
				C30.5,14.6,30.4,14.6,30.3,14.6z M30.3,14.6c-0.1,0-0.1,0-0.2,0.1v0.2c0,0.1,0.1,0.1,0.2,0.1h0c0.2-0.1,0.2-0.1,0.2-0.2
				C30.5,14.6,30.4,14.6,30.3,14.6z M31.3,11.4L31.3,11.4c-0.2,0.1-0.3,0.1-0.3,0.2c0,0.1,0.1,0.2,0.3,0.2c0.1,0,0.2-0.1,0.3-0.2
				v-0.1C31.5,11.5,31.4,11.5,31.3,11.4z M33.7,11.4c-0.2,0-0.3,0.1-0.3,0.2v0c0.1,0.1,0.2,0.1,0.2,0.1c0.2,0,0.3-0.1,0.3-0.2
				C33.9,11.4,33.8,11.4,33.7,11.4z M34.7,14.7c-0.1,0-0.2,0.1-0.2,0.2c0,0.1,0.1,0.1,0.2,0.1h0.1c0.1,0,0.2-0.1,0.2-0.2v0
				C34.9,14.7,34.8,14.7,34.7,14.7z M33.7,11.4c-0.2,0-0.3,0.1-0.3,0.2v0c0.1,0.1,0.2,0.1,0.2,0.1c0.2,0,0.3-0.1,0.3-0.2
				C33.9,11.4,33.8,11.4,33.7,11.4z M34.7,14.7c-0.1,0-0.2,0.1-0.2,0.2c0,0.1,0.1,0.1,0.2,0.1h0.1c0.1,0,0.2-0.1,0.2-0.2v0
				C34.9,14.7,34.8,14.7,34.7,14.7z M31.3,11.4L31.3,11.4c-0.2,0.1-0.3,0.1-0.3,0.2c0,0.1,0.1,0.2,0.3,0.2c0.1,0,0.2-0.1,0.3-0.2
				v-0.1C31.5,11.5,31.4,11.5,31.3,11.4z M30.3,14.6c-0.1,0-0.1,0-0.2,0.1v0.2c0,0.1,0.1,0.1,0.2,0.1h0c0.2-0.1,0.2-0.1,0.2-0.2
				C30.5,14.6,30.4,14.6,30.3,14.6z M30.3,14.6c-0.1,0-0.1,0-0.2,0.1v0.2c0,0.1,0.1,0.1,0.2,0.1h0c0.2-0.1,0.2-0.1,0.2-0.2
				C30.5,14.6,30.4,14.6,30.3,14.6z M31.3,11.4L31.3,11.4c-0.2,0.1-0.3,0.1-0.3,0.2c0,0.1,0.1,0.2,0.3,0.2c0.1,0,0.2-0.1,0.3-0.2
				v-0.1C31.5,11.5,31.4,11.5,31.3,11.4z M33.7,11.4c-0.2,0-0.3,0.1-0.3,0.2v0c0.1,0.1,0.2,0.1,0.2,0.1c0.2,0,0.3-0.1,0.3-0.2
				C33.9,11.4,33.8,11.4,33.7,11.4z M34.7,14.7c-0.1,0-0.2,0.1-0.2,0.2c0,0.1,0.1,0.1,0.2,0.1h0.1c0.1,0,0.2-0.1,0.2-0.2v0
				C34.9,14.7,34.8,14.7,34.7,14.7z M33.7,11.4c-0.2,0-0.3,0.1-0.3,0.2v0c0.1,0.1,0.2,0.1,0.2,0.1c0.2,0,0.3-0.1,0.3-0.2
				C33.9,11.4,33.8,11.4,33.7,11.4z M34.7,14.7c-0.1,0-0.2,0.1-0.2,0.2c0,0.1,0.1,0.1,0.2,0.1h0.1c0.1,0,0.2-0.1,0.2-0.2v0
				C34.9,14.7,34.8,14.7,34.7,14.7z M31.3,11.4L31.3,11.4c-0.2,0.1-0.3,0.1-0.3,0.2c0,0.1,0.1,0.2,0.3,0.2c0.1,0,0.2-0.1,0.3-0.2
				v-0.1C31.5,11.5,31.4,11.5,31.3,11.4z M30.3,14.6c-0.1,0-0.1,0-0.2,0.1v0.2c0,0.1,0.1,0.1,0.2,0.1h0c0.2-0.1,0.2-0.1,0.2-0.2
				C30.5,14.6,30.4,14.6,30.3,14.6z M30.3,14.6c-0.1,0-0.1,0-0.2,0.1v0.2c0,0.1,0.1,0.1,0.2,0.1h0c0.2-0.1,0.2-0.1,0.2-0.2
				C30.5,14.6,30.4,14.6,30.3,14.6z M31.3,11.4L31.3,11.4c-0.2,0.1-0.3,0.1-0.3,0.2c0,0.1,0.1,0.2,0.3,0.2c0.1,0,0.2-0.1,0.3-0.2
				v-0.1C31.5,11.5,31.4,11.5,31.3,11.4z M33.7,11.4c-0.2,0-0.3,0.1-0.3,0.2v0c0.1,0.1,0.2,0.1,0.2,0.1c0.2,0,0.3-0.1,0.3-0.2
				C33.9,11.4,33.8,11.4,33.7,11.4z M34.7,14.7c-0.1,0-0.2,0.1-0.2,0.2c0,0.1,0.1,0.1,0.2,0.1h0.1c0.1,0,0.2-0.1,0.2-0.2v0
				C34.9,14.7,34.8,14.7,34.7,14.7z M33.7,11.4c-0.2,0-0.3,0.1-0.3,0.2v0c0.1,0.1,0.2,0.1,0.2,0.1c0.2,0,0.3-0.1,0.3-0.2
				C33.9,11.4,33.8,11.4,33.7,11.4z M34.7,14.7c-0.1,0-0.2,0.1-0.2,0.2c0,0.1,0.1,0.1,0.2,0.1h0.1c0.1,0,0.2-0.1,0.2-0.2v0
				C34.9,14.7,34.8,14.7,34.7,14.7z M31.3,11.4L31.3,11.4c-0.2,0.1-0.3,0.1-0.3,0.2c0,0.1,0.1,0.2,0.3,0.2c0.1,0,0.2-0.1,0.3-0.2
				v-0.1C31.5,11.5,31.4,11.5,31.3,11.4z M30.3,14.6c-0.1,0-0.1,0-0.2,0.1v0.2c0,0.1,0.1,0.1,0.2,0.1h0c0.2-0.1,0.2-0.1,0.2-0.2
				C30.5,14.6,30.4,14.6,30.3,14.6z M30.3,14.6c-0.1,0-0.1,0-0.2,0.1v0.2c0,0.1,0.1,0.1,0.2,0.1h0c0.2-0.1,0.2-0.1,0.2-0.2
				C30.5,14.6,30.4,14.6,30.3,14.6z M31.3,11.4L31.3,11.4c-0.2,0.1-0.3,0.1-0.3,0.2c0,0.1,0.1,0.2,0.3,0.2c0.1,0,0.2-0.1,0.3-0.2
				v-0.1C31.5,11.5,31.4,11.5,31.3,11.4z M33.7,11.4c-0.2,0-0.3,0.1-0.3,0.2v0c0.1,0.1,0.2,0.1,0.2,0.1c0.2,0,0.3-0.1,0.3-0.2
				C33.9,11.4,33.8,11.4,33.7,11.4z M34.7,14.7c-0.1,0-0.2,0.1-0.2,0.2c0,0.1,0.1,0.1,0.2,0.1h0.1c0.1,0,0.2-0.1,0.2-0.2v0
				C34.9,14.7,34.8,14.7,34.7,14.7z M33.7,11.4c-0.2,0-0.3,0.1-0.3,0.2v0c0.1,0.1,0.2,0.1,0.2,0.1c0.2,0,0.3-0.1,0.3-0.2
				C33.9,11.4,33.8,11.4,33.7,11.4z M34.7,14.7c-0.1,0-0.2,0.1-0.2,0.2c0,0.1,0.1,0.1,0.2,0.1h0.1c0.1,0,0.2-0.1,0.2-0.2v0
				C34.9,14.7,34.8,14.7,34.7,14.7z M31.3,11.4L31.3,11.4c-0.2,0.1-0.3,0.1-0.3,0.2c0,0.1,0.1,0.2,0.3,0.2c0.1,0,0.2-0.1,0.3-0.2
				v-0.1C31.5,11.5,31.4,11.5,31.3,11.4z M30.3,14.6c-0.1,0-0.1,0-0.2,0.1v0.2c0,0.1,0.1,0.1,0.2,0.1h0c0.2-0.1,0.2-0.1,0.2-0.2
				C30.5,14.6,30.4,14.6,30.3,14.6z M30.3,14.6c-0.1,0-0.1,0-0.2,0.1v0.2c0,0.1,0.1,0.1,0.2,0.1h0c0.2-0.1,0.2-0.1,0.2-0.2
				C30.5,14.6,30.4,14.6,30.3,14.6z M31.3,11.4L31.3,11.4c-0.2,0.1-0.3,0.1-0.3,0.2c0,0.1,0.1,0.2,0.3,0.2c0.1,0,0.2-0.1,0.3-0.2
				v-0.1C31.5,11.5,31.4,11.5,31.3,11.4z M33.7,11.4c-0.2,0-0.3,0.1-0.3,0.2v0c0.1,0.1,0.2,0.1,0.2,0.1c0.2,0,0.3-0.1,0.3-0.2
				C33.9,11.4,33.8,11.4,33.7,11.4z M34.7,14.7c-0.1,0-0.2,0.1-0.2,0.2c0,0.1,0.1,0.1,0.2,0.1h0.1c0.1,0,0.2-0.1,0.2-0.2v0
				C34.9,14.7,34.8,14.7,34.7,14.7z M33.7,11.4c-0.2,0-0.3,0.1-0.3,0.2v0c0.1,0.1,0.2,0.1,0.2,0.1c0.2,0,0.3-0.1,0.3-0.2
				C33.9,11.4,33.8,11.4,33.7,11.4z M34.7,14.7c-0.1,0-0.2,0.1-0.2,0.2c0,0.1,0.1,0.1,0.2,0.1h0.1c0.1,0,0.2-0.1,0.2-0.2v0
				C34.9,14.7,34.8,14.7,34.7,14.7z M31.3,11.4L31.3,11.4c-0.2,0.1-0.3,0.1-0.3,0.2c0,0.1,0.1,0.2,0.3,0.2c0.1,0,0.2-0.1,0.3-0.2
				v-0.1C31.5,11.5,31.4,11.5,31.3,11.4z M30.3,14.6c-0.1,0-0.1,0-0.2,0.1v0.2c0,0.1,0.1,0.1,0.2,0.1h0c0.2-0.1,0.2-0.1,0.2-0.2
				C30.5,14.6,30.4,14.6,30.3,14.6z M30.3,14.6c-0.1,0-0.1,0-0.2,0.1v0.2c0,0.1,0.1,0.1,0.2,0.1h0c0.2-0.1,0.2-0.1,0.2-0.2
				C30.5,14.6,30.4,14.6,30.3,14.6z M31.3,11.4L31.3,11.4c-0.2,0.1-0.3,0.1-0.3,0.2c0,0.1,0.1,0.2,0.3,0.2c0.1,0,0.2-0.1,0.3-0.2
				v-0.1C31.5,11.5,31.4,11.5,31.3,11.4z M33.7,11.4c-0.2,0-0.3,0.1-0.3,0.2v0c0.1,0.1,0.2,0.1,0.2,0.1c0.2,0,0.3-0.1,0.3-0.2
				C33.9,11.4,33.8,11.4,33.7,11.4z M34.7,14.7c-0.1,0-0.2,0.1-0.2,0.2c0,0.1,0.1,0.1,0.2,0.1h0.1c0.1,0,0.2-0.1,0.2-0.2v0
				C34.9,14.7,34.8,14.7,34.7,14.7z M33.7,11.4c-0.2,0-0.3,0.1-0.3,0.2v0c0.1,0.1,0.2,0.1,0.2,0.1c0.2,0,0.3-0.1,0.3-0.2
				C33.9,11.4,33.8,11.4,33.7,11.4z M34.7,14.7c-0.1,0-0.2,0.1-0.2,0.2c0,0.1,0.1,0.1,0.2,0.1h0.1c0.1,0,0.2-0.1,0.2-0.2v0
				C34.9,14.7,34.8,14.7,34.7,14.7z M31.3,11.4L31.3,11.4c-0.2,0.1-0.3,0.1-0.3,0.2c0,0.1,0.1,0.2,0.3,0.2c0.1,0,0.2-0.1,0.3-0.2
				v-0.1C31.5,11.5,31.4,11.5,31.3,11.4z M30.3,14.6c-0.1,0-0.1,0-0.2,0.1v0.2c0,0.1,0.1,0.1,0.2,0.1h0c0.2-0.1,0.2-0.1,0.2-0.2
				C30.5,14.6,30.4,14.6,30.3,14.6z M30.3,14.6c-0.1,0-0.1,0-0.2,0.1v0.2c0,0.1,0.1,0.1,0.2,0.1h0c0.2-0.1,0.2-0.1,0.2-0.2
				C30.5,14.6,30.4,14.6,30.3,14.6z M31.3,11.4L31.3,11.4c-0.2,0.1-0.3,0.1-0.3,0.2c0,0.1,0.1,0.2,0.3,0.2c0.1,0,0.2-0.1,0.3-0.2
				v-0.1C31.5,11.5,31.4,11.5,31.3,11.4z M33.7,11.4c-0.2,0-0.3,0.1-0.3,0.2v0c0.1,0.1,0.2,0.1,0.2,0.1c0.2,0,0.3-0.1,0.3-0.2
				C33.9,11.4,33.8,11.4,33.7,11.4z M34.7,14.7c-0.1,0-0.2,0.1-0.2,0.2c0,0.1,0.1,0.1,0.2,0.1h0.1c0.1,0,0.2-0.1,0.2-0.2v0
				C34.9,14.7,34.8,14.7,34.7,14.7z M33.7,11.4c-0.2,0-0.3,0.1-0.3,0.2v0c0.1,0.1,0.2,0.1,0.2,0.1c0.2,0,0.3-0.1,0.3-0.2
				C33.9,11.4,33.8,11.4,33.7,11.4z M34.7,14.7c-0.1,0-0.2,0.1-0.2,0.2c0,0.1,0.1,0.1,0.2,0.1h0.1c0.1,0,0.2-0.1,0.2-0.2v0
				C34.9,14.7,34.8,14.7,34.7,14.7z M31.3,11.4L31.3,11.4c-0.2,0.1-0.3,0.1-0.3,0.2c0,0.1,0.1,0.2,0.3,0.2c0.1,0,0.2-0.1,0.3-0.2
				v-0.1C31.5,11.5,31.4,11.5,31.3,11.4z M30.3,14.6c-0.1,0-0.1,0-0.2,0.1v0.2c0,0.1,0.1,0.1,0.2,0.1h0c0.2-0.1,0.2-0.1,0.2-0.2
				C30.5,14.6,30.4,14.6,30.3,14.6z M30.3,14.6c-0.1,0-0.1,0-0.2,0.1v0.2c0,0.1,0.1,0.1,0.2,0.1h0c0.2-0.1,0.2-0.1,0.2-0.2
				C30.5,14.6,30.4,14.6,30.3,14.6z M31.3,11.4L31.3,11.4c-0.2,0.1-0.3,0.1-0.3,0.2c0,0.1,0.1,0.2,0.3,0.2c0.1,0,0.2-0.1,0.3-0.2
				v-0.1C31.5,11.5,31.4,11.5,31.3,11.4z M33.7,11.4c-0.2,0-0.3,0.1-0.3,0.2v0c0.1,0.1,0.2,0.1,0.2,0.1c0.2,0,0.3-0.1,0.3-0.2
				C33.9,11.4,33.8,11.4,33.7,11.4z M34.7,14.7c-0.1,0-0.2,0.1-0.2,0.2c0,0.1,0.1,0.1,0.2,0.1h0.1c0.1,0,0.2-0.1,0.2-0.2v0
				C34.9,14.7,34.8,14.7,34.7,14.7z M33.7,11.4c-0.2,0-0.3,0.1-0.3,0.2v0c0.1,0.1,0.2,0.1,0.2,0.1c0.2,0,0.3-0.1,0.3-0.2
				C33.9,11.4,33.8,11.4,33.7,11.4z M34.7,14.7c-0.1,0-0.2,0.1-0.2,0.2c0,0.1,0.1,0.1,0.2,0.1h0.1c0.1,0,0.2-0.1,0.2-0.2v0
				C34.9,14.7,34.8,14.7,34.7,14.7z M31.3,11.4L31.3,11.4c-0.2,0.1-0.3,0.1-0.3,0.2c0,0.1,0.1,0.2,0.3,0.2c0.1,0,0.2-0.1,0.3-0.2
				v-0.1C31.5,11.5,31.4,11.5,31.3,11.4z M30.3,14.6c-0.1,0-0.1,0-0.2,0.1v0.2c0,0.1,0.1,0.1,0.2,0.1h0c0.2-0.1,0.2-0.1,0.2-0.2
				C30.5,14.6,30.4,14.6,30.3,14.6z M35.5,11.9c0-0.4,0.1-1.1,0.1-2.1l0-0.2l0,0l0-0.1l0-0.1c0-0.2-0.1-0.3-0.2-0.3h-0.1l-0.1,0
				l-1.4,1.3c-0.3,0.3-0.6,0.6-1.1,1c-0.1,0.2-0.2,0.2-0.2,0.2h0L32,11.2l-0.9-1.2c-0.3-0.4-0.6-0.7-1-1.1c-0.2-0.1-0.3-0.2-0.4-0.2
				h-0.1l-0.2,0.1c0,0,0,0.1,0,0.1l0,0.2l0,0.1l0,1.1c0,0.1,0,0.1,0,0.2c0,0.4,0,0.7,0,0.8l0,0.1c0,0,0,0,0,0c0,0.1,0,0.2,0,0.2v0.5
				l0,0.1c0,0,0,0,0,0.1v0c0,0,0,0,0,0.1l0,0c0,0.1,0,0.2,0,0.2c0,0,0,0,0,0.1c0,0,0,0,0,0.1v0.1c0,0.1,0,0.1,0,0.2c0,0,0,0.1,0,0.2
				v0.2l0,0h0c0,0,0,0.2,0,0.3c0,0,0,0,0,0.1l0,0.1v0.3c0,0.1,0,0.2,0,0.3c0,0,0,0,0,0.1c0,0.1,0,0.2,0,0.2c0,0,0,0.1,0,0.3l0.2,0.1
				l0.1,0h0.5l0.1,0c0,0,0,0,0,0l0.2,0c0,0,0.1,0,0.1,0c0,0,0,0,0.1,0h0c0.1,0,0.1-0.1,0.2-0.3c0-0.1,0-0.2,0-0.3v-0.4l0-0.1
				c0,0,0,0,0,0v0c0-0.1,0-0.3,0-0.5l0-0.1c0,0,0-0.1,0-0.1v-0.1l0,0h0c0,0,0-0.1,0-0.1c0,0,0-0.1,0-0.1c0-0.1,0-0.3,0-0.6l0,0h0
				c0.8,0.8,1.2,1.1,1.2,1.1h0c0.1-0.1,0.2-0.1,0.3-0.1c0,0,0.1-0.1,0.3-0.3c0.3-0.3,0.6-0.6,0.8-0.9h0v0.1c0,0.1,0,0.2,0,0.3
				c0,0.1,0,0.2,0,0.3v0.5l0,0.1c0,0,0,0,0,0.1v0c0,0.1,0,0.2,0,0.3l0,0.1c0,0,0,0.1,0,0.1v0l0,0.2c0,0,0,0,0,0c0,0,0,0,0,0v0.1
				c0,0,0,0,0,0.1l0,0.1c0,0,0,0.2,0,0.4c0,0.1,0,0.1,0.1,0.2h0.2c0.1,0,0.2,0,0.3,0c0.2,0,0.3,0,0.5,0c0.2,0,0.4-0.1,0.4-0.2v-0.3
				c0,0,0-0.1,0-0.1c0,0,0,0,0-0.1v-0.5c0,0,0-0.1,0-0.2c0,0,0-0.1,0-0.1v-0.2c0,0,0,0,0-0.1l0,0c0-0.4,0-0.7,0-0.9v-0.2l0-0.2
				c0,0,0,0,0,0c0-0.1,0-0.1,0-0.1v-0.1l0-0.1c0,0,0,0,0-0.1v0L35.5,11.9L35.5,11.9C35.5,11.9,35.5,11.9,35.5,11.9z M29.9,9.8V9.6
				c0,0,0-0.1,0-0.2c0,0,0-0.1,0-0.1V9.3c0.1,0.1,0.3,0.3,0.6,0.6v0L30.4,10c-0.2,0.1-0.3,0.2-0.3,0.4c0.1,0.2,0.2,0.4,0.3,0.4h0.1
				c0.1,0,0.1,0,0.1-0.1v0c-0.1-0.1-0.2-0.2-0.2-0.2v-0.1c0-0.1,0.1-0.2,0.2-0.3h0l0.4,0.5v0.1c-0.1,0-0.1,0.1-0.1,0.2
				c-0.1,0.2-0.3,0.4-0.5,0.4c-0.2-0.1-0.4-0.1-0.4-0.2c-0.1,0-0.2-0.2-0.3-0.7C29.9,10.2,29.9,10,29.9,9.8z M29.9,12.4
				c0-0.1,0-0.1,0-0.2c0,0,0,0,0.1,0c0.3,0,0.6,0,0.8,0.1c0.1,0,0.1,0,0.1,0.1v0.4c0,0,0,0-0.1,0c-0.3,0-0.6,0-0.8,0c0,0,0,0,0,0
				c0,0,0,0,0-0.1C29.9,12.6,29.9,12.5,29.9,12.4z M29.9,13c0.4,0,0.7,0,0.8,0v0h0c-0.1,0.2-0.2,0.2-0.2,0.3c-0.1,0-0.3-0.1-0.5-0.2
				L29.9,13L29.9,13z M30.2,13.5L30.2,13.5c-0.2,0.2-0.2,0.2-0.3,0.2h0c0-0.1,0-0.2,0-0.3v-0.1l0,0C30,13.3,30.1,13.4,30.2,13.5z
				 M30.8,15c0,0.1,0,0.1-0.1,0.1H30c-0.1,0-0.1,0-0.1-0.1c0-0.1,0-0.2,0-0.3v-0.2c0,0,0.1,0,0.2-0.1c0.1,0,0.3,0,0.4,0h0.1l0.1,0
				c0.1,0,0.1,0.1,0.1,0.1V15z M30.2,14.2c-0.2,0-0.3,0-0.3-0.1V14c0,0,0,0,0-0.1c0.2-0.1,0.4-0.2,0.5-0.3c0,0,0.1,0.1,0.2,0.2
				c0.1,0,0.1,0.1,0.1,0.3C30.8,14.2,30.6,14.2,30.2,14.2z M30.8,13.6L30.8,13.6c-0.1-0.1-0.2-0.1-0.2-0.1v0
				c0.1-0.1,0.2-0.2,0.2-0.2h0V13.6z M30.8,13.1L30.8,13.1L30.8,13.1C30.8,13,30.8,13,30.8,13.1L30.8,13.1z M31.5,12.4
				c-0.1-0.1-0.3-0.2-0.5-0.4c0,0-0.1,0-0.3,0.1c0,0-0.3,0-0.9-0.1l0-0.1v-0.1c0-0.1,0-0.3,0-0.5c0,0,0,0,0-0.1h0
				c0.2,0.1,0.3,0.2,0.4,0.2c0.2,0,0.3,0,0.5-0.1c0.3-0.2,0.4-0.3,0.4-0.4h0l0,0c0.2,0.2,0.4,0.5,0.5,0.6c-0.1,0.2-0.1,0.3-0.1,0.3
				C31.6,12.2,31.6,12.4,31.5,12.4z M32.3,13.1C32.3,13.1,32.3,13.1,32.3,13.1L32,12.8c-0.2-0.1-0.2-0.2-0.2-0.2
				c0,0,0.1-0.3,0.3-0.8h0c0.1,0.1,0.2,0.2,0.2,0.3V13.1z M32.6,13.3L32.6,13.3l0-0.9c0-0.1,0-0.2,0-0.3c0.1-0.1,0.2-0.1,0.2-0.2h0
				c0.1,0.1,0.2,0.3,0.4,0.8C32.8,13.1,32.6,13.3,32.6,13.3z M34.2,13.1V13h0.2l0.2,0c0,0,0,0,0,0l0.3,0c-0.1,0.1-0.2,0.2-0.2,0.2h0
				l-0.2-0.1C34.3,13.1,34.2,13.1,34.2,13.1z M34.5,13.5c-0.1,0.1-0.1,0.1-0.2,0.2h0v-0.4C34.4,13.4,34.5,13.4,34.5,13.5z
				 M35.1,15.1L35.1,15.1l-0.4,0c-0.3,0-0.4,0-0.5,0l0,0c0,0,0-0.1,0-0.1l0-0.1c0,0,0,0,0-0.1l0-0.1c0-0.1,0-0.1,0-0.2
				c0.3,0,0.5,0,0.8,0h0v0.3L35.1,15.1C35.1,15,35.1,15,35.1,15.1L35.1,15.1z M35.1,14.2C35.1,14.2,35.1,14.3,35.1,14.2L35,14.3
				h-0.4l-0.1,0h-0.3c0,0,0-0.1,0-0.2l0-0.1c0.1,0,0.2-0.1,0.4-0.3h0.1c0.1,0.1,0.2,0.2,0.3,0.2C35.1,14,35.1,14.1,35.1,14.2
				L35.1,14.2z M35.1,13.6L35.1,13.6c0,0-0.1,0-0.1-0.1v0c0-0.1,0.1-0.1,0.2-0.2h0C35.1,13.3,35.1,13.4,35.1,13.6z M35.1,12.5
				c0,0.1,0,0.1,0,0.2c0,0,0,0,0,0.1l0,0.1c-0.1,0-0.4,0-0.7,0c-0.1,0-0.1,0-0.2,0l0-0.1v0c0-0.1,0-0.3,0-0.5l0,0c0,0,0.2,0,0.5,0
				c0.1,0,0.2,0.1,0.3,0.1V12.5z M35.1,11.4L35.1,11.4C35.1,11.5,35.1,11.5,35.1,11.4l0,0.2V12l0,0L34.8,12l-0.5,0
				c0-0.1-0.1-0.1-0.2-0.2l-0.2,0l-0.5,0.6h-0.1c0,0,0-0.1-0.1-0.2c-0.1-0.3-0.3-0.5-0.3-0.5c0-0.1,0.1-0.2,0.3-0.3
				c0.3-0.3,0.4-0.4,0.5-0.4c0,0,0,0,0,0c0.2,0.3,0.4,0.5,0.8,0.5h0.2c0.1,0,0.3-0.1,0.4-0.2V11.4z M35.2,10.2l0,0.2c0,0,0,0,0,0
				l0,0.1v0.2c0,0,0,0-0.1,0.1c-0.1,0.3-0.2,0.4-0.4,0.4l-0.2,0C34.2,11.1,34,11,34,10.8l0-0.1c0,0,0,0-0.1-0.1v0
				c0.1-0.1,0.1-0.2,0.2-0.2c0.1-0.2,0.3-0.2,0.4-0.2c0.1,0.1,0.1,0.1,0.1,0.2c0,0,0,0.1-0.1,0.2c-0.2,0.1-0.3,0.1-0.3,0.1v0
				c0,0,0.1,0,0.2,0.1c0.2,0,0.2,0,0.2-0.1c0.1,0,0.2-0.1,0.3-0.3v-0.1c0-0.2-0.1-0.3-0.4-0.3c0.2-0.2,0.4-0.4,0.5-0.5l0,0.2V10.2z
				 M34.7,14.7c-0.1,0-0.2,0.1-0.2,0.2c0,0.1,0.1,0.1,0.2,0.1h0.1c0.1,0,0.2-0.1,0.2-0.2v0C34.9,14.7,34.8,14.7,34.7,14.7z
				 M33.7,11.4c-0.2,0-0.3,0.1-0.3,0.2v0c0.1,0.1,0.2,0.1,0.2,0.1c0.2,0,0.3-0.1,0.3-0.2C33.9,11.4,33.8,11.4,33.7,11.4z M31.3,11.4
				L31.3,11.4c-0.2,0.1-0.3,0.1-0.3,0.2c0,0.1,0.1,0.2,0.3,0.2c0.1,0,0.2-0.1,0.3-0.2v-0.1C31.5,11.5,31.4,11.5,31.3,11.4z
				 M30.3,14.6c-0.1,0-0.1,0-0.2,0.1v0.2c0,0.1,0.1,0.1,0.2,0.1h0c0.2-0.1,0.2-0.1,0.2-0.2C30.5,14.6,30.4,14.6,30.3,14.6z
				 M30.3,14.6c-0.1,0-0.1,0-0.2,0.1v0.2c0,0.1,0.1,0.1,0.2,0.1h0c0.2-0.1,0.2-0.1,0.2-0.2C30.5,14.6,30.4,14.6,30.3,14.6z
				 M31.3,11.4L31.3,11.4c-0.2,0.1-0.3,0.1-0.3,0.2c0,0.1,0.1,0.2,0.3,0.2c0.1,0,0.2-0.1,0.3-0.2v-0.1
				C31.5,11.5,31.4,11.5,31.3,11.4z M34.7,14.7c-0.1,0-0.2,0.1-0.2,0.2c0,0.1,0.1,0.1,0.2,0.1h0.1c0.1,0,0.2-0.1,0.2-0.2v0
				C34.9,14.7,34.8,14.7,34.7,14.7z M33.7,11.4c-0.2,0-0.3,0.1-0.3,0.2v0c0.1,0.1,0.2,0.1,0.2,0.1c0.2,0,0.3-0.1,0.3-0.2
				C33.9,11.4,33.8,11.4,33.7,11.4z M34.7,14.7c-0.1,0-0.2,0.1-0.2,0.2c0,0.1,0.1,0.1,0.2,0.1h0.1c0.1,0,0.2-0.1,0.2-0.2v0
				C34.9,14.7,34.8,14.7,34.7,14.7z M33.7,11.4c-0.2,0-0.3,0.1-0.3,0.2v0c0.1,0.1,0.2,0.1,0.2,0.1c0.2,0,0.3-0.1,0.3-0.2
				C33.9,11.4,33.8,11.4,33.7,11.4z M31.3,11.4L31.3,11.4c-0.2,0.1-0.3,0.1-0.3,0.2c0,0.1,0.1,0.2,0.3,0.2c0.1,0,0.2-0.1,0.3-0.2
				v-0.1C31.5,11.5,31.4,11.5,31.3,11.4z M30.3,14.6c-0.1,0-0.1,0-0.2,0.1v0.2c0,0.1,0.1,0.1,0.2,0.1h0c0.2-0.1,0.2-0.1,0.2-0.2
				C30.5,14.6,30.4,14.6,30.3,14.6z M30.3,14.6c-0.1,0-0.1,0-0.2,0.1v0.2c0,0.1,0.1,0.1,0.2,0.1h0c0.2-0.1,0.2-0.1,0.2-0.2
				C30.5,14.6,30.4,14.6,30.3,14.6z M31.3,11.4L31.3,11.4c-0.2,0.1-0.3,0.1-0.3,0.2c0,0.1,0.1,0.2,0.3,0.2c0.1,0,0.2-0.1,0.3-0.2
				v-0.1C31.5,11.5,31.4,11.5,31.3,11.4z M34.7,14.7c-0.1,0-0.2,0.1-0.2,0.2c0,0.1,0.1,0.1,0.2,0.1h0.1c0.1,0,0.2-0.1,0.2-0.2v0
				C34.9,14.7,34.8,14.7,34.7,14.7z M33.7,11.4c-0.2,0-0.3,0.1-0.3,0.2v0c0.1,0.1,0.2,0.1,0.2,0.1c0.2,0,0.3-0.1,0.3-0.2
				C33.9,11.4,33.8,11.4,33.7,11.4z M34.7,14.7c-0.1,0-0.2,0.1-0.2,0.2c0,0.1,0.1,0.1,0.2,0.1h0.1c0.1,0,0.2-0.1,0.2-0.2v0
				C34.9,14.7,34.8,14.7,34.7,14.7z M33.7,11.4c-0.2,0-0.3,0.1-0.3,0.2v0c0.1,0.1,0.2,0.1,0.2,0.1c0.2,0,0.3-0.1,0.3-0.2
				C33.9,11.4,33.8,11.4,33.7,11.4z M31.3,11.4L31.3,11.4c-0.2,0.1-0.3,0.1-0.3,0.2c0,0.1,0.1,0.2,0.3,0.2c0.1,0,0.2-0.1,0.3-0.2
				v-0.1C31.5,11.5,31.4,11.5,31.3,11.4z M30.3,14.6c-0.1,0-0.1,0-0.2,0.1v0.2c0,0.1,0.1,0.1,0.2,0.1h0c0.2-0.1,0.2-0.1,0.2-0.2
				C30.5,14.6,30.4,14.6,30.3,14.6z M30.3,14.6c-0.1,0-0.1,0-0.2,0.1v0.2c0,0.1,0.1,0.1,0.2,0.1h0c0.2-0.1,0.2-0.1,0.2-0.2
				C30.5,14.6,30.4,14.6,30.3,14.6z M31.3,11.4L31.3,11.4c-0.2,0.1-0.3,0.1-0.3,0.2c0,0.1,0.1,0.2,0.3,0.2c0.1,0,0.2-0.1,0.3-0.2
				v-0.1C31.5,11.5,31.4,11.5,31.3,11.4z M34.7,14.7c-0.1,0-0.2,0.1-0.2,0.2c0,0.1,0.1,0.1,0.2,0.1h0.1c0.1,0,0.2-0.1,0.2-0.2v0
				C34.9,14.7,34.8,14.7,34.7,14.7z M33.7,11.4c-0.2,0-0.3,0.1-0.3,0.2v0c0.1,0.1,0.2,0.1,0.2,0.1c0.2,0,0.3-0.1,0.3-0.2
				C33.9,11.4,33.8,11.4,33.7,11.4z M34.7,14.7c-0.1,0-0.2,0.1-0.2,0.2c0,0.1,0.1,0.1,0.2,0.1h0.1c0.1,0,0.2-0.1,0.2-0.2v0
				C34.9,14.7,34.8,14.7,34.7,14.7z M33.7,11.4c-0.2,0-0.3,0.1-0.3,0.2v0c0.1,0.1,0.2,0.1,0.2,0.1c0.2,0,0.3-0.1,0.3-0.2
				C33.9,11.4,33.8,11.4,33.7,11.4z M31.3,11.4L31.3,11.4c-0.2,0.1-0.3,0.1-0.3,0.2c0,0.1,0.1,0.2,0.3,0.2c0.1,0,0.2-0.1,0.3-0.2
				v-0.1C31.5,11.5,31.4,11.5,31.3,11.4z M30.3,14.6c-0.1,0-0.1,0-0.2,0.1v0.2c0,0.1,0.1,0.1,0.2,0.1h0c0.2-0.1,0.2-0.1,0.2-0.2
				C30.5,14.6,30.4,14.6,30.3,14.6z M30.3,14.6c-0.1,0-0.1,0-0.2,0.1v0.2c0,0.1,0.1,0.1,0.2,0.1h0c0.2-0.1,0.2-0.1,0.2-0.2
				C30.5,14.6,30.4,14.6,30.3,14.6z M31.3,11.4L31.3,11.4c-0.2,0.1-0.3,0.1-0.3,0.2c0,0.1,0.1,0.2,0.3,0.2c0.1,0,0.2-0.1,0.3-0.2
				v-0.1C31.5,11.5,31.4,11.5,31.3,11.4z M34.7,14.7c-0.1,0-0.2,0.1-0.2,0.2c0,0.1,0.1,0.1,0.2,0.1h0.1c0.1,0,0.2-0.1,0.2-0.2v0
				C34.9,14.7,34.8,14.7,34.7,14.7z M33.7,11.4c-0.2,0-0.3,0.1-0.3,0.2v0c0.1,0.1,0.2,0.1,0.2,0.1c0.2,0,0.3-0.1,0.3-0.2
				C33.9,11.4,33.8,11.4,33.7,11.4z M34.7,14.7c-0.1,0-0.2,0.1-0.2,0.2c0,0.1,0.1,0.1,0.2,0.1h0.1c0.1,0,0.2-0.1,0.2-0.2v0
				C34.9,14.7,34.8,14.7,34.7,14.7z M33.7,11.4c-0.2,0-0.3,0.1-0.3,0.2v0c0.1,0.1,0.2,0.1,0.2,0.1c0.2,0,0.3-0.1,0.3-0.2
				C33.9,11.4,33.8,11.4,33.7,11.4z M31.3,11.4L31.3,11.4c-0.2,0.1-0.3,0.1-0.3,0.2c0,0.1,0.1,0.2,0.3,0.2c0.1,0,0.2-0.1,0.3-0.2
				v-0.1C31.5,11.5,31.4,11.5,31.3,11.4z M30.3,14.6c-0.1,0-0.1,0-0.2,0.1v0.2c0,0.1,0.1,0.1,0.2,0.1h0c0.2-0.1,0.2-0.1,0.2-0.2
				C30.5,14.6,30.4,14.6,30.3,14.6z M30.3,14.6c-0.1,0-0.1,0-0.2,0.1v0.2c0,0.1,0.1,0.1,0.2,0.1h0c0.2-0.1,0.2-0.1,0.2-0.2
				C30.5,14.6,30.4,14.6,30.3,14.6z M31.3,11.4L31.3,11.4c-0.2,0.1-0.3,0.1-0.3,0.2c0,0.1,0.1,0.2,0.3,0.2c0.1,0,0.2-0.1,0.3-0.2
				v-0.1C31.5,11.5,31.4,11.5,31.3,11.4z M34.7,14.7c-0.1,0-0.2,0.1-0.2,0.2c0,0.1,0.1,0.1,0.2,0.1h0.1c0.1,0,0.2-0.1,0.2-0.2v0
				C34.9,14.7,34.8,14.7,34.7,14.7z M33.7,11.4c-0.2,0-0.3,0.1-0.3,0.2v0c0.1,0.1,0.2,0.1,0.2,0.1c0.2,0,0.3-0.1,0.3-0.2
				C33.9,11.4,33.8,11.4,33.7,11.4z M34.7,14.7c-0.1,0-0.2,0.1-0.2,0.2c0,0.1,0.1,0.1,0.2,0.1h0.1c0.1,0,0.2-0.1,0.2-0.2v0
				C34.9,14.7,34.8,14.7,34.7,14.7z M33.7,11.4c-0.2,0-0.3,0.1-0.3,0.2v0c0.1,0.1,0.2,0.1,0.2,0.1c0.2,0,0.3-0.1,0.3-0.2
				C33.9,11.4,33.8,11.4,33.7,11.4z M31.3,11.4L31.3,11.4c-0.2,0.1-0.3,0.1-0.3,0.2c0,0.1,0.1,0.2,0.3,0.2c0.1,0,0.2-0.1,0.3-0.2
				v-0.1C31.5,11.5,31.4,11.5,31.3,11.4z M30.3,14.6c-0.1,0-0.1,0-0.2,0.1v0.2c0,0.1,0.1,0.1,0.2,0.1h0c0.2-0.1,0.2-0.1,0.2-0.2
				C30.5,14.6,30.4,14.6,30.3,14.6z M30.3,14.6c-0.1,0-0.1,0-0.2,0.1v0.2c0,0.1,0.1,0.1,0.2,0.1h0c0.2-0.1,0.2-0.1,0.2-0.2
				C30.5,14.6,30.4,14.6,30.3,14.6z M31.3,11.4L31.3,11.4c-0.2,0.1-0.3,0.1-0.3,0.2c0,0.1,0.1,0.2,0.3,0.2c0.1,0,0.2-0.1,0.3-0.2
				v-0.1C31.5,11.5,31.4,11.5,31.3,11.4z M34.7,14.7c-0.1,0-0.2,0.1-0.2,0.2c0,0.1,0.1,0.1,0.2,0.1h0.1c0.1,0,0.2-0.1,0.2-0.2v0
				C34.9,14.7,34.8,14.7,34.7,14.7z M33.7,11.4c-0.2,0-0.3,0.1-0.3,0.2v0c0.1,0.1,0.2,0.1,0.2,0.1c0.2,0,0.3-0.1,0.3-0.2
				C33.9,11.4,33.8,11.4,33.7,11.4z M34.7,14.7c-0.1,0-0.2,0.1-0.2,0.2c0,0.1,0.1,0.1,0.2,0.1h0.1c0.1,0,0.2-0.1,0.2-0.2v0
				C34.9,14.7,34.8,14.7,34.7,14.7z M33.7,11.4c-0.2,0-0.3,0.1-0.3,0.2v0c0.1,0.1,0.2,0.1,0.2,0.1c0.2,0,0.3-0.1,0.3-0.2
				C33.9,11.4,33.8,11.4,33.7,11.4z M31.3,11.4L31.3,11.4c-0.2,0.1-0.3,0.1-0.3,0.2c0,0.1,0.1,0.2,0.3,0.2c0.1,0,0.2-0.1,0.3-0.2
				v-0.1C31.5,11.5,31.4,11.5,31.3,11.4z M30.3,14.6c-0.1,0-0.1,0-0.2,0.1v0.2c0,0.1,0.1,0.1,0.2,0.1h0c0.2-0.1,0.2-0.1,0.2-0.2
				C30.5,14.6,30.4,14.6,30.3,14.6z M30.3,14.6c-0.1,0-0.1,0-0.2,0.1v0.2c0,0.1,0.1,0.1,0.2,0.1h0c0.2-0.1,0.2-0.1,0.2-0.2
				C30.5,14.6,30.4,14.6,30.3,14.6z M31.3,11.4L31.3,11.4c-0.2,0.1-0.3,0.1-0.3,0.2c0,0.1,0.1,0.2,0.3,0.2c0.1,0,0.2-0.1,0.3-0.2
				v-0.1C31.5,11.5,31.4,11.5,31.3,11.4z M34.7,14.7c-0.1,0-0.2,0.1-0.2,0.2c0,0.1,0.1,0.1,0.2,0.1h0.1c0.1,0,0.2-0.1,0.2-0.2v0
				C34.9,14.7,34.8,14.7,34.7,14.7z M33.7,11.4c-0.2,0-0.3,0.1-0.3,0.2v0c0.1,0.1,0.2,0.1,0.2,0.1c0.2,0,0.3-0.1,0.3-0.2
				C33.9,11.4,33.8,11.4,33.7,11.4z M34.7,14.7c-0.1,0-0.2,0.1-0.2,0.2c0,0.1,0.1,0.1,0.2,0.1h0.1c0.1,0,0.2-0.1,0.2-0.2v0
				C34.9,14.7,34.8,14.7,34.7,14.7z M33.7,11.4c-0.2,0-0.3,0.1-0.3,0.2v0c0.1,0.1,0.2,0.1,0.2,0.1c0.2,0,0.3-0.1,0.3-0.2
				C33.9,11.4,33.8,11.4,33.7,11.4z M31.3,11.4L31.3,11.4c-0.2,0.1-0.3,0.1-0.3,0.2c0,0.1,0.1,0.2,0.3,0.2c0.1,0,0.2-0.1,0.3-0.2
				v-0.1C31.5,11.5,31.4,11.5,31.3,11.4z M30.3,14.6c-0.1,0-0.1,0-0.2,0.1v0.2c0,0.1,0.1,0.1,0.2,0.1h0c0.2-0.1,0.2-0.1,0.2-0.2
				C30.5,14.6,30.4,14.6,30.3,14.6z M30.3,14.6c-0.1,0-0.1,0-0.2,0.1v0.2c0,0.1,0.1,0.1,0.2,0.1h0c0.2-0.1,0.2-0.1,0.2-0.2
				C30.5,14.6,30.4,14.6,30.3,14.6z M31.3,11.4L31.3,11.4c-0.2,0.1-0.3,0.1-0.3,0.2c0,0.1,0.1,0.2,0.3,0.2c0.1,0,0.2-0.1,0.3-0.2
				v-0.1C31.5,11.5,31.4,11.5,31.3,11.4z M34.7,14.7c-0.1,0-0.2,0.1-0.2,0.2c0,0.1,0.1,0.1,0.2,0.1h0.1c0.1,0,0.2-0.1,0.2-0.2v0
				C34.9,14.7,34.8,14.7,34.7,14.7z M33.7,11.4c-0.2,0-0.3,0.1-0.3,0.2v0c0.1,0.1,0.2,0.1,0.2,0.1c0.2,0,0.3-0.1,0.3-0.2
				C33.9,11.4,33.8,11.4,33.7,11.4z M34.7,14.7c-0.1,0-0.2,0.1-0.2,0.2c0,0.1,0.1,0.1,0.2,0.1h0.1c0.1,0,0.2-0.1,0.2-0.2v0
				C34.9,14.7,34.8,14.7,34.7,14.7z M33.7,11.4c-0.2,0-0.3,0.1-0.3,0.2v0c0.1,0.1,0.2,0.1,0.2,0.1c0.2,0,0.3-0.1,0.3-0.2
				C33.9,11.4,33.8,11.4,33.7,11.4z M31.3,11.4L31.3,11.4c-0.2,0.1-0.3,0.1-0.3,0.2c0,0.1,0.1,0.2,0.3,0.2c0.1,0,0.2-0.1,0.3-0.2
				v-0.1C31.5,11.5,31.4,11.5,31.3,11.4z M30.3,14.6c-0.1,0-0.1,0-0.2,0.1v0.2c0,0.1,0.1,0.1,0.2,0.1h0c0.2-0.1,0.2-0.1,0.2-0.2
				C30.5,14.6,30.4,14.6,30.3,14.6z M31.3,11.4L31.3,11.4c-0.2,0.1-0.3,0.1-0.3,0.2c0,0.1,0.1,0.2,0.3,0.2c0.1,0,0.2-0.1,0.3-0.2
				v-0.1C31.5,11.5,31.4,11.5,31.3,11.4z M30.3,14.6c-0.1,0-0.1,0-0.2,0.1v0.2c0,0.1,0.1,0.1,0.2,0.1h0c0.2-0.1,0.2-0.1,0.2-0.2
				C30.5,14.6,30.4,14.6,30.3,14.6z M30.3,14.6c-0.1,0-0.1,0-0.2,0.1v0.2c0,0.1,0.1,0.1,0.2,0.1h0c0.2-0.1,0.2-0.1,0.2-0.2
				C30.5,14.6,30.4,14.6,30.3,14.6z M31.3,11.4L31.3,11.4c-0.2,0.1-0.3,0.1-0.3,0.2c0,0.1,0.1,0.2,0.3,0.2c0.1,0,0.2-0.1,0.3-0.2
				v-0.1C31.5,11.5,31.4,11.5,31.3,11.4z M33.7,11.4c-0.2,0-0.3,0.1-0.3,0.2v0c0.1,0.1,0.2,0.1,0.2,0.1c0.2,0,0.3-0.1,0.3-0.2
				C33.9,11.4,33.8,11.4,33.7,11.4z M33.7,11.4c-0.2,0-0.3,0.1-0.3,0.2v0c0.1,0.1,0.2,0.1,0.2,0.1c0.2,0,0.3-0.1,0.3-0.2
				C33.9,11.4,33.8,11.4,33.7,11.4z M34.7,14.7c-0.1,0-0.2,0.1-0.2,0.2c0,0.1,0.1,0.1,0.2,0.1h0.1c0.1,0,0.2-0.1,0.2-0.2v0
				C34.9,14.7,34.8,14.7,34.7,14.7z M34.7,14.7c-0.1,0-0.2,0.1-0.2,0.2c0,0.1,0.1,0.1,0.2,0.1h0.1c0.1,0,0.2-0.1,0.2-0.2v0
				C34.9,14.7,34.8,14.7,34.7,14.7z"/>
			<path id="XMLID_503_" class="st0" d="M35,13c-0.1,0.1-0.2,0.2-0.2,0.2h0l-0.2-0.1c-0.2,0-0.2,0-0.2-0.1V13h0.2l0.2,0c0,0,0,0,0,0
				L35,13z"/>
			<path id="XMLID_474_" class="st0" d="M35.1,13.3c0,0.1,0,0.2,0,0.3h0c0,0-0.1,0-0.1-0.1v0C34.9,13.4,35,13.3,35.1,13.3L35.1,13.3
				z"/>
			<path id="XMLID_483_" class="st0" d="M34.5,13.5c-0.1,0.1-0.1,0.1-0.2,0.2h0v-0.4C34.4,13.4,34.5,13.4,34.5,13.5z"/>
			<path id="XMLID_495_" class="st0" d="M35.1,15l0-0.2v-0.3h0c-0.2,0-0.5,0-0.8,0c0,0.1,0,0.1,0,0.2l0,0.1c0,0.1,0,0.1,0,0.1l0,0.1
				c0,0.1,0,0.1,0,0.1l0,0c0,0,0.2,0,0.5,0l0.3,0L35.1,15L35.1,15C35.1,15,35.1,15,35.1,15z M34.9,14.8c0,0.1-0.1,0.2-0.2,0.2h-0.1
				c-0.1,0-0.1,0-0.2-0.1c0-0.1,0.1-0.2,0.2-0.2C34.8,14.7,34.9,14.7,34.9,14.8L34.9,14.8z"/>
			<path id="XMLID_465_" class="st0" d="M35.1,14.1L35.1,14.1c0,0.1,0,0.1,0,0.2l-0.1,0h-0.4l-0.1,0h-0.3c0,0,0-0.1,0-0.2l0-0.1
				c0.1,0,0.2-0.1,0.4-0.3h0.1c0.1,0.1,0.2,0.2,0.3,0.2C35.1,14,35.1,14.1,35.1,14.1z"/>
			<path id="XMLID_436_" class="st0" d="M35.1,12.5c0,0.1,0,0.1,0,0.2c0,0,0,0,0,0.1l0,0.1c-0.1,0-0.4,0-0.7,0c-0.1,0-0.1,0-0.2,0
				l0-0.1v0c0-0.1,0-0.3,0-0.5l0,0c0,0,0.2,0,0.5,0c0.1,0,0.2,0.1,0.3,0.1V12.5z"/>
			<path id="XMLID_445_" class="st0" d="M35.2,10.2l0,0.2c0,0,0,0,0,0l0,0.1v0.2c0,0,0,0-0.1,0.1c-0.1,0.3-0.2,0.4-0.4,0.4l-0.2,0
				C34.2,11.1,34,11,34,10.8l0-0.1c0,0,0,0-0.1-0.1v0c0.1-0.1,0.1-0.2,0.2-0.2c0.1-0.2,0.3-0.2,0.4-0.2c0.1,0.1,0.1,0.1,0.1,0.2
				c0,0,0,0.1-0.1,0.2c-0.2,0.1-0.3,0.1-0.3,0.1v0c0,0,0.1,0,0.2,0.1c0.2,0,0.2,0,0.2-0.1c0.1,0,0.2-0.1,0.3-0.3v-0.1
				c0-0.2-0.1-0.3-0.4-0.3c0.2-0.2,0.4-0.4,0.5-0.5l0,0.2V10.2z"/>
			<path id="XMLID_457_" class="st0" d="M35.1,11.3c-0.2,0.1-0.3,0.2-0.4,0.2h-0.2c-0.4,0-0.7-0.2-0.8-0.5c0,0,0,0,0,0
				c0,0-0.2,0.1-0.5,0.4c-0.2,0.2-0.3,0.3-0.3,0.3c0.1,0,0.2,0.2,0.3,0.5c0.1,0.1,0.1,0.2,0.1,0.2h0.1l0.5-0.6l0.2,0
				c0.1,0,0.2,0.1,0.2,0.2l0.5,0l0.3,0.1l0,0v-0.4l0-0.1c0,0,0,0,0,0l0-0.1V11.3z M33.6,11.8c-0.1,0-0.2,0-0.2-0.1v0
				c0-0.1,0.1-0.2,0.3-0.2c0.1,0,0.2,0,0.3,0.1C33.9,11.7,33.8,11.7,33.6,11.8z"/>
			<path id="XMLID_427_" class="st0" d="M33.2,12.7c-0.3,0.4-0.5,0.6-0.6,0.6h0v-0.9c0-0.1,0-0.2,0-0.3c0.1-0.1,0.2-0.1,0.2-0.2h0
				C32.9,11.9,33,12.2,33.2,12.7z"/>
			<path id="XMLID_418_" class="st0" d="M32.3,12.1v0.9c0,0,0,0,0,0L32,12.8c-0.2-0.1-0.2-0.2-0.2-0.2c0,0,0.1-0.3,0.3-0.8h0
				C32.2,12,32.3,12,32.3,12.1z"/>
			<path id="XMLID_374_" class="st0" d="M30.2,13.5L30.2,13.5c-0.2,0.2-0.2,0.2-0.3,0.2h0c0-0.1,0-0.2,0-0.3v-0.1l0,0
				C30,13.3,30.1,13.4,30.2,13.5z"/>
			<path id="XMLID_383_" class="st0" d="M30.8,13.3v0.3h0c-0.1-0.1-0.2-0.1-0.2-0.1v0C30.8,13.3,30.8,13.3,30.8,13.3L30.8,13.3z"/>
			<path id="XMLID_410_" class="st0" d="M30.7,14.4l-0.1,0h-0.1c-0.1,0-0.2,0-0.4,0c-0.1,0-0.2,0-0.2,0.1v0.2c0,0.1,0,0.2,0,0.3
				c0,0.1,0,0.1,0.1,0.1h0.7c0,0,0.1,0,0.1-0.1v-0.4C30.8,14.5,30.8,14.4,30.7,14.4z M30.4,15L30.4,15c-0.1,0-0.2,0-0.3-0.1v-0.2
				c0.1-0.1,0.1-0.1,0.2-0.1c0.1,0,0.2,0.1,0.3,0.2C30.6,14.9,30.5,14.9,30.4,15z"/>
			<path id="XMLID_101_" class="st0" d="M30.8,14.2c0,0-0.2,0.1-0.7,0.1c-0.2,0-0.3,0-0.3-0.1V14c0,0,0,0,0-0.1
				c0.2-0.1,0.4-0.2,0.5-0.3c0,0,0.1,0.1,0.2,0.2C30.8,13.8,30.8,13.9,30.8,14.2z"/>
			<path id="XMLID_81_" class="st0" d="M30.7,13L30.7,13L30.7,13c-0.1,0.2-0.2,0.3-0.3,0.3c-0.1,0-0.3-0.1-0.5-0.2V13l0,0
				C30.4,13,30.6,13,30.7,13z"/>
			<path id="XMLID_96_" class="st0" d="M30.8,12.4v0.4c0,0,0,0-0.1,0c-0.3,0-0.6,0-0.8,0c0,0,0,0,0,0c0,0,0,0,0-0.1c0,0,0-0.1,0-0.2
				c0-0.1,0-0.1,0-0.2c0,0,0,0,0.1,0c0.3,0,0.6,0,0.8,0.1C30.8,12.3,30.8,12.3,30.8,12.4z"/>
			<path id="XMLID_85_" class="st0" d="M31.4,11L31.4,11L31.4,11c-0.1,0.1-0.2,0.3-0.5,0.4c-0.1,0-0.3,0.1-0.5,0.1
				c-0.1,0-0.2-0.1-0.4-0.2h0c0,0,0,0,0,0.1c0,0.2,0,0.4,0,0.5V12l0,0.1c0.6,0,0.9,0,0.9,0.1c0.1,0,0.2-0.1,0.3-0.1
				c0.2,0.2,0.3,0.3,0.5,0.4c0,0,0.1-0.2,0.2-0.6c0,0,0.1-0.1,0.1-0.3C31.7,11.4,31.5,11.2,31.4,11z M31.5,11.7
				c-0.1,0.1-0.2,0.2-0.3,0.2c-0.2,0-0.3-0.1-0.3-0.2c0-0.1,0.1-0.1,0.3-0.2h0C31.4,11.5,31.5,11.5,31.5,11.7L31.5,11.7z"/>
			<path id="XMLID_348_" class="st0" d="M31.1,10.6L31.1,10.6c-0.1,0.1-0.1,0.2-0.1,0.3c-0.1,0.2-0.3,0.4-0.5,0.4
				c-0.2-0.1-0.4-0.1-0.4-0.2c-0.1,0-0.2-0.2-0.3-0.7c0-0.2,0-0.4,0-0.6V9.6c0,0,0-0.1,0-0.2c0,0,0-0.1,0-0.1V9.3
				c0.1,0.1,0.3,0.3,0.6,0.6v0L30.4,10c-0.2,0.1-0.3,0.2-0.3,0.4c0.1,0.2,0.2,0.4,0.3,0.4h0.1c0.1,0,0.1,0,0.1-0.1v0
				c-0.1-0.1-0.2-0.2-0.2-0.2v-0.1c0-0.1,0.1-0.2,0.2-0.3h0L31.1,10.6z"/>
			<path id="XMLID_105_" d="M39.2,8.8h0.1c0,0,0,0,0,0l0,0h0.1c0.1,0,0.4,0.3,0.7,0.8c0.2,0.2,0.5,0.7,0.9,1.5l0.6,1.1
				c0.1,0.1,0.3,0.5,0.7,1.3c0.2,0.4,0.4,0.8,0.5,1.1c0.2,0.2,0.2,0.4,0.2,0.4c-0.1,0.2-0.3,0.2-0.7,0.2c0,0-0.2,0-0.5,0.1
				c0,0-0.1,0-0.4,0c-0.2,0-0.3-0.1-0.3-0.3c-0.1-0.1-0.3-0.4-0.5-0.9c0,0-0.1,0-0.2,0c-0.1,0-0.2,0-0.3,0h-0.7l-0.1,0l0,0
				c0,0,0,0,0,0l-0.2,0h-0.2c0,0-0.1,0-0.1,0c0,0,0,0,0,0c-0.3,0-0.4,0-0.4,0.1l-0.3,0.4c0,0.1-0.1,0.2-0.3,0.4
				c0,0.1-0.1,0.2-0.2,0.2h0c-0.2,0-0.3,0-0.4,0h-0.1c0,0-0.1,0-0.1,0l-0.4,0c0,0,0,0,0,0c-0.5,0-0.7-0.1-0.7-0.2
				c0.1,0,0.1-0.1,0.2-0.4c0.2-0.3,0.3-0.6,0.5-0.9c0.1-0.2,0.2-0.3,0.2-0.5c0.2-0.2,0.4-0.6,0.6-1c0.1-0.2,0.5-1,1.2-2.3
				c0.2-0.3,0.3-0.5,0.4-0.7C39.1,8.9,39.2,8.8,39.2,8.8z M36.3,14.9L36.3,14.9C36.3,14.9,36.3,15,36.3,14.9c0,0.1,0.1,0.1,0.1,0.1
				l0.2,0h1c0.1-0.1,0.2-0.3,0.4-0.5v0c-0.4-0.1-0.5-0.2-0.6-0.2h0c-0.2,0.3-0.3,0.5-0.4,0.5c0,0,0,0-0.1,0l-0.1-0.1l0.3-0.5
				c-0.1,0-0.3-0.1-0.3-0.1c0,0-0.1,0.1-0.2,0.3C36.5,14.5,36.4,14.7,36.3,14.9C36.3,14.9,36.3,14.9,36.3,14.9z M37.7,12.2
				c-0.1,0.2-0.2,0.3-0.2,0.4l0.1,0h0c0,0,0.1,0.1,0.2,0.3c0.2,0.3,0.4,0.4,0.6,0.4c0.1,0,0.2,0,0.3,0c0,0,0.1-0.1,0.3-0.1
				c0-0.1,0.1-0.1,0.2-0.1h0.1c0,0,0,0,0.1,0.1v0.1c-0.2,0.2-0.3,0.2-0.5,0.2c0,0-0.1,0-0.3,0.1c-0.4,0-0.7-0.1-0.9-0.3
				c-0.1-0.1-0.2-0.2-0.3-0.5h-0.1c-0.2,0.2-0.3,0.5-0.4,0.8c-0.1,0.2-0.2,0.3-0.2,0.3c0.1,0.1,0.3,0.1,0.4,0.1
				c0.2-0.3,0.3-0.4,0.3-0.5c0,0,0.1,0,0.1,0h0.1c0,0,0,0,0.1,0v0c0,0-0.1,0.2-0.3,0.5c0,0,0.2,0.1,0.6,0.2h0
				c0.1-0.2,0.2-0.3,0.3-0.3c0.1,0,0.1,0,0.2,0c0.2,0,0.3,0,0.6,0h0.4l0-0.1v-0.2c0-0.2,0-0.4-0.1-0.7h0c-0.1,0-0.3,0-0.6,0
				c-0.1,0-0.1-0.1-0.1-0.1c0.1-0.1,0.1-0.1,0.1-0.2l-0.1,0h-0.2C38.3,12.7,38,12.5,37.7,12.2C37.8,12.2,37.8,12.2,37.7,12.2z
				 M38.5,10.6c-0.1,0.2-0.3,0.5-0.5,1c0,0-0.1,0.1-0.2,0.3c0.1,0,0.2,0.1,0.2,0.2c0.2,0.2,0.4,0.4,0.6,0.4c0.2,0,0.3-0.1,0.3-0.1
				c0.2-0.2,0.3-0.5,0.3-0.8c0,0,0.1,0,0.1,0c0.1,0,0.2,0,0.2,0h0v0c0-0.1,0-0.2-0.1-0.2h-0.2c-0.1,0-0.3,0-0.5,0c0,0,0,0-0.1,0
				c-0.1,0-0.2,0-0.2-0.1v-0.1c0,0,0.1-0.1,0.3-0.1c0.2,0,0.3,0,0.3,0l0.1,0h0.3c0.2,0,0.3,0.1,0.3,0.2l0,0c0,0.3,0,0.4,0.1,0.4
				c0,0,0.1,0,0.2,0h0.1c0,0,0.1,0,0.1-0.1c0-0.1,0-0.2,0-0.3c0,0,0,0,0,0l0-0.1c0-0.4-0.1-0.6-0.2-0.6c-0.1,0-0.3,0-0.5-0.1l-0.1,0
				c-0.2,0-0.4,0-0.4,0c0,0-0.1,0-0.3,0l0,0c0,0,0,0-0.1,0C38.7,10.7,38.6,10.7,38.5,10.6z M38.4,11.6c0.1,0,0.2,0.1,0.2,0.2v0
				c0,0.1-0.1,0.1-0.2,0.2h0c-0.1,0-0.2-0.1-0.2-0.3C38.2,11.6,38.3,11.6,38.4,11.6z M38.8,10.7L38.8,10.7c0.2,0.1,0.2,0.1,0.2,0.1
				c0,0.1-0.1,0.1-0.2,0.2c-0.2,0-0.3-0.1-0.3-0.1C38.5,10.8,38.6,10.8,38.8,10.7z M39.2,9.3c-0.4,0.7-0.6,1.1-0.6,1.2l0.1,0
				c0,0,0,0,0.1,0v0c0.1,0,0.2,0,0.5-0.1l0-0.2v-0.1C39.3,9.9,39.3,9.7,39.2,9.3L39.2,9.3L39.2,9.3z M39.3,9L39.3,9
				c0.1,0.1,0.1,0.1,0.1,0C39.4,9,39.4,9,39.3,9L39.3,9C39.3,9,39.3,9,39.3,9z M39.6,10.8c0.1,0,0.2,0,0.2,0.1
				c-0.1,0.1-0.1,0.2-0.2,0.2c-0.1,0-0.2-0.1-0.2-0.1v-0.1C39.4,10.8,39.5,10.8,39.6,10.8z M39.6,9.3c0,0,0,0.3-0.1,0.8
				c0,0.1,0,0.2,0,0.3l0.1,0c0.1,0,0.4,0,0.7,0v0C40.3,10.3,40.1,9.9,39.6,9.3L39.6,9.3z M40.4,12.6L40.4,12.6
				c-0.1,0.1,0,0.2,0.1,0.4c0,0-0.1,0.1-0.2,0.1c-0.1,0-0.1,0-0.2-0.1h-0.2c0,0,0,0-0.1,0.1c0,0,0,0,0,0c0,0.6,0,0.9,0.1,0.9
				c0.2,0,0.3,0,0.4,0h0.4c0.2,0,0.3,0.1,0.3,0.4l0.3,0.5l0,0c0.1-0.3,0.2-0.4,0.2-0.5v0c-0.4-0.2-0.6-0.3-0.6-0.3v0l0.1-0.1h0.2
				c0.2,0.1,0.4,0.2,0.5,0.2h0l0.1-0.3v-0.1c0-0.1,0.1-0.1,0.2-0.1h0.1v0c0,0-0.1-0.1-0.1-0.3h0c-0.1,0-0.4,0.1-0.7,0.2
				c-0.2,0.1-0.3,0.1-0.3,0.1c-0.1,0-0.2,0-0.2-0.1c0-0.1,0.2-0.1,0.7-0.3c0.3-0.1,0.4-0.1,0.4-0.1c0-0.1,0-0.1-0.1-0.1
				c-0.5,0.1-0.8,0.2-0.9,0.3c-0.1,0-0.1,0-0.2,0h-0.1c0,0,0,0-0.1-0.1v0c0-0.1,0.2-0.1,0.5-0.2c0.1-0.1,0.3-0.1,0.7-0.2
				c-0.1-0.2-0.2-0.4-0.3-0.6c-0.2,0-0.5,0.1-0.7,0.2C40.5,12.5,40.4,12.6,40.4,12.6z M40.7,11.2L40.7,11.2c0,0.3,0,0.5,0.1,0.7
				c0,0.1-0.2,0.1-0.6,0.1h0c0,0-0.1,0-0.2,0v0c0,0.1,0.1,0.2,0.3,0.4c0.2-0.1,0.5-0.2,0.8-0.3c0.2,0,0.2,0,0.2-0.1
				C41.2,11.9,41,11.6,40.7,11.2L40.7,11.2L40.7,11.2z M41,12.6c0.1,0,0.1,0.1,0.1,0.1v0.1c0,0,0,0-0.1,0.1h0c-0.2,0-0.3,0-0.3-0.1
				C40.7,12.7,40.8,12.6,41,12.6z M42.2,13.9c0,0-0.1,0.1-0.2,0.3v0.1l0.6,0.4v0.1c0,0.1-0.1,0.1-0.2,0.1c-0.1,0-0.2-0.1-0.5-0.3
				h-0.1c-0.1,0.3-0.2,0.4-0.3,0.4c-0.1,0-0.1,0-0.1,0c0,0,0.1,0,0.1,0c0.1,0,0.5-0.1,1.1-0.1c0,0,0,0,0,0v0L42.2,13.9L42.2,13.9z"
				/>
			<path id="XMLID_120_" d="M45.1,8.8c0.2,0,0.3,0,0.3,0l0,0c0.6,0,1.1,0.1,1.4,0.2c0.6,0.2,0.9,0.5,1,0.7c0.2,0.3,0.3,0.6,0.3,0.9
				h0c0,0.1,0,0.1,0,0.1c0,0.1,0,0.2,0,0.3l0,0c-0.1,0.3-0.2,0.5-0.4,0.7c-0.2,0.3-0.6,0.6-1,0.7c0,0,0,0-0.1,0.1
				c0.1,0.2,0.4,0.5,0.7,1c0.3,0.5,0.5,0.7,0.6,0.8v0.1c0,0.1-0.3,0.3-0.9,0.7c-0.1,0.1-0.2,0.1-0.3,0.1c-0.2,0-0.3-0.1-0.3-0.2
				c0,0-0.3-0.4-1-1.2c0,0-0.1-0.2-0.4-0.4h0c0,0,0,0.1,0,0.1l0,0.2c0,0.1,0,0.3,0,0.6l0,0c0,0,0,0,0,0c0,0.1,0,0.2,0,0.3v0.2l0,0.1
				c0,0.1,0.1,0.2,0.1,0.2c0,0.1-0.1,0.1-0.4,0.2l-0.1,0c-0.1,0-0.5,0-1.1,0.1c-0.1,0-0.1,0-0.2-0.1l0-0.1v-0.2c0-0.1,0-0.1,0-0.2
				c0,0,0-0.1,0-0.2v-0.2c0,0,0-0.1,0-0.1v-0.2c0-0.7,0.1-1,0.1-1.1l0-0.1v-0.2c0,0,0,0,0-0.1l0,0l0-0.1c0,0,0-0.1,0-0.1l0-0.3
				c0,0,0,0,0,0l0-0.2v-0.4c0,0,0,0,0,0c0,0,0,0,0,0l0-0.1c0-0.1,0-0.2,0-0.2c0-0.6,0.1-1,0.1-1.3l0-0.1v0c0,0,0-0.1,0-0.2
				c0,0,0,0,0,0l0-0.1V9.1c0-0.2,0.2-0.3,0.7-0.3C44.5,8.8,44.7,8.8,45.1,8.8z M44.8,13.5c-0.1,0.1-0.3,0.3-0.8,0.8
				c-0.1,0-0.2,0-0.2,0.1v0.1c0,0,0,0.1,0,0.1l0,0.2v0.1c0,0,0.3-0.2,0.7-0.6c0.2-0.1,0.4-0.3,0.4-0.4c0-0.1,0-0.1,0-0.2L44.8,13.5
				C44.9,13.5,44.9,13.5,44.8,13.5z M43.8,13.6v0.2l0,0.2l0,0c0.1-0.1,0.2-0.2,0.2-0.2C44,13.7,43.9,13.6,43.8,13.6L43.8,13.6
				C43.9,13.6,43.8,13.6,43.8,13.6z M43.9,13C43.9,13.1,43.9,13.1,43.9,13c0,0.1,0.3-0.1,0.7-0.5c0,0,0.3-0.2,0.7-0.6
				c0,0,0.1,0,0.1,0c0-0.1-0.1-0.1-0.1-0.1h0c-0.2,0-0.3,0.1-0.5,0.2c-0.6,0.4-0.8,0.6-0.8,0.7C43.9,12.9,43.9,13,43.9,13z
				 M44.2,11.9L44.2,11.9C44.2,11.9,44.2,11.9,44.2,11.9l-0.2,0h-0.1c0,0.3-0.1,0.4-0.1,0.4c0,0,0,0,0,0.1h0
				c0.2-0.1,0.4-0.3,0.6-0.4c0,0,0,0,0,0C44.3,11.9,44.2,11.9,44.2,11.9z M44,10.8c0,0.1,0,0.2,0,0.4c0,0,0,0,0,0.1h0l0,0l0,0l0,0
				c0.7-0.5,1-0.7,1-0.8c0-0.1,0-0.2,0-0.3c0,0,0,0,0-0.1h0l0-0.1l0,0c0,0,0,0,0-0.1c0,0,0,0,0,0h0C44.3,10.5,44,10.7,44,10.8z
				 M44,9.1c0,0.2,0,0.3,0,0.4v0h0c0.3-0.2,0.5-0.4,0.7-0.5l-0.1,0h-0.2c-0.1,0-0.2,0-0.3,0v0C44,9.1,44,9.1,44,9.1z M44,9.8L44,9.8
				c0,0.2,0,0.4,0,0.6h0c0.1-0.1,0.5-0.3,1-0.7V9.5c0-0.1,0-0.1,0-0.3C44.9,9.2,44.6,9.4,44,9.8L44,9.8z M44,15L44,15
				c0.4,0,0.7,0,0.8,0c0,0,0,0,0,0l0-0.1c0,0,0,0,0-0.1c0-0.1,0-0.1,0-0.2c0-0.1,0-0.2,0-0.3c0,0,0-0.1,0-0.1v0h0
				C44.8,14.3,44.5,14.5,44,15z M44,13.4c0.1,0.1,0.2,0.1,0.2,0.2h0c0.1,0,0.1-0.1,0.2-0.2h0v-0.1c-0.1-0.1-0.2-0.2-0.2-0.2
				C44.1,13.3,44,13.4,44,13.4z M44,11.7L44,11.7c0.1,0,0.1,0,0.2,0c0.2,0,0.4,0,0.6,0H45c0-0.1,0-0.3,0-0.5V11c0,0,0,0,0,0
				C44.9,11,44.6,11.3,44,11.7z M44.5,10.6c0.1,0,0.1,0.1,0.1,0.2c0,0.1-0.1,0.2-0.2,0.2h-0.1c-0.1,0-0.1,0-0.2-0.1v0
				C44.3,10.7,44.4,10.6,44.5,10.6z M44.4,13.1c0,0,0.1,0.1,0.2,0.2c0.1,0,0.2-0.1,0.2-0.3c-0.1-0.1-0.1-0.2-0.2-0.2
				C44.5,12.9,44.4,13,44.4,13.1z M45,12.6L45,12.6c0.1,0.1,0.1,0.2,0.1,0.2h0c0.1,0,0.2-0.1,0.3-0.2v0c-0.1-0.1-0.1-0.2-0.2-0.2h0
				C45.1,12.5,45,12.6,45,12.6z M45.2,9.1c0,0.1,0,0.2,0,0.3v0.3c0,0,0,0.1,0,0.2c0,0,0,0.1,0,0.1v0.1l0,0l0.2,0h0.1
				c0.1,0,0.2,0,0.3,0c0,0,0.1-0.1,0.1-0.3l0-0.1c0-0.1,0-0.1,0-0.2v0c0-0.1,0-0.2-0.1-0.3h0c0,0-0.2,0-0.4,0h-0.1
				C45.3,9.1,45.3,9,45.2,9.1C45.3,9,45.3,9.1,45.2,9.1z M45.6,9.4c0.1,0,0.2,0.1,0.2,0.2c0,0.1-0.1,0.1-0.2,0.2
				c-0.1,0-0.2-0.1-0.2-0.2C45.3,9.4,45.4,9.4,45.6,9.4z M45.3,13.1L45.3,13.1c0.1,0.1,0.1,0.2,0.1,0.2c0.2-0.1,0.5-0.3,0.8-0.6
				v-0.1c0-0.1-0.1-0.1-0.2-0.1C45.7,12.7,45.4,12.9,45.3,13.1z M45.5,12.2c0,0.1,0.1,0.1,0.2,0.2c0,0,0.1-0.1,0.2-0.2v0
				c-0.1-0.1-0.2-0.1-0.3-0.1C45.5,12.1,45.5,12.1,45.5,12.2z M45.7,11.8L45.7,11.8l0.7,0.5h0c0,0,0.1,0,0.1-0.1v-0.1
				c0,0-0.2-0.1-0.5-0.3c0,0,0,0-0.1-0.1h0C45.7,11.8,45.7,11.8,45.7,11.8z M45.7,13.4c0.3,0.3,0.4,0.5,0.4,0.5h0
				c0.1-0.1,0.3-0.2,0.6-0.5v0c-0.2-0.3-0.4-0.4-0.4-0.4C46.2,13,46,13.2,45.7,13.4z M46.2,13.2c0.2,0,0.3,0.1,0.3,0.2
				c0,0.1-0.1,0.2-0.3,0.2c-0.1,0-0.1-0.1-0.1-0.1C46,13.3,46,13.2,46.2,13.2z M46.2,11.6L46.2,11.6c0.1,0.1,0.2,0.2,0.3,0.2h0
				c0,0,0-0.1,0-0.1c0-0.1,0-0.2,0-0.2h0C46.3,11.6,46.2,11.6,46.2,11.6z M46.3,9.2c0,0.2,0,0.3,0,0.3c0,0.2,0,0.4,0,0.6
				c0.2,0,0.3,0.1,0.5,0.2h0c0.3-0.2,0.5-0.4,0.6-0.6c-0.2-0.2-0.5-0.3-0.8-0.4C46.4,9.2,46.3,9.2,46.3,9.2z M46.3,14.1l0.3,0.4
				c0.1,0,0.1-0.1,0.2-0.2v0c0,0-0.2-0.1-0.4-0.2v0c0,0,0.1-0.1,0.2-0.1h0.1c0.1,0.1,0.2,0.1,0.3,0.1c0.1,0,0.1-0.1,0.2-0.2
				l-0.2-0.3h0L46.3,14.1L46.3,14.1z M46.8,11.2L46.8,11.2c0.7-0.1,1-0.1,1-0.2v-0.1h-0.1C47.1,11,46.8,11.1,46.8,11.2L46.8,11.2z
				 M47,14.4l-0.2,0.2v0c0,0.1,0.1,0.2,0.2,0.3c0.1,0,0.3-0.2,0.6-0.4v0c0,0,0,0-0.1-0.1c0,0.1-0.1,0.1-0.2,0.1
				C47.3,14.5,47.1,14.5,47,14.4z M46.8,11.6L46.8,11.6c0,0.1,0,0.1,0,0.1c0,0.1,0,0.2,0,0.3V12c0,0,0,0,0,0.1c0,0,0,0,0,0.1h0
				c0,0,0,0,0,0.1h0c0.2-0.1,0.2-0.1,0.2-0.2c0,0,0,0-0.1-0.1c0-0.1,0-0.1,0-0.2v-0.1c0,0,0-0.1,0-0.1c0,0,0-0.1,0-0.2
				C46.9,11.4,46.8,11.5,46.8,11.6C46.8,11.5,46.8,11.6,46.8,11.6z M46.9,10.4c0,0.2,0,0.3,0,0.4c0,0,0,0,0,0h0l0.9-0.2v-0.1
				c0-0.3-0.1-0.5-0.3-0.7h0c0,0-0.2,0.2-0.5,0.5C46.9,10.3,46.9,10.4,46.9,10.4z M47.2,14.2L47.2,14.2c0,0.1,0.1,0.1,0.2,0.1h0v0
				C47.4,14.2,47.4,14.2,47.2,14.2L47.2,14.2C47.3,14.1,47.2,14.2,47.2,14.2z M47.4,11.4v0.4h0c0.1-0.1,0.2-0.3,0.3-0.4l0,0
				L47.4,11.4z"/>
			<path id="XMLID_151_" d="M51.8,8.8h0.1c0,0,0,0,0,0l0,0h0.1c0.1,0,0.4,0.3,0.7,0.8c0.2,0.2,0.5,0.7,0.9,1.5l0.6,1.1
				c0.1,0.1,0.3,0.5,0.7,1.3c0.2,0.4,0.4,0.8,0.5,1.1c0.2,0.2,0.2,0.4,0.2,0.4c-0.1,0.2-0.3,0.2-0.7,0.2c0,0-0.2,0-0.5,0.1
				c0,0-0.1,0-0.4,0c-0.2,0-0.3-0.1-0.3-0.3c-0.1-0.1-0.3-0.4-0.5-0.9c0,0-0.1,0-0.2,0c-0.1,0-0.2,0-0.3,0h-0.7l-0.1,0l0,0
				c0,0,0,0,0,0l-0.2,0h-0.2c0,0-0.1,0-0.1,0c0,0,0,0,0,0c-0.3,0-0.4,0-0.4,0.1l-0.3,0.4c0,0.1-0.1,0.2-0.3,0.4
				c0,0.1-0.1,0.2-0.2,0.2h0c-0.2,0-0.3,0-0.4,0h-0.1c0,0-0.1,0-0.1,0l-0.4,0c0,0,0,0,0,0c-0.5,0-0.7-0.1-0.7-0.2
				c0.1,0,0.1-0.1,0.2-0.4c0.2-0.3,0.3-0.6,0.5-0.9c0.1-0.2,0.2-0.3,0.2-0.5c0.2-0.2,0.4-0.6,0.6-1c0.1-0.2,0.5-1,1.2-2.3
				c0.2-0.3,0.3-0.5,0.4-0.7C51.7,8.9,51.8,8.8,51.8,8.8z M48.9,14.9L48.9,14.9C48.9,14.9,48.9,15,48.9,14.9C48.9,15,49,15,49,15
				l0.2,0h1c0.1-0.1,0.2-0.3,0.4-0.5v0c-0.4-0.1-0.5-0.2-0.6-0.2h0c-0.2,0.3-0.3,0.5-0.4,0.5c0,0,0,0-0.1,0l-0.1-0.1l0.3-0.5
				c-0.1,0-0.3-0.1-0.3-0.1c0,0-0.1,0.1-0.2,0.3C49.1,14.5,49,14.7,48.9,14.9C48.9,14.9,48.9,14.9,48.9,14.9z M50.3,12.2
				c-0.1,0.2-0.2,0.3-0.2,0.4l0.1,0h0c0,0,0.1,0.1,0.2,0.3c0.2,0.3,0.4,0.4,0.6,0.4c0.1,0,0.2,0,0.3,0c0,0,0.1-0.1,0.3-0.1
				c0-0.1,0.1-0.1,0.2-0.1h0.1c0,0,0,0,0.1,0.1v0.1c-0.2,0.2-0.3,0.2-0.5,0.2c0,0-0.1,0-0.3,0.1c-0.4,0-0.7-0.1-0.9-0.3
				c-0.1-0.1-0.2-0.2-0.3-0.5H50c-0.2,0.2-0.3,0.5-0.4,0.8c-0.1,0.2-0.2,0.3-0.2,0.3c0.1,0.1,0.3,0.1,0.4,0.1
				c0.2-0.3,0.3-0.4,0.3-0.5c0,0,0.1,0,0.1,0h0.1c0,0,0,0,0.1,0v0c0,0-0.1,0.2-0.3,0.5c0,0,0.2,0.1,0.6,0.2h0
				c0.1-0.2,0.2-0.3,0.3-0.3c0.1,0,0.1,0,0.2,0c0.2,0,0.3,0,0.6,0h0.4l0-0.1v-0.2c0-0.2,0-0.4-0.1-0.7h0c-0.1,0-0.3,0-0.6,0
				c-0.1,0-0.1-0.1-0.1-0.1c0.1-0.1,0.1-0.1,0.1-0.2l-0.1,0h-0.2C50.9,12.7,50.6,12.5,50.3,12.2C50.4,12.2,50.3,12.2,50.3,12.2z
				 M51.1,10.6c-0.1,0.2-0.3,0.5-0.5,1c0,0-0.1,0.1-0.2,0.3c0.1,0,0.2,0.1,0.2,0.2c0.2,0.2,0.4,0.4,0.6,0.4c0.2,0,0.3-0.1,0.3-0.1
				c0.2-0.2,0.3-0.5,0.3-0.8c0,0,0.1,0,0.1,0c0.1,0,0.2,0,0.2,0h0v0c0-0.1,0-0.2-0.1-0.2H52c-0.1,0-0.3,0-0.5,0c0,0,0,0-0.1,0
				c-0.1,0-0.2,0-0.2-0.1v-0.1c0,0,0.1-0.1,0.3-0.1c0.2,0,0.3,0,0.3,0l0.1,0h0.3c0.2,0,0.3,0.1,0.3,0.2l0,0c0,0.3,0,0.4,0.1,0.4
				c0,0,0.1,0,0.2,0h0.1c0,0,0.1,0,0.1-0.1c0-0.1,0-0.2,0-0.3c0,0,0,0,0,0l0-0.1c0-0.4-0.1-0.6-0.2-0.6c-0.1,0-0.3,0-0.5-0.1l-0.1,0
				c-0.2,0-0.4,0-0.4,0c0,0-0.1,0-0.3,0l0,0c0,0,0,0-0.1,0C51.3,10.7,51.2,10.7,51.1,10.6z M51,11.6c0.1,0,0.2,0.1,0.2,0.2v0
				c0,0.1-0.1,0.1-0.2,0.2h0c-0.1,0-0.2-0.1-0.2-0.3C50.8,11.6,50.9,11.6,51,11.6z M51.4,10.7L51.4,10.7c0.2,0.1,0.2,0.1,0.2,0.1
				c0,0.1-0.1,0.1-0.2,0.2c-0.2,0-0.3-0.1-0.3-0.1C51.1,10.8,51.2,10.8,51.4,10.7z M51.8,9.3c-0.4,0.7-0.6,1.1-0.6,1.2l0.1,0
				c0,0,0,0,0.1,0v0c0.1,0,0.2,0,0.5-0.1l0-0.2v-0.1C51.8,9.9,51.8,9.7,51.8,9.3L51.8,9.3L51.8,9.3z M51.9,9L51.9,9
				C52,9.1,52,9.1,52,9.1C52,9,52,9,51.9,9L51.9,9C51.9,9,51.9,9,51.9,9z M52.2,10.8c0.1,0,0.2,0,0.2,0.1c-0.1,0.1-0.1,0.2-0.2,0.2
				c-0.1,0-0.2-0.1-0.2-0.1v-0.1C52,10.8,52.1,10.8,52.2,10.8z M52.2,9.3c0,0,0,0.3-0.1,0.8c0,0.1,0,0.2,0,0.3l0.1,0
				c0.1,0,0.4,0,0.7,0v0C52.9,10.3,52.6,9.9,52.2,9.3L52.2,9.3z M52.9,12.6L52.9,12.6c-0.1,0.1,0,0.2,0.1,0.4c0,0-0.1,0.1-0.2,0.1
				c-0.1,0-0.1,0-0.2-0.1h-0.2c0,0,0,0-0.1,0.1c0,0,0,0,0,0c0,0.6,0,0.9,0.1,0.9c0.2,0,0.3,0,0.4,0h0.4c0.2,0,0.3,0.1,0.3,0.4
				l0.3,0.5l0,0c0.1-0.3,0.2-0.4,0.2-0.5v0c-0.4-0.2-0.6-0.3-0.6-0.3v0l0.1-0.1h0.2c0.2,0.1,0.4,0.2,0.5,0.2h0l0.1-0.3v-0.1
				c0-0.1,0.1-0.1,0.2-0.1h0.1v0c0,0-0.1-0.1-0.1-0.3h0c-0.1,0-0.4,0.1-0.7,0.2c-0.2,0.1-0.3,0.1-0.3,0.1c-0.1,0-0.2,0-0.2-0.1
				c0-0.1,0.2-0.1,0.7-0.3c0.3-0.1,0.4-0.1,0.4-0.1c0-0.1,0-0.1-0.1-0.1c-0.5,0.1-0.8,0.2-0.9,0.3c-0.1,0-0.1,0-0.2,0h-0.1
				c0,0,0,0-0.1-0.1v0c0-0.1,0.2-0.1,0.5-0.2c0.1-0.1,0.3-0.1,0.7-0.2c-0.1-0.2-0.2-0.4-0.3-0.6c-0.2,0-0.5,0.1-0.7,0.2
				C53.1,12.5,53,12.6,52.9,12.6z M53.3,11.2L53.3,11.2c0,0.3,0,0.5,0.1,0.7c0,0.1-0.2,0.1-0.6,0.1h0c0,0-0.1,0-0.2,0v0
				c0,0.1,0.1,0.2,0.3,0.4c0.2-0.1,0.5-0.2,0.8-0.3c0.2,0,0.2,0,0.2-0.1C53.7,11.9,53.6,11.6,53.3,11.2L53.3,11.2L53.3,11.2z
				 M53.6,12.6c0.1,0,0.1,0.1,0.1,0.1v0.1c0,0,0,0-0.1,0.1h0c-0.2,0-0.3,0-0.3-0.1C53.3,12.7,53.4,12.6,53.6,12.6z M54.8,13.9
				c0,0-0.1,0.1-0.2,0.3v0.1l0.6,0.4v0.1c0,0.1-0.1,0.1-0.2,0.1c-0.1,0-0.2-0.1-0.5-0.3h-0.1c-0.1,0.3-0.2,0.4-0.3,0.4
				c-0.1,0-0.1,0-0.1,0c0,0,0.1,0,0.1,0c0.1,0,0.5-0.1,1.1-0.1c0,0,0,0,0,0v0L54.8,13.9L54.8,13.9z"/>
		</g>
	</g>
	<g id="XMLID_1108_">
		<path id="XMLID_1111_" class="st3" d="M15,14C14.9,14,14.9,14,15,14c-1.3,0.6-2.5,1.2-3.7,1.8c0,0-0.1,0-0.1,0v2.5
			c0,0,0.1,0,0.1,0c1.6-0.9,3.2-1.8,4.7-2.7c0,0,0.1,0,0.1-0.1C15.8,15,15.4,14.5,15,14z"/>
		<path id="XMLID_1110_" d="M11.3,15c1.1-0.5,2.2-1.1,3.2-1.6c0,0,0,0,0.1,0c-0.5-0.6-0.9-1.2-1.4-1.8c0,0-0.1,0-0.1,0
			c-0.6,0.3-1.2,0.6-1.8,0.9c0,0-0.1,0-0.1,0L11.3,15C11.3,15,11.3,15,11.3,15z"/>
		<path id="XMLID_1109_" class="st0" d="M11.3,11.5c0.5-0.2,1-0.5,1.6-0.7c0,0,0,0,0.1,0c-0.6-0.8-1.1-1.5-1.7-2.3c0,0,0,0,0,0
			L11.3,11.5C11.3,11.5,11.3,11.5,11.3,11.5z"/>
	</g>
	<g id="XMLID_1098_">
		<path id="XMLID_1100_" d="M10.8,14.5c0,2,0,4,0,6.1c0,0.3-0.1,0.4-0.3,0.4c-0.2,0-0.4-0.1-0.4-0.3c0-0.1,0-0.1,0-0.2
			c0-2.3,0-4.7,0-7c0-0.1,0-0.2-0.1-0.3c-0.4-1.2-1.2-2.1-2.3-2.7c-0.5-0.3-0.9-0.7-1.2-1.2C6.1,8,6.9,6.7,8.1,6.4
			c1.3-0.3,2.4,0.6,2.6,1.8c0,0.2,0,0.4,0,0.6C10.8,10.7,10.8,12.6,10.8,14.5z M9,8.5c0-0.2-0.2-0.4-0.4-0.4c-0.2,0-0.4,0.2-0.4,0.4
			c0,0.2,0.2,0.3,0.4,0.3C8.8,8.9,9,8.7,9,8.5z"/>
		<path id="XMLID_1099_" d="M5.6,14.2c0.1-0.2,0.2-0.4,0.3-0.5c0,0,0.1,0,0.1,0c0.4,0.1,0.8,0.1,1.3,0.2c0.2,0,0.5,0.1,0.7,0.2
			c0.3,0.1,0.4,0,0.5-0.2c0-0.2-0.1-0.4-0.4-0.4c-0.4-0.1-0.9-0.2-1.3-0.3c-0.2,0-0.4-0.1-0.6-0.1c0.1-0.1,0.2-0.3,0.3-0.4
			c0,0,0.1,0,0.1,0c0.4,0.1,0.9,0.1,1.4,0.2c0.1,0,0.2,0,0.3,0c0.2,0,0.2-0.1,0.2-0.3c0-0.1-0.1-0.2-0.3-0.3
			c-0.5-0.1-0.9-0.1-1.3-0.2c0,0-0.1,0-0.1,0c0.2-0.4,0.4-0.8,0.7-1.2c0.9,0.3,1.7,1.3,2.1,2.2c0,0,0,0.3,0,0.3c0,1.5,0,2.6,0,4.9
			c0,0,0,0.1,0,0.1c-0.5-0.3-1-0.7-1.4-1C7.1,16.7,6,16.6,5,16.8c-0.1,0-0.2,0.1-0.3,0c-0.2,0-0.4-0.4-0.2-0.6
			C4.8,15.8,5,15.3,5.2,15c0,0,0.1-0.1,0.1-0.1c0.8,0,1.6,0.2,2.5,0.7c0.3,0.1,0.5,0.1,0.5-0.1c0.1-0.2-0.1-0.4-0.3-0.5
			c-0.7-0.3-1.4-0.5-2.1-0.6C5.9,14.3,5.8,14.3,5.6,14.2z"/>
	</g>
	<g id="XMLID_1112_">
		<path id="XMLID_1127_" class="st2" d="M1.8,11.6H1.1c0,0.2,0.1,0.3,0.1,0.4h0.6C1.9,11.9,1.8,11.8,1.8,11.6z"/>
		<path id="XMLID_1139_" class="st2" d="M2,13.7c0.1,0.2,0.2,0.4,0.4,0.6h0.2c-0.1-0.2-0.2-0.4-0.2-0.6H2z"/>
		<path id="XMLID_1258_" class="st2" d="M2,12.6H1.5c0.1,0.2,0.1,0.3,0.2,0.5h0.4C2.1,13,2,12.8,2,12.6z"/>
		<path id="XMLID_1259_" class="st2" d="M1.8,10.8c0-0.1,0-0.1,0-0.2H0.9c0,0.1,0,0.3,0.1,0.4h0.8C1.8,10.9,1.8,10.8,1.8,10.8z"/>
		<path id="XMLID_1260_" class="st2" d="M2.6,14.7c0.2,0.2,0.4,0.5,0.6,0.7c-0.1-0.2-0.3-0.4-0.4-0.7H2.6z"/>
		<path id="XMLID_1261_" class="st2" d="M1.9,9.6H0.8c0,0.1,0,0.2,0,0.3h1C1.8,9.8,1.9,9.7,1.9,9.6z"/>
		<path id="XMLID_1262_" class="st2" d="M10,0C5.4,0,1.6,3.3,0.9,7.7h1.5c1.2-3.1,4.2-5.2,7.7-5.2c3.6,0,6.6,2.3,7.8,5.4
			c0.4-0.1,0.8-0.1,1.2-0.1C18.4,3.4,14.6,0,10,0z"/>
		<path id="XMLID_1263_" class="st2" d="M2.1,8.5H0.8c0,0.1,0,0.2,0,0.2H2C2,8.7,2.1,8.6,2.1,8.5z"/>
		<path id="XMLID_1266_" class="st2" d="M17.1,8.2c-1.1-2.8-3.8-4.9-7-4.9c-3,0-5.6,1.8-6.8,4.4h0.5C5.1,6,7.2,4.9,9.6,4.9
			c2.8,0,5.3,1.6,6.6,4C16.4,8.6,16.8,8.3,17.1,8.2z"/>
		<path id="XMLID_1268_" class="st2" d="M2.7,9.7c0,0,0-0.1,0-0.1h0C2.7,9.6,2.7,9.6,2.7,9.7z"/>
		<path id="XMLID_1269_" class="st2" d="M2.9,8.8h0.2c0-0.1,0.1-0.2,0.1-0.2H2.9C2.9,8.6,2.9,8.7,2.9,8.8z"/>
	</g>
</g>
</svg>
