<?xml version="1.0" encoding="utf-8"?>
<!-- Generator: Adobe Illustrator 19.0.0, SVG Export Plug-In . SVG Version: 6.00 Build 0)  -->
<svg version="1.1" id="Calque_1" xmlns="http://www.w3.org/2000/svg" xmlns:xlink="http://www.w3.org/1999/xlink" x="0px" y="0px"
	 viewBox="0 0 276.6 275.7" style="enable-background:new 0 0 276.6 275.7;" xml:space="preserve">
<style type="text/css">
	.st0{fill:#009447;}
</style>
<g id="XMLID_1295_">
	<path id="XMLID_1298_" class="st0" d="M272.8,178.8l-32-46.5l-101,58.6l-1.5,0.9l-1.5-0.9L35.7,132.9l-0.2-0.1l-31.7,46
		c-7.1,10.4-3.9,24.6,7,30.9l102.3,59.2c15.6,9,34.9,9,50.5,0l102.3-59.2C276.7,203.4,279.9,189.1,272.8,178.8z"/>
</g>
<g id="XMLID_1300_">
	<g id="XMLID_1265_">
		<path id="XMLID_1287_" class="st0" d="M191.1,59.7L156.2,9.4c-8.6-12.5-27.1-12.5-35.7,0L85.5,60.1l52.8,30.2L191.1,59.7z"/>
		<polygon id="XMLID_1304_" class="st0" points="192.8,62.2 192.6,62.3 139.8,92.9 138.3,93.8 136.8,92.9 84,62.6 83.8,62.6 
			37.2,130.3 138.3,188.3 239.4,129.6 		"/>
	</g>
</g>
<g id="XMLID_1296_">
	<path id="XMLID_1299_" class="st0" d="M85.5,60l35-50.7c8.6-12.5,27.1-12.5,35.7,0l34.9,50.4l-52.8,30.6L85.5,60z"/>
</g>
</svg>
