<?xml version="1.0" encoding="utf-8"?>
<!-- Generator: Adobe Illustrator 23.0.3, SVG Export Plug-In . SVG Version: 6.00 Build 0)  -->
<svg version="1.1" id="Calque_1" xmlns="http://www.w3.org/2000/svg" xmlns:xlink="http://www.w3.org/1999/xlink" x="0px" y="0px"
	 viewBox="0 0 339.1 278.7" style="enable-background:new 0 0 339.1 278.7;" xml:space="preserve">
<style type="text/css">
	.st0{fill:#020303;}
	.st1{fill:#FBA819;}
	.st2{fill:#A61D28;}
	.st3{fill:#BF202F;}
	.st4{fill:#FDFDFD;}
	.st5{fill:#0E9648;}
</style>
<g>
	<path class="st0" d="M191.8,0.6c4.2,1.4,8.6,1.4,12.8,2.6c26,7.4,44,23.6,54.1,48.7c3.9,9.7,5.3,19.8,5.3,30.2
		c0,10.9,0.1,21.7-0.1,32.6c0,1.9,0.6,2.5,2.4,2.5c11.7,0.3,20.7,10.3,20.6,23c-0.2,44.1-0.1,88.2-0.1,132.3c0,4.9-1.3,6.2-6.3,6.2
		c-64.2,0-128.4,0-192.6,0c-4.8,0-6.1-1.3-6.1-6.1c0-44.2,0-88.4,0-132.5c0-11.5,5.9-19.5,16.4-22.3c2.5-0.7,5-0.7,7.5-0.7
		c41.3,0,82.6,0,123.8,0c2.3,0,3-0.4,3-2.9c-0.2-11.2,0-22.5-0.1-33.7c-0.2-21.4-12.8-39-32.9-46c-25.6-9-54.8,6.7-61.7,33
		c-1.8,6.8-1.9,13.6-1.8,20.5c0,4,0.1,8,0,11.9c-0.1,3.6-1.6,5.1-5.2,5.1c-7.1,0.1-14.1,0.1-21.2,0c-3.3,0-5-1.5-4.9-4.4
		c0.2-10.9-0.7-21.9,1.1-32.8c2.9-17.1,10.5-31.8,22.7-44c12.3-12.2,27-19.7,44.2-22.3c0.9-0.1,2,0.1,2.6-0.9
		C180.9,0.6,186.3,0.6,191.8,0.6z M184.2,269.9c0.5,0,1.1,0.1,1.6,0.1c30,0,60.1,0,90.1,0.1c2.4,0,2.3-1.1,2.3-2.8
		c0-42.4,0-84.9,0-127.3c0-1.6,0-3.2-0.4-4.8c-1.8-6.1-6.6-9.6-13.8-9.6c-24.3,0-48.7,0-73,0c-2.3,0-4.5,0.1-6.8,0.1
		c-0.9,0-1.8-0.1-2.7-0.1c-25.4,0-50.9,0-76.3,0c-9.7,0-14.9,5.2-14.9,14.9c0,42.2,0,84.4-0.1,126.6c0,2.4,0.5,3,3,3
		c29.3-0.1,58.7-0.1,88-0.1C182.2,270.1,183.2,270,184.2,269.9z M255.4,93.5c-0.3-6.5,0.5-14.4-0.6-22.2
		c-2.6-19.2-11.4-35-26.7-46.9c-18.8-14.6-40.1-19-62.9-12.4c-25.1,7.3-41.2,24.1-49,49c-3.5,11.1-2.7,22.5-2.8,33.9
		c0,1.6,0.9,1.7,2.1,1.7c3.3,0,6.5-0.1,9.8,0c2,0.1,2.5-0.7,2.4-2.5c-0.1-4.3,0-8.5,0-12.8c-0.1-11.4,3-21.9,9.1-31.6
		c13.8-22,41.4-31.8,65.9-23.3c23.2,8,38.3,29.1,38.5,54c0.1,11.2,0.1,22.4,0,33.7c0,2.5,0.7,3.1,3.1,2.9c3-0.2,6-0.1,9,0
		c1.8,0.1,2.3-0.6,2.3-2.3C255.3,108.1,255.4,101.5,255.4,93.5z"/>
	<path class="st1" d="M65.1,104.4c-2.8,0-5.6,0.1-8.4,0c-2.7-0.1-4.4-1.7-4.6-4c-0.1-2.3,1.5-4.4,4.1-4.5c5.9-0.2,11.9-0.2,17.8,0
		c2.8,0.1,4.4,2.1,4.2,4.6c-0.1,2.3-1.9,3.9-4.6,3.9C70.9,104.4,68,104.4,65.1,104.4z"/>
	<path class="st1" d="M78.8,110.3c1.9,0.2,3.3,0.9,4,2.4c0.7,1.5,0.8,3.1-0.4,4.3c-4,4.2-8.1,8.3-12.3,12.3
		c-1.7,1.6-3.8,1.1-5.4-0.4c-1.5-1.5-1.9-3.6-0.6-5.2c3.8-4.6,8.2-8.7,12.6-12.7C77.4,110.6,78.3,110.5,78.8,110.3z"/>
	<path class="st1" d="M83.4,85.5c-0.1,1.8-0.8,3.1-2.3,3.8c-1.5,0.7-3.1,0.8-4.3-0.4c-4.2-4-8.3-8.1-12.2-12.3
		c-1.6-1.7-1.2-3.8,0.4-5.4c1.6-1.6,3.7-1.9,5.4-0.4c4.4,3.8,8.4,8,12.3,12.2C83.2,83.8,83.3,84.7,83.4,85.5z"/>
	<path class="st2" d="M184.2,269.9c-1,0-2,0.1-3,0.1c-29.3,0-58.7,0-88,0.1c-2.4,0-3-0.7-3-3c0.1-42.2,0-84.4,0.1-126.6
		c0-9.7,5.2-14.9,14.9-14.9c25.4,0,50.9,0,76.3,0c0.9,0,1.8,0.1,2.7,0.1c0,2.4,0,4.8,0,7.2c-10.8,0.4-19.3,5.2-25,14.3
		c-9.6,15.6-2.4,36.1,14.8,42.6c0.6,0.2,1.5,0.1,1.6,1.1c-18.3,3.9-31.7,17-35.6,35.3c-2.3,10.8-0.8,21.8-0.9,32.7
		c0,1.7,1.2,2.9,2.8,3.3c1.2,0.3,2.5,0.4,3.8,0.4c12.8,0.1,25.7,0.1,38.5,0.2C184.2,265.3,184.2,267.6,184.2,269.9z"/>
	<path class="st3" d="M184.2,269.9c0-2.3,0-4.7,0-7c1.1-0.1,2.2-0.2,3.2-0.2c12.1,0,24.2,0,36.4,0c4.6,0,6-1.5,6-6
		c0-7.6,0.2-15.2-0.1-22.8c-0.5-12.4-5.3-22.9-14.4-31.4c-6.3-5.9-13.8-9.7-22.2-11.5c0.3-1,1.2-1,1.8-1.2
		c14.6-5.6,22.5-22,17.3-36.6c-4.7-12.9-14.3-19.5-28-20.2c0-2.4,0-4.8,0-7.2c2.3,0,4.5-0.1,6.8-0.1c24.3,0,48.7,0,73,0
		c7.1,0,12,3.4,13.8,9.6c0.5,1.6,0.4,3.2,0.4,4.8c0,42.4,0,84.9,0,127.3c0,1.7,0.1,2.8-2.3,2.8c-30-0.1-60.1-0.1-90.1-0.1
		C185.3,270.1,184.8,270,184.2,269.9z M264,179.5c0-7.6,0-15.2,0-22.8c0-1.9,0.1-3.8,0-5.7c-0.1-2.4-1.9-4.3-4.1-4.2
		c-2.4,0-3.8,1.5-4.3,3.7c-0.2,0.7-0.1,1.4-0.1,2.2c0,17.9,0,35.8,0,53.7c0,1.1,0,2.2,0.4,3.2c0.8,1.9,2.2,2.9,4.2,2.8
		c2-0.1,3.3-1.3,3.8-3.3c0.2-0.9,0.2-1.8,0.2-2.7C264,197.4,264,188.5,264,179.5z M264,235.5c0-3.4,0-6.9,0-10.3
		c0-3.3-1.5-5.2-4.2-5.2c-2.7-0.1-4.4,1.8-4.4,5c-0.1,7.1-0.1,14.1,0,21.2c0,3.3,1.8,5,4.5,4.9c2.6-0.1,4.1-1.9,4.1-5
		C264.1,242.6,264,239.1,264,235.5z"/>
	<path class="st1" d="M255.4,93.5c0,8,0,14.6,0,21.2c0,1.7-0.5,2.4-2.3,2.3c-3-0.1-6-0.2-9,0c-2.3,0.2-3.1-0.5-3.1-2.9
		c0.1-11.2,0.1-22.4,0-33.7c-0.2-24.8-15.3-45.9-38.5-54c-24.5-8.5-52.1,1.3-65.9,23.3c-6.1,9.7-9.2,20.2-9.1,31.6
		c0,4.3-0.1,8.5,0,12.8c0,1.8-0.4,2.6-2.4,2.5c-3.3-0.1-6.5-0.1-9.8,0c-1.2,0-2.1-0.1-2.1-1.7c0.1-11.4-0.7-22.8,2.8-33.9
		c7.9-24.8,23.9-41.7,49-49c22.9-6.6,44.2-2.2,62.9,12.4c15.3,11.8,24.1,27.7,26.7,46.9C255.9,79.1,255.1,87,255.4,93.5z"/>
	<path class="st0" d="M184.2,133c13.7,0.7,23.3,7.4,28,20.2c5.3,14.6-2.7,31-17.3,36.6c-0.6,0.2-1.5,0.1-1.8,1.2
		c8.5,1.8,15.9,5.5,22.2,11.5c9,8.5,13.9,19.1,14.4,31.4c0.3,7.6,0.1,15.2,0.1,22.8c0,4.6-1.4,6-6,6c-12.1,0-24.2,0-36.4,0
		c-1.1,0-2.2,0.1-3.2,0.2c-12.8,0-25.7-0.1-38.5-0.2c-1.3,0-2.5-0.1-3.8-0.4c-1.6-0.4-2.8-1.6-2.8-3.3c0.1-10.9-1.4-22,0.9-32.7
		c3.8-18.3,17.3-31.4,35.6-35.3c-0.1-1-1-0.9-1.6-1.1c-17.2-6.5-24.4-27-14.8-42.6C164.9,138.1,173.4,133.4,184.2,133z M184.4,183
		c11,0.5,20.7-9.1,20.8-20.5c0-11.4-9.7-21-20.7-20.5c-11.2-0.9-21.5,9.8-20.8,21.5C164.3,174.8,174,183.9,184.4,183z M184.4,199
		c-0.4-0.1-0.9-0.2-1.3-0.2c-16.4,0-31.8,13.2-34.8,29.6c-1.4,7.7-0.4,15.5-0.7,23.3c-0.1,1.9,0.5,2.4,2.4,2.4
		c10.8-0.1,21.5,0,32.3-0.1c0.7,0,1.4-0.2,2.1-0.3c11.8,0.5,23.6,0.1,35.5,0.2c1.7,0,1.2-1.2,1.2-2.1c0-5.7,0-11.4,0-17.1
		c0-2.9-0.4-5.8-1.2-8.6C215.8,210.2,200,198.1,184.4,199z"/>
	<path class="st4" d="M264,179.5c0,9,0,17.9,0,26.9c0,0.9,0,1.8-0.2,2.7c-0.5,1.9-1.8,3.1-3.8,3.3c-2,0.1-3.4-0.9-4.2-2.8
		c-0.4-1-0.4-2.1-0.4-3.2c0-17.9,0-35.8,0-53.7c0-0.7,0-1.5,0.1-2.2c0.5-2.3,2-3.7,4.3-3.7c2.2,0,4,1.8,4.1,4.2c0.1,1.9,0,3.8,0,5.7
		C264,164.3,264,171.9,264,179.5z"/>
	<path class="st4" d="M264,235.5c0,3.5,0,7.1,0,10.6c0,3.1-1.5,4.9-4.1,5c-2.7,0.1-4.5-1.7-4.5-4.9c-0.1-7.1-0.1-14.1,0-21.2
		c0-3.3,1.7-5.1,4.4-5c2.7,0.1,4.2,1.9,4.2,5.2C264,228.7,264,232.1,264,235.5z"/>
	<path class="st4" d="M184.4,199c15.6-0.9,31.4,11.2,35.5,27.4c0.7,2.8,1.2,5.7,1.2,8.6c0,5.7,0,11.4,0,17.1c0,0.9,0.5,2.1-1.2,2.1
		c-11.8-0.2-23.6,0.3-35.5-0.2c0-4.6,0.1-9.2,0.1-13.8C184.5,226.4,184.4,212.7,184.4,199z"/>
	<path class="st5" d="M184.4,199c0,13.7,0.1,27.4,0.1,41.1c0,4.6-0.1,9.2-0.1,13.8c-0.7,0.1-1.4,0.3-2.1,0.3
		c-10.8,0-21.5,0-32.3,0.1c-1.9,0-2.5-0.5-2.4-2.4c0.3-7.8-0.6-15.6,0.7-23.3c2.9-16.5,18.4-29.6,34.8-29.6
		C183.5,198.8,183.9,198.9,184.4,199z"/>
	<path class="st4" d="M184.4,141.9c11-0.5,20.8,9.2,20.7,20.5c0,11.4-9.7,21-20.8,20.5C184.4,169.3,184.4,155.6,184.4,141.9z"/>
	<path class="st5" d="M184.4,141.9c0,13.7,0,27.4,0,41c-10.4,0.9-20.1-8.2-20.8-19.5C162.8,151.8,173.2,141.1,184.4,141.9z"/>
</g>
</svg>
