<?xml version="1.0" encoding="utf-8"?>
<!-- Generator: Adobe Illustrator 23.0.3, SVG Export Plug-In . SVG Version: 6.00 Build 0)  -->
<svg version="1.1" id="Calque_1" xmlns="http://www.w3.org/2000/svg" xmlns:xlink="http://www.w3.org/1999/xlink" x="0px" y="0px"
	 viewBox="0 0 339.1 278.7" style="enable-background:new 0 0 339.1 278.7;" xml:space="preserve">
<style type="text/css">
	.st0{fill:#FBA819;}
	.st1{fill:#664E1A;}
	.st2{clip-path:url(#SVGID_2_);}
	.st3{opacity:0.2;fill:#1D1D1B;}
	.st4{fill:#A61D28;}
	.st5{fill:#0E803D;}
	.st6{fill:#070000;}
	.st7{fill:#BF202F;}
	.st8{fill:#0E9648;}
</style>
<g>
	<g>
		<g>
			<path class="st0" d="M268,99.8H72.1c-16,0-29.2,13.6-29.2,30.3v106.3l12.9,15l16.8-19.4l16.8,19.4l16.8-19.4l16.8,19.4l16.8-19.4
				l16.8,19.4l16.8-19.4l16.8,19.4l13.7-15.9v-65.7c0-4.9,3.9-8.9,8.6-8.9h41.1c4.7,0,8.6,4,8.6,8.9v75.8l11.8-13.6l16.8,19.4
				l6.5-7.5V130.1C297.1,113.5,284,99.8,268,99.8z M79.4,169.4c0-4.9,3.9-8.9,8.6-8.9h42.5c4.7,0,8.6,4,8.6,8.9v37.5
				c0,4.9-3.9,8.9-8.6,8.9H88c-4.7,0-8.6-4-8.6-8.9V169.4z"/>
		</g>
		<g>
			<g>
				<path d="M268,100.2c-29.1,0-58.1,0.4-87.2,1l-43.6,0.9l-21.8,0.4l-21.8,0.3L71.7,103c-6.5,0.1-12.8,2.8-17.4,7.4
					c-4.7,4.6-7.6,10.8-8.2,17.3l-0.1,2.5l0,2.7l0,5.5l-0.1,10.9l-1.4,87.2l-0.4-1c4.2,5.1,8.5,10.1,12.8,15.1l-1.9,0l8.5-9.6
					l8.4-9.7l0.8-1l0.8,1l8.4,9.7l8.4,9.7h-1.6c5.6-6.5,11.2-12.9,16.7-19.5l0.9-1l0.9,1c5.6,6.4,11.3,12.9,17,19.2l-2.2,0
					l16.5-19.6l1.3-1.5l1.4,1.5l17,19.1l-3.2,0l16.5-19.6l1.8-2.2l1.9,2.2l17,19.2l-4.3,0l13.6-16l-0.7,2l-0.3-52.5l-0.1-13.1
					c0-3,1.1-6,3.1-8.3c2-2.3,4.9-3.9,8-4.1l0.6,0c0.2,0,0.4,0,0.5,0l0.8,0l1.6,0l3.3,0l6.6,0l13.1-0.1l13.1-0.1l1.6,0
					c0.3,0,0.5,0,0.9,0c0.4,0,0.8,0,1.2,0.1c1.6,0.2,3.1,0.7,4.5,1.4c2.8,1.5,4.8,4.1,5.8,7c0.2,0.7,0.4,1.5,0.5,2.2
					c0.1,0.4,0.1,0.8,0.1,1.1c0,0.4,0,0.8,0,1l0,3.3l0,6.6l0,13.1c0,17.5-0.1,35-0.2,52.5l-6.2-2.3c4-4.5,7.9-9.1,11.9-13.6l2.6-3
					l2.5,3l8.3,9.8c2.8,3.3,5.5,6.5,8.3,9.8l-4.7,0l6.6-7.4l-0.7,1.9c0.2-13.4,0.5-26.7,0.8-40.1l0.9-40.1l0.4-20.1l0.2-10
					c0.1-3.4,0.1-6.6-0.6-9.9c-1.3-6.4-4.7-12.4-9.7-16.7C281.1,102.7,274.6,100.3,268,100.2z M268,99.5c6.8,0,13.5,2.5,18.7,6.9
					c2.6,2.2,4.8,4.8,6.5,7.7c1.7,2.9,3.1,6.1,3.8,9.4c0.8,3.3,0.8,6.8,0.8,10.1l0.2,10l0.4,20.1l0.9,40.1
					c0.3,13.4,0.6,26.7,0.8,40.1l0,1.1l-0.7,0.9l-6.4,7.6l-2.3,2.7l-2.5-2.7c-2.9-3.2-5.7-6.4-8.5-9.6l-8.5-9.6l5.2,0
					c-3.9,4.6-7.8,9.2-11.7,13.7l-6.2,7.2l0-9.5c-0.1-17.5-0.2-35-0.2-52.5l0-13.1l0-6.6l0-3.3c0-0.3,0-0.4,0-0.6c0-0.2,0-0.3,0-0.5
					c0-0.3-0.1-0.6-0.2-0.9c-0.4-1.2-1.3-2.3-2.4-2.9c-0.5-0.3-1.1-0.5-1.7-0.6l-0.5,0c-0.2,0-0.5,0-0.8,0l-1.6,0l-13.1-0.1l-26-0.1
					c-1.3,0.1-2.5,0.7-3.4,1.7c-0.9,1-1.4,2.3-1.4,3.7l-0.1,13.1l-0.3,52.5l0,1.1l-0.7,0.8l-13.9,15.7l-2.2,2.5l-2.1-2.5l-16.5-19.6
					h3.8l-17.1,19.1l-1.6,1.8l-1.5-1.8l-16.5-19.6l2.7,0l-17,19.2l-1.1,1.2l-1-1.2c-5.5-6.5-11.1-13-16.6-19.5l1.8,0
					c-5.6,6.4-11.2,12.9-16.8,19.3l-0.8,0.9l-0.8-0.9l-8.4-9.7l-8.4-9.7l1.7,0l-8.4,9.7l-8.3,9.8l-0.9,1.1l-1-1.1
					c-4.4-4.9-8.7-9.9-13.1-14.8l-0.3-0.4l0-0.6l-1.4-87.2L40,138.4l0-5.5l0-2.7l0.1-3c0.6-8,4.2-15.7,9.9-21.3
					c5.7-5.6,13.6-9.2,21.7-9.2l21.8,0.1l21.8,0.3l21.8,0.4l43.6,0.9C209.8,99.1,238.9,99.5,268,99.5z"/>
				<path d="M79,169.4c0-2.3,0.8-4.6,2.4-6.4c1.5-1.8,3.7-3.1,6.2-3.4c4.6-0.4,9-0.9,13.5-1.4c9-0.9,17.9-1.1,26.9-0.7
					c0.6,0,1.1,0.1,1.7,0.1l0.9,0.1l1.1,0.1c1.5,0.2,2.9,0.8,4.1,1.6c2.4,1.6,4.1,4,4.7,6.7c0.2,0.7,0.3,1.3,0.3,2
					c0,0.7,0,1.4,0,1.9l-0.2,3.4c-0.1,2.2-0.2,4.5-0.3,6.7c-0.2,9,0.1,17.9,0.8,26.9c0.2,2.7-0.7,5.5-2.5,7.7
					c-0.9,1.1-2,2.1-3.3,2.8c-1.3,0.7-2.8,1.1-4.3,1.2c-0.4,0-0.7,0.1-1,0.1l-0.8,0l-1.7,0.1L124,219l-6.7,0.2
					c-9,0.3-17.9,0.5-26.9,0.4l-1.7,0l-0.9,0l-1.2-0.1c-1.6-0.2-3.2-0.7-4.6-1.5c-2.8-1.6-4.8-4.3-5.6-7.2c-0.2-0.7-0.3-1.5-0.4-2.3
					c-0.1-0.7,0-1.6,0-2.1l0.2-3.4c0.2-2.2,0.4-4.5,0.6-6.7c0.5-4.5,1-9,1.4-13.4C78.8,178.4,79,173.9,79,169.4z M79.7,169.4
					c0,4.5,0.2,9,0.6,13.4c0.4,4.5,0.9,9,1.4,13.4c0.2,2.2,0.5,4.5,0.6,6.7l0.2,3.4c0,0.6,0.1,0.9,0.1,1.3c0.1,0.4,0.2,0.7,0.3,1
					c0.5,1.3,1.5,2.4,2.6,3c0.6,0.3,1.2,0.4,1.8,0.5c0.2,0,0.3,0,0.5,0l0.8,0l1.7,0c9-0.1,17.9,0.2,26.9,0.4l6.7,0.2l3.4,0.1
					l3.2,0.1c1.5,0.1,3-0.5,4.3-1.6c1.2-1.1,2.1-2.7,2.2-4.5c0.6-9,1-17.9,0.8-26.9c-0.1-2.2-0.2-4.5-0.3-6.7l-0.2-3.4
					c0-0.6-0.1-1-0.2-1.5c-0.1-0.4-0.2-0.9-0.4-1.3c-0.7-1.6-2-2.9-3.5-3.5c-0.7-0.3-1.5-0.5-2.3-0.5l-3.1,0.2
					c-9,0.5-17.9,0.3-26.9-0.7l-6.7-0.7c-2.2-0.2-4.5-0.5-6.7-0.6c-2-0.1-4.1,0.7-5.6,2.2C80.6,165.1,79.7,167.2,79.7,169.4z"/>
			</g>
		</g>
	</g>
	<g>
		<path class="st1" d="M297.1,243.9v0.8c0,16.7-13.1,30.3-29.2,30.3H262v-29.4l11.8-13.6l16.8,19.4L297.1,243.9z"/>
		<path d="M297.2,243.7c0,0.1,0.1,0.3,0.2,0.5c0.1,0.2,0.1,0.4,0.1,0.6l0.1,0.9l0.1,1.8c0.1,0.6,0,1.2,0,1.8l-0.1,1.8
			c-0.1,0.6-0.2,1.2-0.3,1.8c-0.1,0.6-0.2,1.2-0.3,1.8c-0.1,0.6-0.3,1.2-0.5,1.7c-0.2,0.6-0.3,1.2-0.6,1.7c-1.7,4.5-4.4,8.6-8,11.8
			c-3.6,3.2-8.1,5.2-12.6,6c-0.6,0.1-1.1,0.2-1.7,0.3l-1.7,0.1c-1.1,0.1-2.3,0-3.4,0c-2.2-0.1-4.4-0.2-6.6-0.2l-0.8,0l0-0.8
			c0-4.9-0.2-9.8-0.6-14.7c-0.2-2.4-0.4-4.9-0.6-7.3c-0.2-2.4-0.3-4.9-0.4-7.3l0-0.8l0.6-0.8c1.9-2.3,3.8-4.7,5.7-7
			c1-1.2,1.9-2.3,2.9-3.5c1-1.2,1.9-2.3,2.9-3.4l2-2.3l2,2.3c1.4,1.6,2.8,3.3,4.1,4.9c1.4,1.7,2.7,3.3,4,5c1.3,1.7,2.6,3.4,3.9,5.1
			c1.3,1.7,2.6,3.5,3.8,5.2l-2.1,0c1.3-1.3,2.8-2.6,4.1-3.7C295,245.7,296.2,244.7,297.2,243.7z M297,244.2c-1.1,1.5-2.1,3-2.9,4.4
			c-0.8,1.4-1.6,2.6-2.4,3.8l-0.8,1.2l-1.3-1.2c-1.5-1.5-3.1-3-4.6-4.5c-1.5-1.5-3-3-4.5-4.6c-1.5-1.6-3-3.1-4.4-4.7
			c-1.5-1.6-2.9-3.2-4.3-4.8l4,0c-1,1.1-2,2.3-3,3.4c-1,1.1-2,2.2-3,3.3c-2,2.2-4.1,4.4-6.1,6.6l0.6-1.6c-0.1,2.4-0.2,4.9-0.4,7.3
			c-0.2,2.4-0.4,4.9-0.6,7.3c-0.4,4.9-0.7,9.8-0.6,14.7l-0.8-0.8c2.2,0,4.4-0.1,6.5-0.3l1.6-0.2c0.5-0.1,1-0.2,1.5-0.3l1.5-0.4
			c0.5-0.1,1-0.4,1.5-0.5l1.5-0.6c0.5-0.2,0.9-0.5,1.4-0.7c0.9-0.4,1.8-1,2.7-1.5c0.5-0.2,0.9-0.5,1.3-0.8c0.4-0.3,0.8-0.6,1.3-0.9
			c0.8-0.6,1.6-1.2,2.4-1.9c3.1-2.7,5.7-6,7.7-9.7c0.1-0.2,0.3-0.5,0.4-0.7l0.3-0.7c0.2-0.5,0.4-1,0.7-1.5c0.4-1,0.7-2,1.1-3.1
			c0.3-1.1,0.6-2.1,0.8-3.2l0.3-1.7l0.2-0.8c0-0.1,0.1-0.1,0.1-0.2C296.9,244.5,297,244.3,297,244.2z"/>
	</g>
	<g>
		<path class="st1" d="M203.7,235.6v39.5H72.1c-16,0-29.2-13.6-29.2-30.3v-8.3l12.9,15l16.8-19.4l16.8,19.4l16.8-19.4l16.8,19.4
			l16.8-19.4l16.8,19.4l16.8-19.4l16.8,19.4L203.7,235.6z"/>
		<path d="M203.8,235.3c0.1,6.3,0.5,12.7,0.8,19.4c0.2,3.3,0.3,6.7,0.4,10.1c0.1,3.4,0.2,6.8,0.3,10.2l0,1.6l-1.6,0
			c-7.7,0.2-15.4,0.3-23.2,0.4l-11.6,0.2l-11.6,0.1c-7.7,0.1-15.4,0.1-23.2,0l-11.6-0.2l-11.6-0.3l-23.2-0.6
			c-3.9-0.1-7.7-0.2-11.6-0.2l-2.9,0c-0.5,0-1,0-1.5,0l-1.5-0.1l-1.5-0.1l-1.5-0.2l-1.5-0.2l-1.4-0.4c-7.7-2.1-14.4-7.5-18.5-14.6
			c-2-3.5-3.4-7.5-3.9-11.6c-0.3-2.1-0.3-4.2-0.4-6.1l-0.1-6l-0.1-3.2l2.2,2.4l13.3,14.7l-2.4,0l8.2-9.9l8.2-9.8l1.5-1.8l1.6,1.8
			l8.5,9.6l8.5,9.6h-3.5l16.6-19.5l1.9-2.2l2,2.2c2.8,3.2,5.6,6.4,8.4,9.6l8.4,9.7l-4,0c2.8-3.2,5.6-6.4,8.4-9.6l8.4-9.6l1.9-2.2
			l1.9,2.2c2.8,3.2,5.5,6.5,8.3,9.8l8.3,9.8l-3.3,0c5.7-6.3,11.4-12.7,17.1-19l1.3-1.5l1.2,1.5l8.2,9.9c2.7,3.3,5.4,6.6,8.1,10
			l-1.5,0c2.5-2.7,5-5.3,7.5-7.9C199.2,240.3,201.5,237.8,203.8,235.3z M203.6,235.8c-2.3,2.8-4.5,5.6-6.6,8.4
			c-2.1,2.7-4.2,5.4-6.3,8l-0.7,0.9l-0.8-0.9c-2.9-3.1-5.8-6.3-8.7-9.4l-8.6-9.5h2.5c-5.4,6.6-10.9,13.2-16.4,19.7l-1.6,1.9
			l-1.7-1.9l-8.5-9.6c-2.8-3.2-5.7-6.4-8.5-9.6l3.8,0l-8.3,9.8c-2.8,3.2-5.5,6.5-8.3,9.7l-2,2.3l-2-2.3l-8.4-9.7
			c-2.8-3.2-5.6-6.5-8.3-9.7l3.9,0l-16.9,19.2l-1.8,2.1l-1.7-2.1l-8.3-9.8l-8.3-9.8l3.2,0l-8.5,9.5l-8.6,9.5l-1.3,1.4l-1.2-1.4
			L42,237.3l2.1-0.8l-0.1,6c-0.1,2-0.1,4,0.1,5.9c0.4,3.9,1.6,7.6,3.4,11c1.8,3.4,4.4,6.4,7.4,8.8c3,2.4,6.4,4.1,10.1,5.1l1.4,0.4
			l1.4,0.2l1.4,0.2c0.5,0,0.9,0,1.4,0.1l1.4,0.1c0.5,0,1,0,1.4,0l2.9,0c3.9,0,7.7-0.1,11.6-0.2l23.2-0.6l11.6-0.3l11.6-0.2
			c7.7-0.1,15.4-0.1,23.2,0l11.6,0.1l11.6,0.2c7.7,0.1,15.4,0.3,23.2,0.4l-1.6,1.6c0.1-3.2,0.2-6.3,0.3-9.5c0.1-3.2,0.3-6.4,0.4-9.6
			C203.2,249.4,203.5,242.7,203.6,235.8z"/>
	</g>
	<g>
		<defs>
			<path id="SVGID_1_" d="M297.1,116.7H42.9v144.9c0,16.7,13.1,30.3,29.2,30.3h131.7V186.8c0-4.9,3.9-8.9,8.6-8.9h41.1
				c4.7,0,8.6,4,8.6,8.9V292h5.9c16,0,29.2-13.6,29.2-30.3V116.7z M139,207.4c0,4.9-3.9,8.9-8.6,8.9H88c-4.7,0-8.6-4-8.6-8.9v-37.5
				c0-4.9,3.9-8.9,8.6-8.9h42.5c4.7,0,8.6,4,8.6,8.9V207.4z"/>
		</defs>
		<clipPath id="SVGID_2_">
			<use xlink:href="#SVGID_1_"  style="overflow:visible;"/>
		</clipPath>
		<g class="st2">
			<ellipse class="st3" cx="42.8" cy="127.2" rx="25.2" ry="26.2"/>
			<ellipse class="st3" cx="93.2" cy="127.2" rx="25.2" ry="26.2"/>
			<ellipse class="st3" cx="143.7" cy="127.2" rx="25.2" ry="26.2"/>
			<ellipse class="st3" cx="194.1" cy="127.2" rx="25.2" ry="26.2"/>
			<ellipse class="st3" cx="244.5" cy="127.2" rx="25.2" ry="26.2"/>
			<ellipse class="st3" cx="294.9" cy="127.2" rx="25.2" ry="26.2"/>
		</g>
		<polygon class="st2" points="55.9,251.4 39.1,232.1 22.3,251.4 4.2,230.5 6.9,228 22.3,245.9 39.1,226.5 55.9,245.9 72.6,226.5 
			89.4,245.9 106.2,226.5 122.9,245.9 139.7,226.5 156.5,245.9 173.2,226.5 190,245.9 206.8,226.5 223.5,245.9 240.3,226.5 
			257.1,245.9 273.8,226.5 290.6,245.9 307.4,226.5 324.2,245.9 340.9,226.5 359,247.4 356.4,249.9 340.9,232.1 324.2,251.4 
			307.4,232.1 290.6,251.4 273.8,232.1 257.1,251.4 240.3,232.1 223.5,251.4 206.8,232.1 190,251.4 173.2,232.1 156.5,251.4 
			139.7,232.1 122.9,251.4 106.2,232.1 89.4,251.4 72.6,232.1 		"/>
	</g>
	<g>
		<ellipse class="st4" cx="30.5" cy="112.5" rx="27.9" ry="29"/>
		<path d="M58.6,112.5c0,3.8-0.6,7.7-1.8,11.4c-1.2,3.7-3,7.3-5.5,10.3c-2.5,3.1-5.7,5.6-9.3,7.3c-3.6,1.7-7.6,2.4-11.5,2.3
			c-3.9-0.2-7.8-1.3-11.2-3.1c-3.5-1.8-6.5-4.2-9.1-7c-5.2-5.6-8.5-13.1-9-21.1c-0.2-4,0.3-8.1,1.6-11.9c1.3-3.8,3.5-7.4,6.2-10.4
			c2.7-3,6.1-5.4,9.7-7.1c3.7-1.7,7.7-2.5,11.7-2.5c4,0.1,8,0.9,11.6,2.7c3.6,1.7,6.8,4.3,9.3,7.4c2.5,3.1,4.3,6.7,5.5,10.4
			C58.1,104.8,58.7,108.7,58.6,112.5z M58.1,112.5c0-3.8-0.9-7.5-2.5-10.8c-1.6-3.3-3.9-6.2-6.6-8.5c-2.7-2.3-5.7-4-8.8-5.2
			c-3.1-1.2-6.4-1.8-9.8-1.8c-3.3,0-6.6,0.7-9.7,1.9c-3.1,1.2-6,3.1-8.4,5.5C9.9,96.1,8,99,6.5,102.2c-1.4,3.2-2.4,6.7-2.6,10.3
			c-0.2,3.6,0.3,7.3,1.5,10.8c1.2,3.5,3.3,6.6,5.8,9.2c2.6,2.6,5.7,4.4,9,5.6c3.3,1.1,6.8,1.5,10.2,1.4c6.8-0.4,13.3-2.9,18.6-7.5
			c2.7-2.3,5-5.2,6.6-8.5C57.3,120,58.2,116.3,58.1,112.5z"/>
	</g>
	<g>
		<ellipse class="st5" cx="86.3" cy="112.5" rx="27.9" ry="29"/>
		<path class="st6" d="M114.5,112.5c0,3.8-0.6,7.7-1.8,11.4c-1.2,3.7-3,7.3-5.5,10.3c-2.5,3.1-5.7,5.6-9.3,7.3
			c-3.6,1.7-7.6,2.4-11.5,2.3c-3.9-0.2-7.8-1.3-11.2-3.1c-3.5-1.8-6.5-4.2-9.1-7c-5.2-5.6-8.5-13.1-9-21.1c-0.2-4,0.3-8.1,1.6-11.9
			c1.3-3.8,3.5-7.4,6.2-10.4c2.7-3,6.1-5.4,9.7-7.1c3.7-1.7,7.7-2.5,11.7-2.5c4,0.1,8,0.9,11.6,2.7c3.6,1.7,6.8,4.3,9.3,7.4
			c2.5,3.1,4.3,6.7,5.5,10.4C114,104.8,114.5,108.7,114.5,112.5z M114,112.5c0-3.8-0.9-7.5-2.5-10.8c-1.6-3.3-3.9-6.2-6.6-8.5
			c-2.7-2.3-5.7-4-8.8-5.2c-3.1-1.2-6.4-1.8-9.8-1.8c-3.3,0-6.6,0.7-9.7,1.9c-3.1,1.2-6,3.1-8.4,5.5c-2.4,2.4-4.4,5.3-5.9,8.5
			c-1.4,3.2-2.4,6.7-2.6,10.3c-0.2,3.6,0.3,7.3,1.5,10.8c1.2,3.5,3.3,6.6,5.8,9.2c2.6,2.6,5.7,4.4,9,5.6c3.3,1.1,6.8,1.5,10.2,1.4
			c6.8-0.4,13.3-2.9,18.6-7.5c2.7-2.3,5-5.2,6.6-8.5C113.2,120,114,116.3,114,112.5z"/>
	</g>
	<g>
		<ellipse class="st4" cx="142.2" cy="112.5" rx="27.9" ry="29"/>
		<path d="M170.4,112.5c0,3.8-0.6,7.7-1.8,11.4c-1.2,3.7-3,7.3-5.5,10.3c-2.5,3.1-5.7,5.6-9.3,7.3c-3.6,1.7-7.6,2.4-11.5,2.3
			c-3.9-0.2-7.8-1.3-11.2-3.1c-3.5-1.8-6.5-4.2-9.1-7c-5.2-5.6-8.5-13.1-9-21.1c-0.2-4,0.3-8.1,1.6-11.9c1.3-3.8,3.5-7.4,6.2-10.4
			c2.7-3,6.1-5.4,9.7-7.1c3.7-1.7,7.7-2.5,11.7-2.5c4,0.1,8,0.9,11.6,2.7c3.6,1.7,6.8,4.3,9.3,7.4c2.5,3.1,4.3,6.7,5.5,10.4
			C169.8,104.8,170.4,108.7,170.4,112.5z M169.9,112.5c0-3.8-0.9-7.5-2.5-10.8c-1.6-3.3-3.9-6.2-6.6-8.5c-2.7-2.3-5.7-4-8.8-5.2
			c-3.1-1.2-6.4-1.8-9.8-1.8c-3.3,0-6.6,0.7-9.7,1.9c-3.1,1.2-6,3.1-8.4,5.5c-2.4,2.4-4.4,5.3-5.9,8.5c-1.4,3.2-2.4,6.7-2.6,10.3
			c-0.2,3.6,0.3,7.3,1.5,10.8c1.2,3.5,3.3,6.6,5.8,9.2c2.6,2.6,5.7,4.4,9,5.6c3.3,1.1,6.8,1.5,10.2,1.4c6.8-0.4,13.3-2.9,18.6-7.5
			c2.7-2.3,5-5.2,6.6-8.5C169.1,120,169.9,116.3,169.9,112.5z"/>
	</g>
	<g>
		<ellipse class="st5" cx="198.1" cy="112.5" rx="27.9" ry="29"/>
		<path class="st6" d="M226.3,112.5c0,3.8-0.6,7.7-1.8,11.4c-1.2,3.7-3,7.3-5.5,10.3c-2.5,3.1-5.7,5.6-9.3,7.3
			c-3.6,1.7-7.6,2.4-11.5,2.3c-3.9-0.2-7.8-1.3-11.2-3.1c-3.5-1.8-6.5-4.2-9.1-7c-5.2-5.6-8.5-13.1-9-21.1c-0.2-4,0.3-8.1,1.6-11.9
			c1.3-3.8,3.5-7.4,6.2-10.4c2.7-3,6.1-5.4,9.7-7.1c3.7-1.7,7.7-2.5,11.7-2.5c4,0.1,8,0.9,11.6,2.7c3.6,1.7,6.8,4.3,9.3,7.4
			c2.5,3.1,4.3,6.7,5.5,10.4C225.7,104.8,226.3,108.7,226.3,112.5z M225.8,112.5c0-3.8-0.9-7.5-2.5-10.8c-1.6-3.3-3.9-6.2-6.6-8.5
			c-2.7-2.3-5.7-4-8.8-5.2c-3.1-1.2-6.4-1.8-9.8-1.8c-3.3,0-6.6,0.7-9.7,1.9c-3.1,1.2-6,3.1-8.4,5.5c-2.4,2.4-4.4,5.3-5.9,8.5
			c-1.4,3.2-2.4,6.7-2.6,10.3c-0.2,3.6,0.3,7.3,1.5,10.8c1.2,3.5,3.3,6.6,5.8,9.2c2.6,2.6,5.7,4.4,9,5.6c3.3,1.1,6.8,1.5,10.2,1.4
			c6.8-0.4,13.3-2.9,18.6-7.5c2.7-2.3,5-5.2,6.6-8.5C224.9,120,225.8,116.3,225.8,112.5z"/>
	</g>
	<g>
		<ellipse class="st4" cx="254" cy="112.5" rx="27.9" ry="29"/>
		<path d="M282.2,112.5c0,3.8-0.6,7.7-1.8,11.4c-1.2,3.7-3,7.3-5.5,10.3c-2.5,3.1-5.7,5.6-9.3,7.3c-3.6,1.7-7.6,2.4-11.5,2.3
			c-3.9-0.2-7.8-1.3-11.2-3.1c-3.5-1.8-6.5-4.2-9.1-7c-5.2-5.6-8.5-13.1-9-21.1c-0.2-4,0.3-8.1,1.6-11.9c1.3-3.8,3.5-7.4,6.2-10.4
			c2.7-3,6.1-5.4,9.7-7.1c3.7-1.7,7.7-2.5,11.7-2.5c4,0.1,8,0.9,11.6,2.7c3.6,1.7,6.8,4.3,9.3,7.4c2.5,3.1,4.3,6.7,5.5,10.4
			C281.6,104.8,282.2,108.7,282.2,112.5z M281.7,112.5c0-3.8-0.9-7.5-2.5-10.8c-1.6-3.3-3.9-6.2-6.6-8.5c-2.7-2.3-5.7-4-8.8-5.2
			c-3.1-1.2-6.4-1.8-9.8-1.8c-3.3,0-6.6,0.7-9.7,1.9c-3.1,1.2-6,3.1-8.4,5.5c-2.4,2.4-4.4,5.3-5.9,8.5c-1.4,3.2-2.4,6.7-2.6,10.3
			c-0.2,3.6,0.3,7.3,1.5,10.8c1.2,3.5,3.3,6.6,5.8,9.2c2.6,2.6,5.7,4.4,9,5.6c3.3,1.1,6.8,1.5,10.2,1.4c6.8-0.4,13.3-2.9,18.6-7.5
			c2.7-2.3,5-5.2,6.6-8.5C280.8,120,281.7,116.3,281.7,112.5z"/>
	</g>
	<g>
		<ellipse class="st5" cx="309.9" cy="112.5" rx="27.9" ry="29"/>
		<path class="st6" d="M338.1,112.5c0,3.8-0.6,7.7-1.8,11.4c-1.2,3.7-3,7.3-5.5,10.3c-2.5,3.1-5.7,5.6-9.3,7.3
			c-3.6,1.7-7.6,2.4-11.5,2.3c-3.9-0.2-7.8-1.3-11.2-3.1c-3.5-1.8-6.5-4.2-9.1-7c-5.2-5.6-8.5-13.1-9-21.1c-0.2-4,0.3-8.1,1.6-11.9
			c1.3-3.8,3.5-7.4,6.2-10.4c2.7-3,6.1-5.4,9.7-7.1c3.7-1.7,7.7-2.5,11.7-2.5c4,0.1,8,0.9,11.6,2.7c3.6,1.7,6.8,4.3,9.3,7.4
			c2.5,3.1,4.3,6.7,5.5,10.4C337.5,104.8,338.1,108.7,338.1,112.5z M337.6,112.5c0-3.8-0.9-7.5-2.5-10.8c-1.6-3.3-3.9-6.2-6.6-8.5
			c-2.7-2.3-5.7-4-8.8-5.2c-3.1-1.2-6.4-1.8-9.8-1.8c-3.3,0-6.6,0.7-9.7,1.9c-3.1,1.2-6,3.1-8.4,5.5c-2.4,2.4-4.4,5.3-5.9,8.5
			c-1.4,3.2-2.4,6.7-2.6,10.3c-0.2,3.6,0.3,7.3,1.5,10.8c1.2,3.5,3.3,6.6,5.8,9.2c2.6,2.6,5.7,4.4,9,5.6c3.3,1.1,6.8,1.5,10.2,1.4
			c6.8-0.4,13.3-2.9,18.6-7.5c2.7-2.3,5-5.2,6.6-8.5C336.7,120,337.6,116.3,337.6,112.5z"/>
	</g>
	<g>
		<g>
			<polygon class="st7" points="58.4,112.5 2.5,112.5 58.4,2.6 95.7,2.6 			"/>
			<path d="M58.4,112.5l-27.7,0.9l-14.1,0.4l-14.2,0.3L0,114.2l1.2-2.4c4.5-9.3,9-18.5,13.5-27.7c4.5-9.2,9.1-18.4,13.7-27.6
				c4.6-9.2,9.2-18.4,13.8-27.5l6.9-13.8l7-13.7l0.7-1.4l1.5,0L77,0.1c6.2,0,12.4,0.1,18.6,0.1l3.3,0l-1.1,3.1
				c-3.2,9.2-6.4,18.5-9.7,27.7c-3.3,9.2-6.5,18.4-9.8,27.5l-4.9,13.6l-5,13.5C65,94.7,61.7,103.7,58.4,112.5z M58.4,112.5l8.7-28.1
				l4.3-13.9l4.4-13.8c2.9-9.2,5.9-18.3,8.8-27.5c2.9-9.1,5.9-18.2,8.9-27.3L95.7,5C89.4,5.1,83.2,5.2,77,5.2L58.4,5.2l2.2-1.4
				l-7,13.7l-7,13.7c-4.7,9.1-9.3,18.3-14.1,27.4c-4.7,9.1-9.4,18.2-14.2,27.3c-4.8,9.1-9.5,18.2-14.4,27.2l-1.4-2.3l13.8,0.3
				l13.9,0.4L58.4,112.5z"/>
		</g>
		<g>
			<polygon class="st8" points="114.3,112.5 58.4,112.5 95.7,2.6 132.9,2.6 			"/>
			<path class="st6" d="M114.3,112.5l-27.6,0.9l-14.1,0.4l-14.2,0.3l-2.2,0l0.7-2.2c2.9-9.2,5.9-18.4,8.9-27.6c3-9.2,6-18.4,9-27.6
				c3-9.2,6.1-18.3,9.2-27.5c3.1-9.2,6.1-18.3,9.3-27.5l0.6-1.7l1.7,0l18.6,0.1c6.2,0,12.4,0.1,18.6,0.1l2.7,0l-0.5,2.8
				c-1.7,9.3-3.3,18.5-5,27.8c-1.7,9.2-3.4,18.4-5.2,27.6l-2.6,13.7l-2.7,13.6L114.3,112.5z M114.3,112.5l4-28.1l2-13.9l2-13.8
				c1.3-9.2,2.7-18.3,4.1-27.4c1.4-9.1,2.8-18.1,4.3-27.2l2.3,2.8c-6.2,0.1-12.4,0.1-18.6,0.1L95.7,5.2L98,3.5
				c-3.1,9.2-6.2,18.3-9.3,27.5c-3.1,9.1-6.2,18.3-9.4,27.4c-3.2,9.1-6.3,18.3-9.6,27.4c-3.3,9.1-6.4,18.2-9.7,27.3l-1.5-2.2
				l13.8,0.3l13.9,0.4L114.3,112.5z"/>
		</g>
		<g>
			<polygon class="st7" points="170.2,112.5 114.3,112.5 132.9,2.6 170.2,2.6 			"/>
			<path d="M170.3,112.7c-4.4,0.3-8.9,0.5-13.5,0.8l-6.9,0.3c-2.3,0.1-4.7,0.2-7,0.3l-7.1,0.3l-7.1,0.2c-4.8,0.1-9.6,0.2-14.3,0.2
				l-2.6,0l0.4-2.7c1.4-9.2,3.1-18.3,5-27.4c1.9-9.1,3.9-18.2,5.6-27.3c1.8-9.1,3.3-18.3,4.7-27.5c1.4-9.2,2.6-18.4,3.8-27.6
				l0.2-1.4l1.5-0.1c3.1-0.1,6.2-0.2,9.3-0.3c3.1-0.1,6.2-0.1,9.3-0.2L170.2,0l2.5,0l0,2.6c0.1,9.3,0.2,18.7,0.1,28
				c-0.1,9.3-0.2,18.6-0.5,27.9c-0.1,4.6-0.2,9.2-0.4,13.8L171.5,86C171.1,95,170.8,104,170.3,112.7z M170,112.3
				c-0.4-9.6-0.8-18.9-1.1-28.2l-0.5-13.8c-0.1-4.6-0.3-9.1-0.4-13.7c-0.2-9.1-0.4-18.1-0.5-27.1c-0.1-9,0-17.9,0.1-26.9l2.5,2.6
				L151.5,5c-3.1-0.1-6.2-0.1-9.3-0.2c-3.1-0.1-6.2-0.2-9.3-0.3l1.7-1.5c-1.9,9.1-3.8,18.2-5.5,27.3c-1.7,9.1-3.3,18.3-4.6,27.5
				c-1.4,9.2-2.4,18.4-3.7,27.6c-1.2,9.2-2.7,18.4-4.4,27.5l-2.2-2.7c4.5,0,9,0.1,13.6,0.2l6.8,0.2l6.9,0.3c2.3,0.1,4.6,0.2,6.9,0.3
				l7,0.3L170,112.3z"/>
		</g>
		<g>
			<polygon class="st8" points="226,112.5 170.2,112.5 170.2,2.6 207.4,2.6 			"/>
			<path class="st6" d="M226.2,112.7l-13.5,0.7l-6.9,0.3c-2.3,0.1-4.7,0.2-7,0.3l-7.1,0.3l-7.2,0.2c-4.8,0.1-9.6,0.2-14.4,0.2
				l-2.2,0l0-2.3c-0.1-9.2,0-18.3,0.3-27.5c0.3-9.2,0.8-18.3,1-27.5c0.3-9.2,0.2-18.3,0.1-27.5c-0.1-9.2-0.5-18.3-0.8-27.5L168.4,1
				l1.7-0.1c6.2-0.2,12.4-0.4,18.6-0.5l18.6-0.3l2.1,0l0.4,2.2c1.7,9.3,3.4,18.6,4.9,28c1.5,9.4,2.9,18.7,4.2,28l1,7l0.9,6.9
				l1.8,13.7C224,94.9,225.2,103.9,226.2,112.7z M225.8,112.3L220,84.3l-2.8-13.7l-1.4-6.8l-1.3-6.8c-1.8-9-3.5-18-5.1-26.9
				c-1.6-8.9-3-17.9-4.4-26.9l2.4,2.1l-18.6-0.3c-6.2-0.1-12.4-0.3-18.6-0.5l1.7-1.7c-0.3,9.2-0.7,18.3-0.8,27.5
				c-0.1,9.2-0.2,18.3,0.1,27.5c0.2,9.2,0.7,18.3,1,27.5c0.3,9.2,0.4,18.3,0.3,27.5l-2.2-2.3c4.5,0,9,0.1,13.6,0.2l6.8,0.2l6.9,0.3
				c2.3,0.1,4.6,0.2,6.9,0.3l7,0.3L225.8,112.3z"/>
		</g>
		<g>
			<polygon class="st7" points="281.9,112.5 226,112.5 207.4,2.6 244.7,2.6 			"/>
			<path d="M282.1,112.7l-13.4,0.7l-6.9,0.3c-2.3,0.1-4.7,0.2-7,0.3l-7.1,0.3l-7.2,0.2l-7.2,0.2l-7.2,0.1l-1.8,0l-0.4-1.9
				c-1.7-9.1-3.1-18.3-4.4-27.5c-1.3-9.2-2.4-18.4-3.7-27.6c-1.3-9.2-2.9-18.4-4.5-27.5c-1.7-9.1-3.6-18.2-5.4-27.3L205.4,1l2-0.1
				l9.3-0.3c3.1-0.1,6.2-0.2,9.3-0.2l18.6-0.3l1.7,0l0.6,1.7c3.3,9.3,6.6,18.6,9.7,28c3.1,9.4,6.1,18.8,9,28.1
				c1.5,4.7,2.9,9.3,4.3,14l4.2,13.8L282.1,112.7z M281.7,112.4l-10.6-28L266,70.7c-1.7-4.5-3.4-9-5-13.5c-3.3-9-6.5-17.9-9.6-26.8
				c-3.1-8.9-6-17.9-8.9-26.9l2.3,1.7L226,4.9c-3.1,0-6.2-0.2-9.3-0.2l-9.3-0.3l1.6-2c1.2,9.2,2.5,18.4,3.9,27.6
				c1.4,9.2,3,18.3,4.8,27.4c1.8,9.1,3.8,18.2,5.6,27.3c1.8,9.1,3.5,18.2,4.9,27.4l-2.2-1.9l6.8,0.1l6.8,0.2l6.8,0.2l6.9,0.3
				L281.7,112.4z"/>
		</g>
		<g>
			<polygon class="st8" points="337.8,112.5 281.9,112.5 244.7,2.6 281.9,2.6 			"/>
			<path class="st6" d="M338,112.6l-27.4,1.3c-4.7,0.2-9.5,0.4-14.3,0.5c-4.8,0.1-9.6,0.3-14.4,0.3l-1.5,0l-0.5-1.5
				c-3.2-9.1-6.3-18.3-9.2-27.5c-2.9-9.2-5.5-18.6-8.4-27.8c-2.9-9.2-5.9-18.4-9.1-27.5c-3.2-9.1-6.6-18.2-10-27.2l-0.8-2.1l2.3-0.1
				l9.3-0.3l9.3-0.2l18.6-0.3l1.4,0l0.7,1.4l7.3,13.9l3.6,7l3.6,7l3.5,7l3.4,7.1c2.3,4.7,4.6,9.4,6.8,14.1l6.6,14l6.5,13.9
				L338,112.6z M337.6,112.4l-15.3-27.8l-7.5-13.6l-7.3-13.4c-2.4-4.5-4.8-8.9-7.2-13.4l-3.5-6.7l-3.4-6.7l-3.4-6.7l-3.4-6.7
				l-6.7-13.5l2.1,1.3l-18.6-0.3L254,4.6l-9.3-0.3l1.5-2.2c2.8,9.3,5.6,18.5,8.6,27.7c3,9.2,6.1,18.3,9.5,27.4
				c3.4,9.1,6.9,18.1,10.3,27.1c3.3,9.1,6.5,18.2,9.5,27.4l-2.1-1.5c4.5,0,9,0.1,13.5,0.3c4.5,0.1,9.1,0.3,13.6,0.5l14,0.7
				L337.6,112.4z"/>
		</g>
	</g>
</g>
</svg>
