<?xml version="1.0" encoding="utf-8"?>
<!-- Generator: Adobe Illustrator 19.0.0, SVG Export Plug-In . SVG Version: 6.00 Build 0)  -->
<svg version="1.1" id="Calque_1" xmlns="http://www.w3.org/2000/svg" xmlns:xlink="http://www.w3.org/1999/xlink" x="0px" y="0px"
	 viewBox="0 0 339.1 278.7" style="enable-background:new 0 0 339.1 278.7;" xml:space="preserve">
<style type="text/css">
	.st0{fill:#BF202F;}
	.st1{fill:#0E9648;}
	.st2{fill:#070000;}
	.st3{fill:#FBA819;stroke:#000000;stroke-width:4;stroke-miterlimit:10;}
	.st4{fill:#664E1A;}
	.st5{fill:none;}
</style>
<g>
	<g>
		<path class="st0" d="M137.9,189c0,0-55.7,9.8-72.6,57.6c0,0,19.7,30.9,105.4,30.9s103.1-31.9,103.1-31.9s-6.5-47.6-71.2-56.7
			C137.9,179.9,137.9,189,137.9,189z"/>
		<path d="M138,189.3c-1.9,0.5-3.9,1.1-5.8,1.8c-1.9,0.6-3.8,1.3-5.6,2.1c-1.9,0.7-3.7,1.5-5.5,2.3c-1.8,0.8-3.6,1.6-5.4,2.5
			c-0.9,0.4-1.8,0.9-2.7,1.4c-0.9,0.4-1.8,0.9-2.6,1.4c-1.7,0.9-3.4,2-5.1,3l-2.5,1.6l-2.5,1.7c-1.6,1.1-3.2,2.3-4.7,3.5
			c-1.6,1.2-3,2.5-4.5,3.8l-2.2,2c-0.7,0.7-1.4,1.4-2.1,2.1l-1,1l-1,1.1c-0.6,0.7-1.3,1.4-2,2.2c-1.2,1.5-2.5,3-3.6,4.6
			c-1.2,1.5-2.2,3.2-3.3,4.8l-1.5,2.5l-0.7,1.2l-0.7,1.3c-0.4,0.9-0.9,1.7-1.3,2.6l-1.2,2.6c-0.2,0.4-0.4,0.9-0.6,1.3l-0.5,1.4
			l-1,2.7l-0.3-2.7l0.1,0.2l0.2,0.3l0.5,0.6l1,1.2c0.8,0.8,1.5,1.5,2.3,2.3c0.8,0.7,1.7,1.4,2.5,2.1l2.7,2c0.9,0.7,1.9,1.2,2.8,1.9
			c0.9,0.6,1.9,1.3,2.9,1.8c2,1.1,3.9,2.3,6,3.2c4,2.1,8.3,3.8,12.6,5.4l6.5,2.2c2.2,0.7,4.4,1.3,6.7,1.9l3.3,0.9
			c1.1,0.3,2.3,0.5,3.4,0.7l6.8,1.4c1.1,0.3,2.3,0.4,3.4,0.6l3.4,0.5c2.3,0.3,4.6,0.7,6.9,1c4.6,0.3,9.3,0.8,13.9,1l14,0.2
			c2.3,0,4.7-0.2,7-0.2c2.3-0.1,4.7-0.2,7-0.3c2.3-0.1,4.6-0.4,6.9-0.6l6.9-0.7l1.7-0.2l1.7-0.3l3.4-0.5l6.9-1.1l6.8-1.5l3.4-0.7
			c1.1-0.2,2.2-0.6,3.3-0.9l6.6-1.8l6.5-2.2c2.2-0.7,4.2-1.7,6.3-2.5c1-0.5,2.1-0.8,3.1-1.4l3-1.5c4.1-2,7.8-4.4,11.4-7l2.5-2.1
			c0.8-0.7,1.6-1.5,2.4-2.2c0.8-0.7,1.4-1.6,2.1-2.3l0.9-1.2c0.1-0.2,0.3-0.4,0.4-0.6l0.2-0.3l0.1-0.2l-0.4,2.2c0-0.2-0.1-0.7-0.2-1
			c-0.1-0.4-0.2-0.7-0.3-1.1c-0.2-0.8-0.4-1.5-0.6-2.3c-0.5-1.5-1-3-1.6-4.5c-1.2-3-2.7-5.8-4.3-8.6c-1.6-2.8-3.5-5.4-5.5-7.9
			c-2-2.5-4.3-4.8-6.6-7c-1.2-1.1-2.4-2.2-3.7-3.2l-1.9-1.5l-2-1.4c-1.3-1-2.7-1.8-4.1-2.7c-1.4-0.8-2.8-1.6-4.2-2.4
			c-2.9-1.5-5.9-2.9-8.9-4.1c-3-1.2-6.2-2.3-9.3-3.2c-1.6-0.4-3.2-0.9-4.8-1.3c-1.6-0.4-3.2-0.8-4.8-1.1l-4.9-0.9l-5-0.8
			c-3.4-0.5-6.7-1.1-10.1-1.5c-3.3-0.5-6.7-1-10-1.4l-5-0.6l-5-0.5c-1.7-0.2-3.4-0.3-5-0.4c-1.7-0.1-3.4-0.3-5-0.3
			c-1.7-0.1-3.4-0.2-5-0.1l-2.5,0c-0.8,0-1.7,0.1-2.5,0.1c-0.8,0-1.7,0.1-2.5,0.2l-1.2,0.2l-1.2,0.3c-0.8,0.1-1.6,0.4-2.3,0.7
			c-0.3,0.2-0.7,0.3-1,0.6c-0.2,0.1-0.3,0.2-0.4,0.4c-0.1,0.1-0.2,0.3-0.2,0.3L138,189.3L138,189.3z M137.7,188.7
			c0.1-0.2,0.1-0.3,0.2-0.5c0.1-0.2,0.3-0.4,0.5-0.6c0.3-0.4,0.7-0.6,1.1-0.8c0.8-0.4,1.6-0.8,2.4-1.1l1.3-0.4l1.3-0.3
			c0.8-0.2,1.7-0.4,2.6-0.5c0.9-0.1,1.7-0.3,2.6-0.4l2.6-0.3c1.7-0.2,3.4-0.2,5.1-0.3c1.7-0.1,3.4-0.1,5.1-0.1c1.7,0,3.4,0,5.1,0
			l5.1,0.1l5.1,0.3c3.4,0.2,6.8,0.5,10.2,0.7c3.4,0.2,6.8,0.6,10.2,1l5.1,0.6l5.2,0.7c3.4,0.6,6.9,1.3,10.2,2.1
			c3.4,0.9,6.8,1.9,10.1,3.1c1.7,0.5,3.3,1.3,4.9,1.9c1.6,0.7,3.2,1.5,4.8,2.2c1.6,0.8,3.1,1.7,4.7,2.5c1.5,1,3.1,1.8,4.5,2.9
			l2.2,1.5l2.1,1.6c1.4,1.1,2.8,2.3,4.1,3.4c2.6,2.4,5.1,5,7.4,7.8c2.3,2.8,4.3,5.7,6.1,8.8c1.8,3.1,3.4,6.3,4.7,9.7
			c0.6,1.7,1.2,3.4,1.7,5.1c0.3,0.9,0.5,1.7,0.7,2.6c0.1,0.4,0.2,0.9,0.3,1.4c0.1,0.5,0.2,0.9,0.3,1.5l0.2,1.2l-0.6,0.9l-0.4,0.6
			l-0.3,0.4c-0.2,0.3-0.4,0.6-0.6,0.8l-1.2,1.5c-0.9,0.9-1.7,1.9-2.6,2.8c-0.9,0.8-1.8,1.7-2.8,2.5l-2.9,2.3
			c-4,2.8-8.2,5.3-12.6,7.3l-3.3,1.5c-1.1,0.5-2.2,0.9-3.4,1.3c-2.3,0.8-4.5,1.8-6.8,2.4c-2.3,0.7-4.6,1.4-6.9,2l-7,1.6
			c-2.3,0.6-4.7,0.9-7,1.3l-7,1.1l-7,0.7l-3.5,0.3l-1.8,0.2l-1.8,0.1l-7.1,0.3c-2.3,0.1-4.7,0.3-7,0.2c-4.7,0-9.3,0.1-14,0
			l-14.1-0.4l-14-0.9c-4.7-0.5-9.3-0.9-14-1.5l-7-1c-1.2-0.2-2.3-0.3-3.5-0.5l-3.5-0.7c-2.3-0.5-4.6-0.9-6.9-1.4l-6.9-1.8
			c-4.6-1.4-9.1-2.9-13.5-4.9c-4.4-1.9-8.7-4.2-12.7-6.9l-3-2.2c-1-0.8-1.9-1.6-2.9-2.4c-0.9-0.8-1.8-1.7-2.7-2.6L64,250
			c-0.2-0.3-0.4-0.5-0.6-0.8l-0.3-0.4l-0.4-0.5l-0.9-1.3l0.6-1.5l1.2-2.9l0.6-1.5c0.2-0.5,0.4-1,0.7-1.4l1.3-2.8
			c0.5-0.9,1-1.8,1.5-2.8l0.8-1.4l0.8-1.3l1.7-2.7c1.2-1.7,2.3-3.5,3.7-5.1c1.3-1.7,2.7-3.2,4.1-4.8c0.7-0.8,1.4-1.5,2.2-2.2
			l1.1-1.1l1.1-1.1c1.5-1.4,3.1-2.8,4.7-4.1c1.6-1.3,3.3-2.6,5-3.7c1.7-1.2,3.4-2.3,5.2-3.4l2.7-1.6c0.9-0.5,1.8-1,2.7-1.5
			c1.8-1,3.7-1.9,5.5-2.7c0.9-0.4,1.9-0.9,2.8-1.3c0.9-0.4,1.9-0.8,2.8-1.2c1.9-0.8,3.8-1.4,5.8-2.1c1.9-0.7,3.9-1.3,5.8-1.8
			C129.8,190.1,133.7,189.2,137.7,188.7z"/>
	</g>
	<g>
		<path class="st1" d="M112.8,198.4c0,0,7.1,66,59.3,70.3s61.8-52.9,59.5-70.3C231.5,198.4,208.1,170.3,112.8,198.4z"/>
		<path class="st2" d="M112.8,198.4c0.8,4.2,1.9,8.3,3.1,12.4c1.2,4.1,2.7,8.1,4.3,12c1.6,3.9,3.5,7.7,5.6,11.3
			c2.1,3.6,4.4,7.1,7,10.4c2.6,3.2,5.5,6.3,8.6,8.9c3.2,2.6,6.5,5,10.2,6.8c3.6,1.8,7.5,3.2,11.4,4.1c1,0.3,2,0.4,3,0.6l1.5,0.3
			c0.5,0.1,1,0.1,1.5,0.2l3,0.3l0.2,0c0,0,0.1,0-0.1,0l0.1,0l0.1,0l0.4,0l0.8,0l1.6,0.1l1.6,0.1c0.5,0,1,0,1.5,0l3-0.1
			c2-0.3,4-0.4,6-0.9c3.9-0.8,7.7-2,11.3-3.8c3.5-1.8,6.8-4,9.8-6.7c2.9-2.7,5.6-5.7,7.8-9.1c2.3-3.3,4.2-6.9,5.8-10.7
			c1.6-3.7,3-7.6,4-11.6c1-4,1.8-8,2.3-12.1c0.4-4.1,0.6-8.2,0.2-12l0.7,1.7l-0.1-0.1l-0.3-0.3c-0.2-0.2-0.3-0.3-0.6-0.5
			c-0.4-0.3-0.8-0.7-1.3-1c-1-0.6-1.9-1.3-2.9-1.9c-1-0.6-2-1.2-3.2-1.6l-1.6-0.7c-0.5-0.2-1.1-0.5-1.7-0.7l-3.4-1.2
			c-0.6-0.2-1.2-0.4-1.8-0.5l-1.8-0.4c-1.2-0.3-2.4-0.7-3.6-0.9L203,190l-1.8-0.3l-0.9-0.2l-0.9-0.1l-3.7-0.4
			c-1.2-0.1-2.5-0.3-3.7-0.4l-3.8-0.1l-3.8-0.1l-1.9-0.1l-1.9,0.1c-2.5,0.1-5,0.2-7.6,0.2c-1.3,0-2.5,0.1-3.8,0.2l-3.8,0.3l-3.8,0.3
			c-1.3,0.1-2.5,0.2-3.8,0.4l-7.6,1c-2.5,0.3-5.1,0.6-7.5,1.2l-7.5,1.4c-2.5,0.5-5,0.8-7.5,1.4C122.8,196.2,117.8,197.3,112.8,198.4
			z M112.8,198.4c4.9-1.6,9.7-3.2,14.6-4.8c2.4-0.8,4.9-1.4,7.4-2.1l7.5-1.9c2.5-0.7,5-1.2,7.5-1.7l7.6-1.5c1.3-0.3,2.5-0.5,3.8-0.6
			l3.8-0.5l3.8-0.5c1.3-0.2,2.6-0.4,3.9-0.5c2.6-0.2,5.2-0.4,7.8-0.6l1.9-0.1l2,0l3.9,0l3.9,0c1.3,0,2.6,0.1,3.9,0.2l3.9,0.2l1,0.1
			l1,0.1l2,0.3l3.9,0.6c1.3,0.2,2.6,0.6,3.9,0.8l1.9,0.4c0.6,0.1,1.3,0.3,1.9,0.5l3.8,1.2c0.6,0.2,1.3,0.4,1.9,0.7l1.9,0.8
			c1.3,0.5,2.5,1.2,3.7,1.8c1.2,0.6,2.4,1.4,3.6,2.2c0.6,0.4,1.2,0.9,1.7,1.3c0.3,0.2,0.6,0.5,0.9,0.8l0.4,0.4
			c0.2,0.1,0.4,0.4,0.5,0.6l0.6,0.7l0.1,1c0.6,4.7,0.4,9.2,0,13.6c-0.4,4.4-1.2,8.8-2.3,13.1c-2.2,8.6-5.6,17-10.7,24.5
			c-2.6,3.7-5.6,7.2-9,10.2c-3.4,3-7.2,5.6-11.4,7.7c-4.1,2-8.6,3.3-13,4.1c-2.2,0.5-4.5,0.6-6.7,0.8l-3.4,0.1c-0.6,0-1.2,0-1.7,0
			l-1.6-0.1l-1.6-0.1l-0.8,0l-0.4,0l-0.3,0l-0.2,0l-3.3-0.4c-1.1-0.1-2.2-0.3-3.3-0.6c-1.1-0.3-2.2-0.5-3.3-0.8
			c-4.3-1.2-8.5-3-12.5-5.1c-3.9-2.2-7.5-4.9-10.8-7.9c-3.3-3-6.2-6.4-8.7-10c-2.5-3.6-4.8-7.3-6.7-11.3c-1.9-3.9-3.5-7.9-4.9-12
			c-1.4-4.1-2.5-8.3-3.4-12.5C113.7,206.9,113.1,202.6,112.8,198.4z"/>
	</g>
	<path class="st3" d="M116,196.1l13,11.7l-7.6,15l16,3.7l-3.7,14.5h14.1v16.4l17.8-3.3l9.4,11.7l9.8-12.2l18.3,3.7v-15.5l17.6-10.7
		l-8.2-9l13.6-8l-10.7-8.4l10.7-11.2C226,194.7,192.4,173.1,116,196.1z"/>
	<path d="M259.2,94.3c2.7-2.6,2.7-5.8,0-8.4c-3-2.8-3.3-5.3-0.9-8.6c2.2-3.1,1.6-6.2-1.5-8.2c-3.6-2.3-4.3-4.5-2.5-8.5
		c1.4-3.3,0.2-6.3-3.1-7.6c-4.2-1.7-5.1-3.4-4.2-7.7c0.8-3.6-1.1-6.4-4.7-7c-4.1-0.7-5.5-2.4-5.5-6.7c0-3.9-2.3-6.1-6.1-6
		c-4,0.1-6-1.5-6.5-5.4c-0.5-3.8-3.3-5.6-7.1-4.7c-3.8,0.9-6.2-0.3-7.5-4c-1.3-3.6-4.4-4.9-7.9-3.3c-3.8,1.7-6,1-8.3-2.6
		c-2-3.2-5.2-3.8-8.2-1.6c-3.4,2.4-5.8,2.2-8.6-0.8c-2.7-2.8-5.8-2.8-8.5,0.1c-2.7,2.9-5.2,3.1-8.5,0.8c-3.2-2.3-6.3-1.6-8.4,1.7
		c-2.2,3.4-4.4,4.1-8.1,2.5c-3.7-1.6-6.5-0.4-8,3.4c-1.2,3.3-3.6,4.6-7,4c-4.8-0.9-6.6,0.3-7.7,5.2c-0.7,3.3-2.8,4.9-6.2,4.8
		c-4.4-0.1-6.4,1.9-6.3,6.4c0,3.5-1.8,5.6-5.3,6.2c-4,0.6-5.7,3.2-4.9,7.2c0.8,4-0.3,6-4,7.5c-3.7,1.4-4.9,4.3-3.3,7.9
		c1.6,3.7,0.9,6-2.6,8.3c-3.1,2-3.7,5.2-1.6,8.2c2.4,3.4,2.1,5.7-0.9,8.6c-2.7,2.6-2.7,5.8,0,8.4c3.1,3,3.3,5.2,0.9,8.6
		c-2.2,3.1-1.6,6.2,1.5,8.2c3.6,2.3,4.3,4.5,2.5,8.5c-1.4,3.3-0.1,6.3,3.2,7.6c4,1.5,5.1,3.6,4.2,7.8c-0.8,3.6,0.9,6.1,4.5,6.9
		c4.5,0.9,5.8,2.5,5.7,7c0,3.6,2.4,5.9,5.9,5.7c3.9-0.2,6.1,1.5,6.8,5.5c0.7,3.8,3.2,5.4,7.1,4.7c1.6-0.3,4-0.4,4.8,0.6
		c2.2,2.3,4.8,5.1,5.4,8.1c1.1,5.2-0.3,10.4-4,14.6c-0.7,0.8-0.9,1.5-0.7,2.2c0.1,0.3,0.3,0.7,0.5,1c0,0.1,0.1,0.1,0.1,0.2
		c0.3,0.4,0.6,0.9,0.9,1.3c2.9,3.9,6.8,6.7,11,9.1c4.3,2.4,9.2,3.9,12,8.5c0.8,1.3,1.8,2.7,2.1,4.2c1.2,6,2.1,12.1,3,18.2
		c0.3,1.7,0.9,2.6,2.8,2.5c1.9-0.2,3.9,0,5.9,0c1.9,0,3.9-0.1,5.9,0c1.9,0.1,2.6-0.7,2.9-2.4c1-6.4,2.1-12.8,3.2-19.1
		c0.7-4,3.6-6.3,6.8-8.3c3.9-2.5,8.4-4.3,12-7.1c2.8-2.1,4.7-5.2,6.9-8c0,0,0,0,0-0.1c0.2-0.3,0.2-0.9,0.1-1.5
		c0-0.2-0.1-0.4-0.2-0.5c0-0.1-0.1-0.1-0.1-0.2c-3.7-3.9-4.7-8.7-4.9-13.8c0-0.5,0.7-1.4,1.2-1.5c2.3-0.6,3.5-2,4.3-4.2
		c1.1-3.3,3.6-4.6,7-3.9c4.5,1,6.8-0.6,7.5-5.1c0.5-3.2,3-5.2,6.3-5c4.1,0.3,6.4-1.9,6.3-5.9c0-4.3,1.3-5.9,5.5-6.7
		c3.9-0.8,5.5-3.3,4.6-7.2c-0.8-3.7,0.4-6,3.9-7.4c3.9-1.5,5.1-4.2,3.4-7.9c-1.6-3.6-0.9-6.1,2.5-8.1c3.3-2,4-5.1,1.7-8.3
		C255.9,99.5,256.2,97.1,259.2,94.3z M219.4,125.8c-1.4,13.9-6.4,26.6-12.7,38.9c-1.3,2.5-3.1,5-5.2,6.8c-4.1,3.4-8.7,6.3-13.1,9.4
		c-1.3,0.9-2.2,0.7-3.4-0.4c-8-7.5-19.7-7.4-27.7,0.1c-1.3,1.2-2.2,1.4-3.6,0.4c-4.8-3.7-9.6-7.2-14.3-10.9c-1.2-1-2.3-2.4-3-3.8
		c-5.3-10.3-10-20.8-12.1-32.3c-1.1-5.8-1.9-11.7-2.8-17.7c1-5.8,1.8-11.6,3-17.4c1.5-6.7,3.3-13.3,5.2-19.9
		c0.5-1.7,1.6-3.4,2.7-4.9c1.7-2.4,4.1-3.7,7.2-3.7c5.1-0.1,9.8,0.9,14.4,3.3c7,3.8,14.7,3.6,22.4,3.1c5.1-0.3,9.7-2.1,14.4-3.8
		c3.6-1.3,7.5-2,11.3-2.6c3.6-0.5,6.3,1.2,8.3,4.2c3.4,5,4.9,10.8,6.1,16.6c1.6,7.7,3.2,15.4,4.1,23.2
		C221,118.2,219.8,122.1,219.4,125.8z"/>
	<path class="st4" d="M219.4,125.8c-1.4,13.9-6.4,26.6-12.7,38.9c-1.3,2.5-3.1,5-5.2,6.8c-4.1,3.4-8.7,6.3-13.1,9.4
		c-1.3,0.9-2.2,0.7-3.4-0.4c-8-7.5-19.7-7.4-27.7,0.1c-1.3,1.2-2.2,1.4-3.6,0.4c-4.8-3.7-9.6-7.2-14.3-10.9c-1.2-1-2.3-2.4-3-3.8
		c-5.3-10.3-10-20.8-12.1-32.3c-1.1-5.8-1.9-11.7-2.8-17.7c1-5.8,1.8-11.6,3-17.4c1.5-6.7,3.3-13.3,5.2-19.9
		c0.5-1.7,1.6-3.4,2.7-4.9c1.7-2.4,4.1-3.7,7.2-3.7c5.1-0.1,9.8,0.9,14.4,3.3c7,3.8,14.7,3.6,22.4,3.1c5.1-0.3,9.7-2.1,14.4-3.8
		c3.6-1.3,7.5-2,11.3-2.6c3.6-0.5,6.3,1.2,8.3,4.2c3.4,5,4.9,10.8,6.1,16.6c1.6,7.7,3.2,15.4,4.1,23.2
		C221,118.2,219.8,122.1,219.4,125.8z"/>
	<path class="st5" d="M220.6,114.5c-0.9-7.8-2.5-15.5-4.1-23.2c-1.2-5.8-2.6-11.6-6.1-16.6c-2-3-4.7-4.7-8.3-4.2
		c-3.8,0.6-7.7,1.2-11.3,2.6c-4.7,1.8-9.3,3.5-14.4,3.8c-7.7,0.4-15.4,0.7-22.4-3.1c-4.5-2.5-9.3-3.4-14.4-3.3
		c-3.1,0-5.4,1.3-7.2,3.7c-1.1,1.5-2.2,3.1-2.7,4.9c-1.9,6.6-3.7,13.2-5.2,19.9c-1.3,5.8-2.1,11.7-3,17.4c0.9,6,1.7,11.8,2.8,17.7
		c2.2,11.5,6.9,22,12.1,32.3c0.7,1.4,1.8,2.8,3,3.8c4.7,3.7,9.5,7.3,14.3,10.9c1.4,1.1,2.3,0.9,3.6-0.4c8-7.6,19.7-7.6,27.7-0.1
		c1.2,1.1,2.1,1.3,3.4,0.4c4.4-3.1,8.9-6,13.1-9.4c2.1-1.8,3.9-4.3,5.2-6.8c6.3-12.3,11.3-25,12.7-38.9
		C219.8,122.1,221,118.2,220.6,114.5z M177,164.5c-2.2-5.2-7.8-5.5-12.1-0.8c-2.3-3.4-2.1-10.7,0.2-13.9c2.7-3.7,9.8-3.5,12.2,0.3
		C179.7,153.7,179.6,160.5,177,164.5z M163.6,138.6c0.3-1.3,1.5-1.5,3-1.4c3,0.3,6.1,0.3,9.2,0c1.6-0.1,2.9,0.1,3.1,1.5
		c0.1,0.8-0.8,2.3-1.6,2.6c-1.9,0.8-4,1.2-6.1,1.8c-2.1-0.6-4.3-1-6.2-1.8C164.2,140.9,163.4,139.4,163.6,138.6z M214.8,118.8
		c-1.4,7.4-8.1,12.5-15.7,12.7c-5.4,0.1-10.8-0.3-15.6-3.1c-6.3-3.6-9.9-8.5-12.3-16.8c-0.3,0.7-0.5,1.1-0.6,1.5
		c-3.2,11.2-12.4,18.1-24,18.4c-5.8,0.1-11-0.7-15.2-5.2c-2.8-3-4.3-6.5-4.4-10.5c-0.1-3.1-0.1-6.2,0-9.4c0.1-4.1,2.7-7.7,6.8-8.4
		c9.2-1.7,18.6-2.8,27.9-0.9c3.3,0.7,6.4,2.2,10.1,3.6c3.6-3.4,8.8-4.3,13.9-4.3c7.4,0,14.8,0.6,22.1,1.4c4.7,0.5,7.5,4.4,7.5,9.1
		C215.3,110.9,215.5,114.9,214.8,118.8z"/>
	<path d="M214.8,118.8c-1.4,7.4-8.1,12.5-15.7,12.7c-5.4,0.1-10.8-0.3-15.6-3.1c-6.3-3.6-9.9-8.5-12.3-16.8
		c-0.3,0.7-0.5,1.1-0.6,1.5c-3.2,11.2-12.4,18.1-24,18.4c-5.8,0.1-11-0.7-15.2-5.2c-2.8-3-4.3-6.5-4.4-10.5c-0.1-3.1-0.1-6.2,0-9.4
		c0.1-4.1,2.7-7.7,6.8-8.4c9.2-1.7,18.6-2.8,27.9-0.9c3.3,0.7,6.4,2.2,10.1,3.6c3.6-3.4,8.8-4.3,13.9-4.3c7.4,0,14.8,0.6,22.1,1.4
		c4.7,0.5,7.5,4.4,7.5,9.1C215.3,110.9,215.5,114.9,214.8,118.8z"/>
	<path d="M177,164.5c-2.2-5.2-7.8-5.5-12.1-0.8c-2.3-3.4-2.1-10.7,0.2-13.9c2.7-3.7,9.8-3.5,12.2,0.3
		C179.7,153.7,179.6,160.5,177,164.5z"/>
	<path d="M177.3,141.3c-1.9,0.8-4,1.2-6.1,1.8c-2.1-0.6-4.3-1-6.2-1.8c-0.8-0.3-1.6-1.9-1.4-2.7c0.3-1.3,1.5-1.5,3-1.4
		c3,0.3,6.1,0.3,9.2,0c1.6-0.1,2.9,0.1,3.1,1.5C179,139.5,178.1,141,177.3,141.3z"/>
</g>
</svg>
