<?xml version="1.0" encoding="utf-8"?>
<!-- Generator: Adobe Illustrator 19.0.0, SVG Export Plug-In . SVG Version: 6.00 Build 0)  -->
<svg version="1.1" id="Calque_1" xmlns="http://www.w3.org/2000/svg" xmlns:xlink="http://www.w3.org/1999/xlink" x="0px" y="0px"
	 viewBox="0 0 339.1 278.7" style="enable-background:new 0 0 339.1 278.7;" xml:space="preserve">
<style type="text/css">
	.st0{fill:#B78013;}
	.st1{fill:#0E9648;}
	.st2{fill:#070000;}
	.st3{fill:#FBA819;}
	.st4{fill:#664E1A;}
	.st5{fill:#BF202F;}
</style>
<g>
	<g>
		<path class="st0" d="M315.6,17.4c0,0-238.9,39.3-311.1,173c0.2,0.4,0.4,0.8,0.6,1.2c1.1,1.9,2.5,3.7,4.1,5.3
			c11.4,11.1,35.8,13,67,6.9c0,0,0,0,0,0c17.6-3.4,37.3-9.4,58.2-17.7c18.5-7.4,37.9-16.6,57.4-27.6c36-20.2,66.8-43.1,89.2-65
			c16-15.7,27.7-30.9,34-44.3c4.4-9.5,6.2-18.1,5-25.4C318.6,21.7,317.2,19.5,315.6,17.4z M205.8,195c-32.3,20.1-59.8,32.5-82.5,40
			c-24.7,8.1-43.9,10.4-57.7,10.4c-17.3,0-26.1-3.7-26.8-4C52.7,254,96,284,200.2,243.9c13.1-5,52.3-24.2,53.5,29
			c0,0,77.5-97.6,81.4-184.5c-0.5,1-15.2,32.1-105.9,91.7C221.9,184.9,214.1,189.9,205.8,195z"/>
		<g>
			<path d="M315.5,17.8c-3.7,0.8-7.3,1.6-11,2.5c-3.7,0.9-7.4,1.7-11.1,2.7c-7.4,1.8-14.8,3.8-22.1,5.8c-7.3,2-14.7,4.2-21.9,6.4
				c-7.3,2.2-14.5,4.5-21.8,6.9c-14.5,4.8-28.8,10-42.9,15.6c-7.1,2.8-14.1,5.8-21,8.8c-7,3-13.9,6.2-20.8,9.4
				c-3.4,1.6-6.9,3.3-10.2,5c-3.4,1.7-6.8,3.4-10.2,5.1c-6.7,3.5-13.4,7.2-19.9,11c-6.6,3.8-13,7.9-19.3,12.1
				c-6.3,4.2-12.5,8.7-18.5,13.4c-1.5,1.2-3,2.4-4.5,3.6l-4.4,3.7c-1.5,1.2-2.8,2.5-4.3,3.8c-1.4,1.3-2.8,2.5-4.2,3.9
				c-2.8,2.6-5.5,5.3-8.2,8c-2.6,2.8-5.2,5.5-7.7,8.4c-5,5.7-9.7,11.7-14,17.9c-4.3,6.2-8.2,12.8-11.8,19.5l0-1.2
				c0.7,1.3,1.5,2.6,2.5,3.8c0.5,0.6,1,1.1,1.5,1.7l0.4,0.4l0.1,0l0,0c0,0,0.1,0.1-0.1,0l0,0l0.1,0.1l0.2,0.2l0.9,0.8l0.9,0.8
				c0.3,0.2,0.6,0.4,0.9,0.6c0.6,0.4,1.2,0.8,1.9,1.2l2,1.1c0.7,0.4,1.4,0.6,2.1,0.9c1.4,0.6,2.9,1,4.4,1.5c0.8,0.2,1.5,0.4,2.3,0.5
				c0.8,0.2,1.5,0.4,2.3,0.5c1.6,0.3,3.1,0.5,4.7,0.7l2.3,0.3l2.4,0.1c1.6,0.1,3.2,0.1,4.7,0.1c1.6,0,3.2,0,4.8-0.1
				c1.6,0,3.2-0.2,4.8-0.3c1.6-0.1,3.2-0.2,4.8-0.4l2.4-0.2l2.4-0.3c1.6-0.2,3.2-0.4,4.7-0.7c1.6-0.3,3.2-0.5,4.7-0.8l4.7-0.9
				l-0.7,0.3l0,0l0.3-0.2l0.4-0.1c6.4-1.3,12.8-2.9,19.1-4.7c6.3-1.8,12.6-3.8,18.8-5.9c6.2-2.1,12.4-4.5,18.5-6.9
				c6.1-2.5,12.1-5,18.1-7.8c6-2.7,11.9-5.6,17.8-8.5c5.9-2.9,11.7-6,17.5-9.1c2.9-1.6,5.7-3.2,8.6-4.8c2.9-1.6,5.7-3.3,8.5-4.9
				c5.6-3.4,11.3-6.8,16.8-10.4c5.5-3.6,11-7.3,16.4-11c5.4-3.8,10.7-7.7,15.9-11.7c5.2-4,10.3-8.2,15.3-12.4
				c5-4.3,9.8-8.7,14.6-13.3c4.7-4.5,9.3-9.3,13.6-14.2c4.3-4.9,8.4-10.1,12-15.5c1.8-2.7,3.5-5.5,5.1-8.3c1.6-2.9,3-5.8,4.2-8.8
				c2.4-6,3.9-12.6,3-19l0.1,0.2L315.5,17.8z M315.8,17.1l4.7,6.5l0,0.1l0,0.1c0.7,3.3,0.7,6.7,0.3,10.1c-0.4,3.4-1.2,6.6-2.3,9.8
				c-2.2,6.4-5.2,12.4-8.8,18.1c-3.5,5.7-7.5,11.1-11.7,16.3c-4.2,5.2-8.7,10.2-13.3,15c-4.7,4.8-9.5,9.4-14.4,13.9
				c-5,4.5-10,8.8-15.2,13c-5.2,4.2-10.5,8.2-15.9,12.1c-5.4,3.9-10.9,7.7-16.4,11.4c-5.5,3.7-11.2,7.2-16.9,10.7
				c-5.7,3.5-11.4,6.8-17.3,10c-5.8,3.2-11.7,6.3-17.7,9.2c-6,3-12,5.8-18.1,8.4c-6.1,2.7-12.3,5.3-18.5,7.6
				c-6.2,2.4-12.5,4.7-18.8,6.8c-6.3,2.1-12.7,4-19.2,5.7c-6.5,1.7-13,3.2-19.6,4.4l0.7-0.3l0,0l-0.4,0.2l-0.4,0.1l-4.8,0.8
				c-1.6,0.3-3.2,0.5-4.9,0.7c-1.6,0.2-3.2,0.4-4.9,0.6l-2.4,0.3l-2.5,0.2c-1.6,0.1-3.3,0.3-4.9,0.3c-1.6,0.1-3.3,0.1-4.9,0.1
				c-1.6,0-3.3,0-4.9-0.1c-1.6-0.1-3.3-0.1-4.9-0.3l-2.5-0.2l-2.5-0.3c-1.6-0.2-3.3-0.6-4.9-0.9c-0.8-0.1-1.6-0.4-2.4-0.6
				c-0.8-0.2-1.6-0.4-2.4-0.7c-1.6-0.6-3.2-1-4.7-1.8c-0.8-0.4-1.6-0.6-2.3-1.1l-2.2-1.2c-0.7-0.4-1.4-1-2.2-1.5
				c-0.4-0.3-0.7-0.5-1.1-0.8l-0.9-0.8l-0.9-0.8l-0.2-0.2L8.3,198l-0.1-0.1l-0.1-0.1l-0.4-0.5c-0.6-0.6-1.2-1.3-1.7-2
				c-1.1-1.4-1.9-2.8-2.7-4.4L3,190.4l0.3-0.6c3.8-6.7,8-13.1,12.4-19.4c4.4-6.3,9.3-12.2,14.4-17.9c5.1-5.8,10.4-11.2,16-16.5
				c1.4-1.3,2.8-2.6,4.2-3.9c1.4-1.3,2.8-2.6,4.3-3.8l4.3-3.8c1.5-1.2,2.9-2.5,4.4-3.7c5.9-4.8,12-9.6,18.2-14.1
				c6.2-4.5,12.6-8.8,19-12.9c6.5-4.1,13.1-8.1,19.7-11.8c3.4-1.9,6.7-3.8,10.1-5.5c3.4-1.8,6.8-3.5,10.2-5.2
				c6.9-3.4,13.8-6.6,20.9-9.7c7-3.1,14.1-5.9,21.3-8.7c7.2-2.8,14.3-5.4,21.6-7.9c7.2-2.5,14.5-4.9,21.8-7.1
				c7.3-2.3,14.7-4.3,22.1-6.3c7.4-2,14.8-3.8,22.3-5.6c7.4-1.8,14.9-3.3,22.4-4.8c7.5-1.5,15-2.8,22.6-3.8L315.8,17.1z"/>
			<path d="M206,195.3c-3.2,1.9-6.3,3.9-9.5,5.8c-3.2,1.9-6.4,3.8-9.6,5.6c-3.2,1.9-6.4,3.7-9.7,5.5l-4.9,2.6l-4.9,2.6
				c-6.6,3.4-13.3,6.7-20,9.8c-3.4,1.5-6.8,3-10.2,4.4c-3.5,1.4-6.9,2.8-10.4,4c-1.7,0.6-3.5,1.3-5.3,1.9c-1.7,0.6-3.5,1.2-5.3,1.8
				c-3.6,1.1-7.2,2.2-10.8,3.1c-3.6,1-7.3,1.8-10.9,2.6c-3.7,0.7-7.4,1.4-11.1,1.9c-3.7,0.5-7.5,0.8-11.3,1
				c-3.8,0.2-7.5,0.2-11.3,0.1c-3.8-0.1-7.6-0.5-11.4-1.1c-1.9-0.3-3.8-0.7-5.7-1.2c-1.9-0.5-3.7-1-5.7-1.8l2.8-4.4
				c3.7,3.4,7.7,6.4,12,8.9c4.3,2.6,8.9,4.8,13.6,6.6c4.7,1.8,9.6,3.3,14.6,4.4c5,1.1,10,1.9,15.1,2.4c2.6,0.2,5.1,0.4,7.7,0.5
				c1.3,0,2.6,0.1,3.8,0.1l3.8,0c1.3,0,2.6,0,3.9-0.1l3.9-0.1c2.6-0.2,5.1-0.3,7.7-0.6c5.1-0.5,10.2-1.2,15.3-2
				c5.1-0.9,10.2-1.9,15.2-3.1c2.5-0.6,5-1.2,7.5-1.9l7.5-2.1l7.4-2.3c2.5-0.8,4.9-1.7,7.3-2.5l3.7-1.3l3.6-1.4
				c2.4-0.9,4.9-1.8,7.2-2.8c4.8-2,9.7-3.9,14.7-5.3c5.1-1.4,10.4-2.3,15.8-1.7c2.7,0.3,5.4,1,7.9,2.2c2.5,1.2,4.7,3,6.6,5
				c1.9,2.1,3.3,4.5,4.5,6.9c1.1,2.5,2,5,2.6,7.6c1.3,5.2,1.9,10.5,2.1,15.8l-3.7-1.2c2.5-3.3,5-6.8,7.4-10.3
				c2.4-3.5,4.8-7,7.2-10.5c4.7-7.1,9.2-14.2,13.6-21.5l3.3-5.5l3.2-5.5c2.1-3.7,4.2-7.4,6.2-11.1c1-1.9,2-3.7,3-5.6
				c1-1.9,2-3.7,2.9-5.6l2.8-5.7l2.7-5.7c0.9-1.9,1.8-3.8,2.6-5.8l1.3-2.9l1.2-2.9c1.7-3.9,3.3-7.8,4.8-11.7c0.8-2,1.5-3.9,2.2-5.9
				l1.1-3l1-3c0.7-2,1.4-4,2-6l1.9-6c0.6-2,1.2-4,1.7-6.1l0.8-3l0.7-3.1c0.5-2,1-4.1,1.5-6.1l1.3-6.2c0.4-2.1,0.7-4.1,1.1-6.2
				c0.2-1,0.4-2.1,0.5-3.1l0.4-3.1c0.6-4.1,0.8-8.3,1.2-12.5l5.8,1.4l-0.4,0.7l-0.4,0.6c-0.2,0.4-0.5,0.8-0.7,1.2
				c-0.5,0.8-1,1.6-1.5,2.3c-0.5,0.7-1,1.5-1.6,2.2l-1.7,2.2c-2.2,2.8-4.6,5.6-7,8.2c-1.2,1.3-2.4,2.6-3.7,3.9
				c-1.3,1.3-2.5,2.6-3.7,3.8l-3.9,3.7l-1.9,1.8l-2,1.8c-2.7,2.3-5.3,4.8-8,7l-4.1,3.4l-2,1.7l-2.1,1.6l-8.3,6.5l-8.5,6.3
				c-2.8,2.1-5.7,4.1-8.6,6.2c-2.9,2-5.7,4.1-8.7,6l-8.8,5.9l-4.4,3l-4.4,2.9l-8.8,5.8c-2.9,2-5.9,3.8-8.9,5.7L206,195.3L206,195.3z
				 M205.6,194.8l17.7-11.4c3-1.9,5.9-3.8,8.8-5.9l8.7-6l4.3-3l4.2-3.1l8.5-6.2c2.8-2.1,5.6-4.3,8.3-6.4c2.8-2.2,5.6-4.3,8.3-6.5
				l8.1-6.7l8-6.9l2-1.7l1.9-1.8l3.9-3.5c2.6-2.3,5.1-4.8,7.6-7.2l1.9-1.8l1.8-1.9l3.7-3.7c1.2-1.2,2.4-2.5,3.6-3.8
				c1.2-1.3,2.4-2.5,3.5-3.9c2.3-2.6,4.5-5.3,6.5-8l1.5-2.1c0.5-0.7,1-1.4,1.4-2.1c0.5-0.7,0.9-1.4,1.3-2.1c0.2-0.4,0.4-0.7,0.6-1
				l0.3-0.5l0.2-0.4l6.8-13.7l-1,15.1c-0.3,4.3-0.5,8.7-1.1,13l-0.4,3.2c-0.1,1.1-0.3,2.1-0.5,3.2c-0.4,2.1-0.7,4.3-1.1,6.4
				l-1.3,6.4c-0.4,2.1-1,4.2-1.5,6.3l-0.8,3.1l-0.9,3.1c-0.6,2.1-1.1,4.2-1.8,6.2l-2,6.2c-0.6,2.1-1.4,4.1-2.1,6.1l-1.1,3l-1.1,3
				c-0.8,2-1.5,4-2.3,6c-1.6,4-3.3,7.9-5.1,11.8l-1.3,2.9l-1.4,2.9c-0.9,1.9-1.8,3.9-2.8,5.8l-2.8,5.8l-2.9,5.7c-1,1.9-2,3.8-3,5.7
				c-1,1.9-2,3.8-3.1,5.6c-2.1,3.7-4.2,7.4-6.4,11.1c-2.2,3.7-4.4,7.3-6.7,11c-4.6,7.2-9.3,14.4-14.2,21.4c-2.5,3.5-4.9,7-7.5,10.4
				c-2.5,3.4-5.1,6.8-7.9,10.2l-3.6,4.5l-0.1-5.7c-0.1-5.1-0.4-10.1-1.5-15c-0.5-2.5-1.3-4.8-2.2-7.1c-1-2.2-2.2-4.4-3.8-6.2
				c-3.1-3.7-7.6-6.1-12.5-6.6c-4.9-0.6-10,0-14.9,1.2c-5,1.2-9.7,3.1-14.6,5c-2.4,1-4.9,1.8-7.3,2.7l-3.7,1.3l-3.7,1.3
				c-2.5,0.8-4.9,1.7-7.4,2.5l-7.4,2.3l-7.5,2.2c-2.5,0.7-5,1.3-7.5,2c-5.1,1.2-10.1,2.4-15.2,3.4c-5.1,1-10.3,1.8-15.4,2.5
				c-2.6,0.3-5.2,0.6-7.8,0.8l-3.9,0.3c-1.3,0.1-2.6,0.2-3.9,0.2l-3.9,0.1c-1.3,0-2.6,0-3.9,0c-2.6,0-5.2-0.1-7.9-0.2
				c-5.2-0.4-10.5-1-15.7-1.9c-5.2-1-10.3-2.3-15.3-4.1c-5-1.7-9.9-3.9-14.5-6.6c-4.6-2.7-9-5.8-13-9.4l-10.9-10l13.7,5.5
				c1.4,0.6,3.2,1.1,4.9,1.5c1.7,0.4,3.5,0.8,5.2,1c3.5,0.6,7.1,0.9,10.7,1.1c3.6,0.2,7.3,0.2,10.9,0c3.6-0.1,7.3-0.4,10.9-0.8
				c3.6-0.4,7.3-0.9,10.9-1.5c3.6-0.6,7.2-1.3,10.8-2.1c3.6-0.8,7.2-1.7,10.7-2.6c1.8-0.5,3.5-1,5.3-1.5c1.8-0.5,3.5-1,5.3-1.6
				c3.5-1.1,7-2.3,10.5-3.5c3.5-1.3,6.9-2.5,10.4-3.9c6.9-2.7,13.6-5.7,20.3-8.9c3.3-1.6,6.6-3.3,9.9-4.9c3.3-1.7,6.6-3.4,9.8-5.2
				c3.2-1.8,6.5-3.6,9.6-5.5C199.3,198.6,202.5,196.7,205.6,194.8L205.6,194.8z"/>
		</g>
	</g>
	<g>
		<path d="M67.4,245.4l-1.7,0.3c-2.3,0.3-4.5,0.6-6.9,0.7l-1.7,0.1c-0.6,0-1.2,0-1.7,0c-1.2,0-2.3,0-3.5-0.1
			c-1.2-0.1-2.3-0.2-3.5-0.3c-1.2-0.1-2.3-0.3-3.5-0.5c-1.2-0.2-2.3-0.4-3.5-0.7c-0.6-0.1-1.2-0.3-1.7-0.5c-0.6-0.2-1.2-0.4-1.8-0.6
			l-0.4-0.2c0.2,0.1,0.5,0.3,0.7,0.3l-1-0.6l-1.4-1.3l-0.7-0.7l-0.4-0.3l-0.2-0.2l-0.2-0.2l-1.3-1.4l-0.7-0.7l-0.7-0.8
			c-0.8-1-1.8-2-2.5-3.1c-0.8-1-1.6-2-2.3-3.1c-2.9-4.2-5.4-8.6-8-13c-1.3-2.2-2.6-4.4-3.9-6.5c-1.3-2.1-2.8-4.2-4.2-6.3
			c-0.7-1.1-1.4-2.1-2.2-3.1c-0.7-1-1.4-2.1-2.2-3.1c-1.5-2.1-3-4.1-4.5-6.1l-0.5-0.7l0.4-1l1-2.2l1.4-3.3l2,3.4
			c0.8,1.3,1.8,2.6,2.8,3.7c0.5,0.6,1.1,1.1,1.7,1.6l1,0.9l0.9,0.9l7.5,7.1l7.5,7.1l3.7,3.6l3.7,3.6l7.3,7.3l3.7,3.6
			c1.2,1.2,2.4,2.4,3.7,3.6c1.2,1.2,2.5,2.4,3.7,3.5c1.3,1.1,2.5,2.3,3.8,3.4c1.3,1.1,2.6,2.2,4,3.2c0.7,0.5,1.4,1,2.1,1.4
			c0.7,0.4,1.5,0.7,2.3,0.9L67.4,245.4z M65.7,245.7c-1.9,0.2-3.7-0.5-5.3-1.2c-1.6-0.7-3.2-1.5-4.7-2.4c-1.5-0.9-3-1.8-4.5-2.8
			c-1.4-1-2.9-2-4.3-3c-1.4-1-2.8-2.1-4.2-3.2c-1.4-1.1-2.7-2.2-4.1-3.3c-2.7-2.2-5.3-4.5-7.9-6.9c-1.3-1.2-2.5-2.4-3.8-3.6
			c-1.3-1.2-2.5-2.4-3.7-3.7c-2.4-2.5-4.8-5-7.2-7.5c-2.4-2.5-4.7-5.1-7-7.7l-0.9-1l-0.8-0.9c-0.6-0.7-1.2-1.4-1.8-2.2
			c-1.1-1.6-2-3.2-2.7-5l3.4,0.1l-1.3,2l-0.1-1.7c1.2,2.2,2.4,4.5,3.6,6.6c0.6,1.1,1.3,2.2,1.9,3.3c0.6,1.1,1.3,2.2,2,3.2
			c1.3,2.1,2.7,4.2,4.2,6.3c1.5,2,3,4.1,4.6,6c0.8,1,1.6,2,2.4,2.9l2.4,2.9c0.8,0.9,1.6,1.9,2.4,2.9c0.8,0.9,1.6,1.9,2.4,2.8
			c0.8,1,1.6,1.9,2.4,2.9c0.8,1,1.6,1.8,2.3,2.8l0.6,0.7l0.6,0.7l1.3,1.4l2.5,2.6l-1-0.6c0.3,0.1,0.5,0.2,0.8,0.4l-0.4-0.2
			c0.4,0.2,0.9,0.4,1.4,0.6c0.5,0.2,1,0.4,1.5,0.5c1,0.3,2.1,0.7,3.1,1c1.1,0.3,2.1,0.6,3.2,0.8c1.1,0.3,2.2,0.5,3.2,0.7
			c1.1,0.2,2.2,0.5,3.3,0.7l3.3,0.6l3.3,0.6c1.1,0.2,2.3,0.3,3.4,0.6l2.2,0.4L65.7,245.7z"/>
	</g>
	<g>
		<path d="M333.4,61.3c-0.9-0.2-1.8-0.5-2.7-0.8c-0.9-0.3-1.8-0.6-2.6-1c-1.7-0.7-3.4-1.5-5-2.3c-1.6-0.8-3.3-1.7-4.8-2.7
			c-1.6-0.9-3.1-1.9-4.6-3.1l-1.9-1.5l1-1.7c0.5-0.9,1.1-1.8,1.7-2.7c0.6-0.9,1.2-1.8,1.7-2.8c0.5-0.9,1-1.9,1.4-2.9
			c0.4-1,0.7-2,1-3.1c0.1-0.5,0.2-1,0.3-1.6c0.1-0.5,0.2-1.1,0.2-1.6c0.1-1.1,0.1-2.1,0-3.2c0-0.5-0.1-1.1-0.2-1.6
			c-0.1-0.5-0.2-1-0.3-1.5c-0.2-1-0.5-2-0.8-3l-3.8-12l7.9,10.4c0.5,0.7,1,1.4,1.6,2c0.5,0.7,1,1.4,1.4,2.1c0.9,1.5,1.8,2.9,2.6,4.4
			c0.4,0.8,0.8,1.5,1.2,2.3c0.4,0.8,0.7,1.6,1.1,2.3c0.3,0.8,0.6,1.6,1,2.4l0.8,2.4l0.7,2.5c0.2,0.8,0.4,1.7,0.6,2.5
			c0.4,1.7,0.6,3.4,0.9,5.1l0.2,2.6c0.1,0.9,0.1,1.7,0.1,2.6c0,0.9,0,1.7,0,2.6c0,0.9-0.1,1.7-0.2,2.6l0,0.4L333.4,61.3z
			 M332.6,59.5c-0.1-0.3-0.2-0.5-0.3-0.7c-0.3-0.8-0.7-1.5-1-2.3c-0.3-0.8-0.7-1.5-0.9-2.3l-0.9-2.3l-1.8-4.5l-1.9-4.5
			c-0.6-1.5-1.2-3-1.8-4.5l-1.8-4.5l-0.9-2.2l-1-2.2c-0.7-1.5-1.4-2.9-2-4.4l4.1-1.6c0,1.2,0,2.4-0.1,3.6c-0.1,0.6-0.1,1.2-0.2,1.7
			c-0.1,0.6-0.2,1.1-0.3,1.7c-0.1,0.6-0.2,1.1-0.3,1.7c-0.1,0.6-0.2,1.1-0.3,1.7c-0.1,0.6-0.2,1.1-0.4,1.6c-0.1,0.5-0.2,1.1-0.4,1.6
			c-0.1,0.6-0.3,1.1-0.4,1.6l-0.3,1.6c-0.2,1.1-0.4,2.2-0.6,3.3c-0.2,1.1-0.4,2.2-0.7,3.3c-0.2,1.1-0.6,2.2-0.9,3.3l-0.9-3.2
			c1.7,0.8,3.2,1.8,4.7,2.8c1.5,1,3,2.1,4.5,3.2c1.5,1.1,2.9,2.3,4.3,3.6c0.7,0.6,1.4,1.3,2,1.9C332.1,58.9,332.3,59.2,332.6,59.5z"
			/>
	</g>
	<g>
		<path class="st1" d="M315,49.2l7.8,53.3L281,93.5C297,77.9,308.7,62.7,315,49.2z"/>
		<g>
			<path class="st2" d="M315.3,49.2c0.8,2.1,1.5,4.3,2.1,6.5c0.3,1.1,0.6,2.2,0.9,3.3c0.3,1.1,0.6,2.2,0.8,3.3
				c0.5,2.2,1,4.4,1.5,6.6c0.5,2.2,0.9,4.4,1.3,6.6c0.4,2.2,0.8,4.4,1,6.6c0.3,2.2,0.5,4.5,0.6,6.7c0.1,2.2,0.2,4.5,0.3,6.8
				c0,1.1,0.1,2.3,0.1,3.4c0.1,1.1,0.1,2.3,0.2,3.4l0.2,2l-1.8-0.5c-3.4-1-6.9-1.8-10.4-2.5c-0.9-0.2-1.8-0.3-2.6-0.5
				c-0.9-0.1-1.8-0.3-2.6-0.4c-1.8-0.2-3.5-0.5-5.3-0.7c-3.6-0.4-7.1-0.8-10.7-1.3c-1.8-0.2-3.5-0.5-5.3-0.8l-5.3-0.9l-5.9-1
				l4.3-4.7l4.7-5.1l4.6-5.1c0.8-0.8,1.6-1.7,2.3-2.6c0.8-0.8,1.6-1.7,2.3-2.5c0.8-0.9,1.6-1.7,2.3-2.6l2.3-2.6
				c0.8-0.9,1.5-1.7,2.3-2.6c0.7-0.9,1.5-1.7,2.3-2.6c0.7-0.9,1.5-1.7,2.2-2.6c0.7-0.9,1.5-1.8,2.2-2.7l2.2-2.7l1.1-1.4
				c0.3-0.5,0.7-0.9,1.1-1.4c0.7-0.9,1.4-1.9,2.1-2.8l2.5-3.4L315.3,49.2z M314.6,51.8c-0.1,0.3-0.2,0.7-0.3,1
				c-0.4,1.1-0.8,2.3-1.3,3.4c-0.4,1.1-0.9,2.2-1.4,3.3c-0.5,1.1-1,2.2-1.6,3.2c-0.5,1.1-1.1,2.1-1.7,3.2c-0.6,1-1.2,2-1.8,3.1
				c-1.2,2-2.6,4-4,6c-0.7,1-1.4,1.9-2.1,2.9c-0.7,1-1.5,1.9-2.2,2.8c-1.5,1.8-3,3.7-4.7,5.4c-1.6,1.8-3.3,3.4-5,5.1
				c-1.7,1.7-3.4,3.3-5.2,4.9l-1.6-5.7l5.2,1.3c1.7,0.5,3.5,0.9,5.2,1.4c3.4,1,6.8,2.2,10.2,3.2c1.7,0.6,3.4,1.1,5.1,1.6
				c0.9,0.3,1.7,0.5,2.6,0.7c0.9,0.2,1.7,0.5,2.6,0.7c3.5,0.8,7,1.5,10.5,2l-1.6,1.5c-0.2-1.1-0.5-2.2-0.8-3.3
				c-0.3-1.1-0.6-2.2-0.9-3.3c-0.6-2.2-1.2-4.4-1.7-6.6c-0.6-2.2-1-4.4-1.4-6.6c-0.4-2.2-0.6-4.4-0.9-6.7c-0.3-2.2-0.5-4.5-0.7-6.7
				c-0.2-2.2-0.4-4.5-0.5-6.7c-0.1-1.1-0.1-2.3-0.1-3.4c0-1.1-0.1-2.3-0.1-3.4C314.5,54.7,314.5,53.2,314.6,51.8z"/>
		</g>
	</g>
	<g>
		<path class="st3" d="M333.6,61c1.5,8.9,1.9,18.1,1.5,27.3c0,0,0,0,0,0c-0.5,1-15.2,32.1-105.9,91.7l7.9-49.9l44.8,12.2L281,93.5
			l41.8,8.9L315,49.2L333.6,61z"/>
		<g>
			<path d="M333.8,61c0.5,2.2,0.9,4.5,1.2,6.8c0.3,2.3,0.6,4.6,0.8,6.9c0.2,2.3,0.3,4.6,0.4,6.9c0.1,2.3,0.1,4.6,0,6.9l0,0.1l0,0.1
				l0,0l0,0.1l0,0.1c-1.3,2.8-3,5.3-4.7,7.7c-1.7,2.4-3.6,4.7-5.5,7c-1.9,2.3-3.8,4.5-5.9,6.7l-3,3.2l-3.1,3.1l-3.1,3.1l-3.2,3
				c-2.2,2-4.3,4-6.5,6c-2.2,1.9-4.4,3.9-6.7,5.8l-6.8,5.6c-2.3,1.9-4.6,3.6-7,5.4c-2.3,1.8-4.7,3.5-7.1,5.3l-7.2,5.1
				c-2.4,1.7-4.8,3.4-7.2,5.1l-7.3,4.9c-2.4,1.6-4.9,3.3-7.3,4.9c-4.9,3.2-9.8,6.4-14.7,9.7l-1.2,0.8l0.2-1.4
				c0.7-4.2,1.3-8.3,2-12.5c0.7-4.2,1.3-8.3,1.9-12.5l1.8-12.5L236,130l0.2-1.2l1.3,0.3c7.5,1.9,15,3.7,22.5,5.7
				c7.5,1.9,15,3.8,22.5,5.8l-2.3,1.8l-0.6-24.4l-0.3-12.2l-0.2-12.2l-0.1-2.7l2.6,0.6l10.5,2.2l10.4,2.3c7,1.5,13.9,3.1,20.9,4.7
				l-2.2,2.1c-1.2-8.9-2.4-17.8-3.5-26.7l-3.3-26.7l-0.2-2l1.6,1.1c6.1,4.1,12.2,8.2,18.2,12.4L333.8,61L333.8,61z M333.4,61.2
				c-6.3-3.7-12.6-7.5-18.9-11.2l1.4-0.9l4.5,26.5c1.4,8.9,2.9,17.7,4.3,26.6l0.4,2.6l-2.7-0.5c-7-1.4-14-2.8-21-4.3L291,97.8
				l-10.5-2.2l2.6-2.1l0.2,12.2l0.1,12.2l0.3,24.4l0,2.5l-2.4-0.7c-7.5-2.1-14.9-4.2-22.3-6.4c-7.4-2.1-14.9-4.3-22.3-6.5l1.4-0.9
				l-2.2,12.4l-2.2,12.4c-0.7,4.2-1.4,8.3-2.1,12.5c-0.7,4.2-1.4,8.3-2,12.5l-1-0.6c4.9-3.3,9.7-6.6,14.5-10
				c2.4-1.7,4.7-3.5,7.1-5.2l7.1-5.2c2.4-1.7,4.7-3.6,7-5.3l7-5.4l6.8-5.5c2.3-1.8,4.6-3.6,6.8-5.5l6.8-5.6l6.7-5.7
				c2.2-1.9,4.4-3.9,6.5-5.8l3.2-3l3.2-3l3.2-3l3.1-3.1c2.1-2.1,4-4.2,6-6.4c1.9-2.2,3.8-4.4,5.6-6.7c1.7-2.3,3.5-4.7,4.8-7.1
				l-0.1,0.2l0,0l0,0.2c0.2-2.3,0.2-4.5,0.3-6.8c0.1-2.3,0.1-4.5,0-6.8c0-2.3-0.1-4.6-0.3-6.8C333.9,65.6,333.7,63.4,333.4,61.2z"/>
		</g>
	</g>
	<g>
		<path d="M134.7,186.2c-0.1,2.1-0.3,4.2-0.5,6.3c-0.1,1-0.2,2.1-0.4,3.1l-0.4,3.1c-0.1,1-0.3,2.1-0.5,3.1l-0.5,3.1
			c-0.3,2.1-0.7,4.1-1.1,6.2c-0.8,4.1-1.6,8.2-2.6,12.3c-1,4.1-2.3,8.1-3.6,12l-0.9,2.7l-2-1.6c-3.7-3-7.4-5.9-11.3-8.6
			c-1-0.7-1.9-1.3-2.9-2l-3-1.9l-3-1.8c-1-0.6-2-1.2-3-1.8c-2-1.2-4.1-2.3-6.2-3.5c-2.1-1.2-4.1-2.3-6.2-3.5c-2-1.2-4.1-2.4-6.1-3.6
			l-6-3.7l-5.9-3.6l6.9-1.6c2.4-0.6,4.9-1.1,7.3-1.8l7.3-1.9l14.6-3.8l14.6-3.9c1.2-0.3,2.4-0.7,3.7-1l3.7-1
			c2.5-0.6,4.9-1.3,7.4-1.9l0.4-0.1L134.7,186.2z M133.8,186.8c-0.9,0.5-1.8,1-2.7,1.5c-1.1,0.6-2.3,1.2-3.4,1.8
			c-1.1,0.6-2.3,1.1-3.4,1.7c-1.1,0.6-2.3,1.1-3.5,1.6c-2.3,1.1-4.7,2.1-7.1,3c-2.4,1-4.8,1.9-7.2,2.7c-4.8,1.7-9.7,3.3-14.7,4.5
			c-1.2,0.3-2.5,0.6-3.7,0.9c-1.2,0.3-2.5,0.5-3.8,0.8c-2.5,0.5-5,1-7.6,1.4l1-5.3l5.8,4.1c1.9,1.4,3.8,2.8,5.7,4.2
			c1.9,1.4,3.7,2.9,5.6,4.3c1.9,1.4,3.7,2.9,5.6,4.3c0.9,0.7,1.9,1.4,2.8,2.1l2.9,2.1l2.9,2c1,0.7,2,1.3,3,1.9c4,2.5,8.1,4.8,12.3,7
			l-2.8,1.1c0.6-4.2,1.1-8.3,2-12.4c0.8-4.1,1.9-8.1,2.9-12.2c0.5-2,1.1-4,1.7-6l0.9-3c0.3-1,0.6-2,0.9-3l1-3c0.3-1,0.7-2,1-3
			C132.5,190.2,133.2,188.5,133.8,186.8z"/>
	</g>
	<g>
		<path class="st4" d="M317.4,16.4c1.3,2.3,2.1,4.8,2.6,7.4c1.3,7.3-0.5,15.9-5,25.4c-6.3,13.5-18,28.7-34,44.3
			c-22.4,22-53.2,44.8-89.2,65c-19.5,11-38.9,20.2-57.4,27.6c-20.9,8.3-40.6,14.3-58.2,17.7c0,0,0,0,0,0c-31.2,6.1-55.6,4.1-67-6.9
			c-1.6-1.6-3-3.3-4.1-5.3c-0.2-0.4-0.4-0.8-0.6-1.2c-14.9-30.6,41-93.2,126.1-140.9C216.9,1.1,300.5-13.7,317.4,16.4z"/>
		<path d="M317.7,16.3c1.7,3,2.7,6.4,3,9.8c0.3,3.4,0,6.9-0.7,10.2c-1.4,6.7-4.1,13.1-7.4,19.1c-3.3,6-7,11.7-11.1,17.2
			c-4.1,5.5-8.5,10.7-13,15.8c-2.3,2.5-4.6,5-7,7.5l-3.6,3.6l-3.7,3.6c-5,4.7-10,9.3-15.3,13.7c-5.3,4.4-10.6,8.6-16.1,12.7
			c-5.5,4.1-11.1,8-16.7,11.8c-5.7,3.7-11.5,7.4-17.3,10.9c-2.9,1.8-5.9,3.4-8.8,5.1c-3,1.6-6,3.4-9,5c-6,3.2-12.1,6.3-18.2,9.2
			c-6.2,2.9-12.4,5.7-18.6,8.4c-6.3,2.7-12.6,5.2-19,7.6c-6.4,2.4-12.8,4.6-19.3,6.8c-6.5,2.1-13,4-19.6,5.8
			c-3.3,0.9-6.6,1.7-9.9,2.5c-3.3,0.8-6.6,1.5-10,2.2l0.3-0.1l0,0l-0.2,0.1l-0.2,0c-4.9,0.9-9.8,1.8-14.8,2.4
			c-1.2,0.2-2.5,0.3-3.7,0.4l-3.7,0.4c-2.5,0.2-5,0.4-7.5,0.4c-5,0.1-10.1,0-15.1-0.7c-5-0.7-10.1-1.8-14.8-3.9
			c-1.2-0.5-2.3-1.2-3.5-1.8l-1.7-1.1c-0.6-0.4-1.1-0.7-1.6-1.2l-1.5-1.3c-0.3-0.2-0.5-0.4-0.7-0.7l-0.7-0.7c-0.9-1-1.8-2-2.5-3.1
			c-0.4-0.6-0.7-1.1-1.1-1.8l-0.4-0.8l-0.4-0.9c-0.3-0.5-0.5-1.2-0.8-1.9c-0.3-0.7-0.4-1.3-0.6-1.9c-0.7-2.6-1-5.3-1-8
			c0-5.3,1.3-10.5,3-15.4c1.7-4.9,4-9.5,6.5-13.9c5.1-8.9,11.3-16.9,17.9-24.5c6.6-7.6,13.8-14.7,21.2-21.5
			c7.4-6.8,15.1-13.2,23.1-19.4c7.9-6.2,16.1-12,24.4-17.6c8.3-5.6,16.9-10.9,25.5-15.9c4.3-2.5,8.7-5,13.1-7.3
			c4.4-2.4,8.9-4.7,13.4-6.9c9-4.5,18.1-8.7,27.3-12.6c9.3-3.9,18.7-7.4,28.2-10.5c9.6-3.1,19.2-5.7,29-7.9
			c9.8-2.2,19.7-3.8,29.7-4.7c5-0.4,10-0.7,15-0.5c5,0.1,10,0.4,15,1.4c2.5,0.5,4.9,1,7.3,1.8c2.4,0.7,4.8,1.7,7,2.8
			C311.2,8.4,315.2,11.8,317.7,16.3z M317.1,16.6c-2.4-4.3-6.3-7.6-10.7-9.8c-4.4-2.3-9.2-3.5-14.1-4.3c-9.8-1.5-19.8-0.9-29.6,0.3
			c-9.8,1.3-19.5,3.5-29,6.2c-9.5,2.7-18.9,5.8-28.2,9.3c-9.3,3.4-18.4,7.3-27.4,11.3c-9,4.1-17.9,8.3-26.7,12.8
			c-8.8,4.5-17.4,9.3-26,14.3c-8.5,5-17,10.2-25.2,15.6C83.7,83.3,67.8,95.2,53,108.3c-7.4,6.5-14.4,13.4-21,20.7
			c-3.3,3.6-6.5,7.4-9.5,11.2c-3,3.9-5.8,7.8-8.4,12c-2.5,4.1-4.8,8.4-6.6,12.9c-1.7,4.4-3,9.1-3.2,13.7c-0.1,2.3,0.1,4.6,0.6,6.8
			c0.2,0.5,0.3,1.1,0.5,1.6c0.2,0.5,0.3,1,0.6,1.6l0.3,0.8l0.4,0.8c0.2,0.4,0.5,1,0.8,1.4c0.6,1,1.3,1.9,2.1,2.7l0.6,0.6
			c0.2,0.2,0.4,0.4,0.6,0.6l1.3,1.2c0.4,0.4,0.9,0.7,1.4,1.1l1.4,1c1,0.6,2,1.2,3.1,1.7c4.3,2.1,9,3.3,13.8,4.1
			c4.8,0.8,9.8,1,14.7,1c9.9,0,19.7-1.4,29.5-3.2l-0.3,0.1l0,0l0.2-0.1l0.2,0c6.6-1.3,13.2-2.9,19.7-4.7c6.5-1.8,12.9-3.9,19.3-6.2
			c6.4-2.2,12.6-4.8,18.9-7.4c6.2-2.6,12.4-5.4,18.5-8.3c6.1-2.9,12.1-6,18.1-9.1c6-3.1,11.9-6.4,17.7-9.8c3-1.7,5.8-3.4,8.7-5.1
			c2.9-1.8,5.8-3.5,8.6-5.3c5.8-3.5,11.4-7.2,17-10.9c5.6-3.7,11.2-7.5,16.7-11.5c5.4-4,10.9-7.9,16.2-12.1
			c5.3-4.2,10.6-8.4,15.6-12.8l3.8-3.3l3.8-3.4c2.5-2.3,4.9-4.6,7.3-7c4.8-4.8,9.4-9.7,13.7-14.9c2.1-2.6,4.2-5.3,6.2-8
			c2-2.7,3.9-5.5,5.5-8.5c3.4-5.8,6.3-12,7.7-18.6c0.7-3.3,1-6.7,0.8-10C319.6,22.8,318.7,19.5,317.1,16.6z"/>
	</g>
	<g>
		<path class="st3" d="M123.3,235c-24.7,8.1-43.9,10.4-57.7,10.4l10.6-41.6c0,0,0,0,0,0L123.3,235z"/>
		<g>
			<path d="M123.4,235.2c-1.1,0.5-2.3,1-3.4,1.5c-1.1,0.5-2.3,0.9-3.4,1.4c-1.2,0.5-2.3,0.9-3.5,1.3c-1.2,0.4-2.3,0.8-3.5,1.2
				l-3.5,1.1l-3.6,1c-2.4,0.6-4.8,1.2-7.2,1.7c-1.2,0.3-2.4,0.5-3.6,0.7c-1.2,0.2-2.4,0.4-3.7,0.5c-1.2,0.2-2.5,0.3-3.7,0.4
				c-1.2,0.1-2.5,0.2-3.7,0.2c-2.5,0.1-5,0.1-7.4,0.1c-1.2,0-2.5,0-3.7,0c-1.2,0-2.5-0.1-3.7-0.1l-0.8,0l0.2-0.8
				c0.5-1.7,0.9-3.4,1.4-5.2c0.4-1.7,0.9-3.5,1.2-5.2c0.4-1.7,0.8-3.5,1.1-5.2l1.1-5.3c0.7-3.5,1.4-7,2.1-10.5
				c0.8-3.5,1.6-7,2.4-10.5l0.2-0.8l0.8-0.4l0,0l1-0.6l1,0.7l6,3.8c2,1.2,3.9,2.6,5.9,3.9c2,1.3,3.9,2.6,5.8,4
				c1.9,1.3,3.9,2.7,5.8,4c3.8,2.7,7.7,5.5,11.4,8.3l2.8,2.1c0.9,0.7,1.9,1.4,2.8,2.2c1.8,1.5,3.7,2.9,5.5,4.4l0.3,0.2L123.4,235.2z
				 M122.8,234.9c-1.9-1-3.8-2.1-5.8-3.1c-1-0.6-2.1-1.2-3.1-1.7l-3.1-1.8c-4.1-2.4-8.1-4.8-12.1-7.3c-2-1.2-4-2.5-6-3.8
				c-2-1.3-4-2.5-5.9-3.8c-2-1.3-3.9-2.6-5.9-3.9l-5.8-4l2,0.1l0,0l0.9-1.2c-1,3.4-1.9,6.9-2.9,10.3c-1,3.4-2.1,6.8-3.1,10.3
				l-1.6,5.1c-0.5,1.7-1,3.4-1.5,5.1c-0.5,1.7-0.9,3.4-1.4,5.2c-0.5,1.7-0.8,3.5-1.3,5.2l-0.6-0.8c1.2-0.1,2.4-0.1,3.7-0.2
				c1.2-0.1,2.4-0.2,3.6-0.3c1.2-0.1,2.4-0.3,3.6-0.5l3.6-0.6l14.4-2.5c1.2-0.2,2.4-0.4,3.6-0.7l3.6-0.7l7.2-1.5l7.2-1.6
				C118.3,235.9,120.5,235.3,122.8,234.9z"/>
		</g>
	</g>
	<g>
		<path class="st1" d="M229.1,180.1c-7.3,4.8-15,9.8-23.3,14.9c-32.3,20.1-59.8,32.5-82.5,40l11.1-48.9l42.5,25.6l8.5-49.6
			L229.1,180.1z"/>
		<g>
			<path class="st2" d="M229.3,180.4c-2,1.6-3.9,3.1-5.9,4.6c-2,1.5-4,3-6,4.5c-2,1.5-4,2.9-6.1,4.4c-1,0.7-2,1.5-3,2.2
				c-0.5,0.4-1,0.7-1.6,1.1l-1.6,1c-2.1,1.4-4.1,2.8-6.3,4.1c-2.1,1.3-4.2,2.7-6.4,4l-3.2,2l-3.3,1.9c-2.2,1.3-4.4,2.5-6.6,3.7
				c-2.2,1.2-4.4,2.4-6.6,3.5c-2.3,1.1-4.5,2.2-6.8,3.3c-2.3,1.1-4.6,2.1-6.9,3c-2.3,1-4.7,1.9-7,2.8c-2.4,0.9-4.7,1.8-7.1,2.6
				c-2.4,0.8-4.8,1.6-7.1,2.4l-7.2,2.3l-7.2,2.3l-1.9,0.6l0.5-1.9c0.5-2,1-4.1,1.4-6.1c0.5-2,0.9-4.1,1.4-6.1c0.5-2,0.9-4.1,1.3-6.1
				c0.4-2,0.8-4.1,1.2-6.1c0.8-4.1,1.5-8.2,2.3-12.3l2.2-12.4l0.6-3.2l3.1,1.7c1.8,1,3.6,2,5.5,3l5.4,3l10.8,6.1
				c7.2,4.1,14.3,8.3,21.5,12.4l-5.5,2.5c0.6-4.1,1.3-8.3,2-12.4c0.7-4.1,1.5-8.3,2.2-12.4c0.8-4.1,1.5-8.2,2.4-12.3
				c0.8-4.1,1.6-8.2,2.5-12.3l0.8-3.8l3.4,1.5l10.8,4.9c3.6,1.7,7.1,3.3,10.7,5c3.6,1.7,7.1,3.4,10.7,5.2c1.8,0.9,3.5,1.8,5.3,2.6
				c1.8,0.9,3.5,1.8,5.3,2.7l0.5,0.3L229.3,180.4z M228.2,180.2c-1.6-0.5-3.3-1-4.9-1.5c-1.9-0.6-3.8-1.2-5.6-1.8
				c-3.8-1.2-7.5-2.5-11.2-3.8c-3.7-1.3-7.4-2.6-11.2-4l-11.1-4.1l4.2-2.3c-0.6,4.2-1.2,8.3-1.8,12.5c-0.6,4.2-1.2,8.3-1.9,12.4
				c-0.7,4.1-1.3,8.3-2,12.4c-0.7,4.1-1.4,8.3-2.2,12.4l-1,5.3l-4.5-2.8c-7-4.4-14-8.8-21-13.2l-10.5-6.7l-5.2-3.4
				c-1.7-1.1-3.5-2.3-5.2-3.4l3.7-1.6l-3.4,12.1c-1.1,4-2.2,8.1-3.3,12.1c-0.5,2-1,4.1-1.5,6.1c-0.5,2-1,4.1-1.5,6.1
				c-0.5,2-1,4.1-1.4,6.1c-0.5,2-0.9,4.1-1.3,6.1l-1.4-1.3c2.3-0.8,4.7-1.7,7-2.6c2.3-0.9,4.6-1.9,6.9-2.9c2.3-1,4.5-2.1,6.7-3.1
				c2.2-1.1,4.4-2.2,6.7-3.3c2.2-1.2,4.4-2.2,6.6-3.4l6.6-3.4l13.2-6.8l6.6-3.5l6.5-3.5c2.2-1.2,4.3-2.4,6.5-3.6l6.5-3.6l1.6-0.9
				c0.5-0.3,1.1-0.6,1.6-0.9c1.1-0.6,2.2-1.2,3.3-1.8c2.2-1.2,4.3-2.5,6.5-3.7c2.2-1.2,4.4-2.4,6.6-3.6
				C224.3,182.2,226.2,181.2,228.2,180.2z"/>
		</g>
	</g>
	<g>
		<path class="st5" d="M76.2,203.8l-10.6,41.6c-9.3,0.4-49.6-41.3-56.4-48.5C20.7,207.9,45,209.9,76.2,203.8z"/>
		<g>
			<path d="M76.6,203.9c-0.1,1.8-0.3,3.6-0.5,5.4c-0.2,1.8-0.4,3.6-0.7,5.3c-0.3,1.8-0.5,3.6-0.9,5.3c-0.3,1.8-0.6,3.5-1,5.3
				c-0.7,3.5-1.4,7-2.2,10.5L70,241c-0.4,1.7-0.9,3.5-1.4,5.2l-0.7,2.5l-2.2-0.1c-0.3,0-0.7,0-1-0.1c-0.3,0-0.7-0.1-0.9-0.2
				c-0.5-0.2-1.1-0.3-1.5-0.5l-1.3-0.6l-1.1-0.7c-1.5-0.9-2.8-1.9-4.1-2.9c-1.2-1-2.4-2.1-3.6-3.2l-3.4-3.3
				c-2.3-2.2-4.5-4.4-6.8-6.6c-1.1-1.1-2.3-2.1-3.5-3.2l-3.5-3.1l-3.5-3.1l-3.6-3l-7.2-6.1c-1.2-1-2.4-2-3.6-3.1
				c-1.2-1-2.4-2.1-3.5-3.2c-2.3-2.1-4.6-4.3-6.8-6.5l4.7-4.7c1,0.8,1.9,1.6,3.1,2.2c0.6,0.3,1.1,0.7,1.6,1l1.7,0.9
				c0.6,0.3,1.2,0.5,1.8,0.8c0.6,0.2,1.2,0.5,1.8,0.7l1.9,0.6c0.6,0.2,1.3,0.4,1.9,0.5c1.3,0.3,2.6,0.7,4,0.9l2,0.4
				c0.7,0.1,1.4,0.2,2,0.3l2,0.3l2.1,0.2l2.1,0.2c0.7,0.1,1.4,0.1,2.1,0.2c1.4,0.1,2.8,0.2,4.2,0.2c1.4,0,2.8,0.1,4.2,0.1
				c1.4,0,2.8,0,4.3,0l4.3,0l4.3-0.1c1.4,0,2.9-0.1,4.3-0.2c1.4,0,2.9-0.1,4.3-0.2c1.5-0.1,2.9-0.1,4.4-0.2l0.4,0L76.6,203.9z
				 M75.6,204.4c-1.2,0.4-2.3,0.8-3.5,1.2c-1.4,0.5-2.8,0.8-4.2,1.2c-2.8,0.8-5.7,1.4-8.6,2l-4.4,0.7c-1.5,0.2-2.9,0.4-4.4,0.5
				c-1.5,0.2-3,0.3-4.4,0.4c-1.5,0.1-3,0.1-4.5,0.2c-0.7,0-1.5,0-2.2,0l-2.3-0.1l-2.3-0.1l-2.3-0.2c-0.8-0.1-1.5-0.1-2.3-0.3
				l-2.3-0.4c-1.5-0.2-3-0.6-4.5-1c-0.8-0.2-1.5-0.4-2.2-0.7L19,207c-0.7-0.3-1.4-0.6-2.2-1c-0.7-0.3-1.4-0.6-2.1-1.1l-2.1-1.2
				c-0.7-0.4-1.3-0.9-2-1.4c-1.4-0.9-2.5-2.1-3.7-3.2l4.7-4.7l6.2,6.9c1.1,1.1,2.1,2.3,3.1,3.5c1,1.2,2,2.4,3.1,3.6
				c2,2.4,4.1,4.7,6.1,7.1l3.2,3.5l3.3,3.3c2.2,2.2,4.5,4.3,6.9,6.3c1.2,1,2.4,2,3.6,2.9c1.2,1,2.5,1.8,3.8,2.7
				c2.6,1.8,5.2,3.4,7.8,4.9l2,1.1c0.7,0.3,1.3,0.7,1.9,0.9l0.9,0.4l0.9,0.3c0.3,0.1,0.5,0.1,0.7,0.2c0.1,0.1,0.2,0,0.2,0
				c0,0,0.1,0,0.1,0l-2.9,2.3c0.4-1.7,0.8-3.5,1.3-5.2l1.4-5.2c1-3.4,2-6.9,3.1-10.3c0.6-1.7,1.1-3.4,1.7-5.1
				c0.6-1.7,1.2-3.4,1.8-5.1c0.6-1.7,1.3-3.4,1.9-5C74.4,207.3,75,205.8,75.6,204.4z"/>
		</g>
	</g>
	<g>
		<polygon points="76,203.7 74.1,203.2 75.5,203.6 74.1,203.2 76.8,201.6 76.9,201.4 76.3,203.6 76.2,204 75.6,206.2 75.6,206 
			78.4,204.4 76.9,204 78.4,204.4 76.5,203.9 		"/>
	</g>
	<g>
		<path class="st5" d="M281,93.5l0.9,48.8l-44.8-12.2l-7.9,49.9l-43.7-18l-8.5,49.6l-42.5-25.6c18.5-7.4,37.9-16.6,57.4-27.6
			C227.8,138.3,258.6,115.5,281,93.5z"/>
		<g>
			<path d="M281.3,92.8l0.6,6.8l0.5,6.1l0.8,12.2l0.7,12.2l0.6,12.2l0.2,3.2l-3.3-0.8c-3.8-0.9-7.5-1.8-11.3-2.8l-11.3-2.8
				l-11.2-2.9l-5.6-1.5c-1.9-0.5-3.7-1-5.6-1.5l3.9-2.5l-1,6.2c-0.3,2.1-0.7,4.2-1,6.2l-1.1,6.2c-0.4,2.1-0.7,4.1-1.1,6.2
				c-0.8,4.1-1.6,8.3-2.4,12.4l-2.5,12.4l-0.5,2.5l-2.2-1l-10.8-4.9c-3.6-1.6-7.2-3.2-10.8-4.8c-3.6-1.6-7.2-3.1-10.9-4.6l-5.5-2.3
				l-5.5-2.2l1.5-0.8l-1,6.2l-1,6.2c-0.7,4.1-1.3,8.3-1.9,12.4c-1.2,8.3-2.3,16.6-3.5,24.9l-0.4,3.2l-2.9-1.6l-10.8-6.1l-10.8-6.1
				l-21.5-12.5l-5.7-3.3l6.2-2.6c6.7-2.8,13.3-5.7,19.8-8.8c3.3-1.5,6.5-3.1,9.7-4.7c3.2-1.6,6.5-3.2,9.7-4.8c3.2-1.6,6.4-3.3,9.6-5
				c3.2-1.7,6.4-3.4,9.5-5.1l4.8-2.7l4.7-2.7c1.6-0.9,3.1-1.8,4.7-2.7l4.7-2.7c3.1-1.9,6.2-3.7,9.2-5.7c3.1-1.9,6.1-3.9,9.1-5.8
				c3-2,6-4,9-6c3-2,6-4.1,8.9-6.2l4.4-3.2l4.4-3.2c2.9-2.2,5.8-4.4,8.6-6.6c2.9-2.2,5.7-4.5,8.5-6.8c2.8-2.3,5.6-4.7,8.3-7
				L281.3,92.8z M280.6,94.5l-3.1,3.3c-1.3,1.3-2.5,2.6-3.8,3.9c-2.6,2.6-5.2,5.1-7.9,7.6c-1.3,1.3-2.7,2.5-4,3.7
				c-1.4,1.2-2.7,2.5-4.1,3.6l-4.2,3.6l-4.2,3.5c-1.4,1.2-2.9,2.3-4.3,3.4c-1.4,1.1-2.9,2.3-4.3,3.4c-2.9,2.2-5.9,4.4-8.8,6.6
				c-3,2.1-5.9,4.3-9,6.3c-3,2.1-6.1,4.1-9.1,6.1c-3.1,2-6.1,4-9.3,5.8l-4.7,2.8l-4.7,2.7c-3.2,1.9-6.4,3.6-9.6,5.4
				c-3.2,1.7-6.5,3.4-9.7,5.1c-3.3,1.6-6.5,3.3-9.8,4.9c-3.3,1.6-6.6,3.1-10,4.6c-6.7,3-13.5,5.8-20.3,8.4l0.5-5.9l21.1,13.1
				l10.5,6.7l10.4,6.7l-3.3,1.5c1.7-8.2,3.4-16.4,5-24.7c0.8-4.1,1.6-8.2,2.4-12.3l1.2-6.2l1.1-6.2l0.2-1.3l1.2,0.5l5.5,2.3l5.5,2.2
				c3.7,1.5,7.3,3,11,4.4c3.7,1.4,7.3,2.9,11,4.2l11.1,4.1l-2.7,1.5l1.5-12.6c0.5-4.2,1.1-8.4,1.6-12.5c0.3-2.1,0.6-4.2,0.9-6.3
				l0.9-6.3c0.3-2.1,0.6-4.2,1-6.2l1-6.2l0.5-3.4l3.4,0.9c1.9,0.5,3.7,1,5.6,1.5l5.6,1.6l11.2,3.1l11.1,3.3
				c3.7,1.1,7.4,2.2,11.1,3.3l-3.1,2.5l0.1-12.2l0.2-12.2l0.4-12.2l0.2-6.1L280.6,94.5z"/>
		</g>
	</g>
	<g>
		<path d="M9,197c0,0-0.2,0.2-0.6,0.5c-0.1,0.1-0.3,0.2-0.5,0.4c-0.2,0.1-0.3,0.2-0.4,0.2c-0.1,0-0.2,0.1-0.1,0
			c0-0.1,0.3-0.4,0.5-0.7c0.2-0.3,0.4-0.5,0.3-0.5c0,0-0.2,0.1-0.5,0.3c-0.3,0.2-0.6,0.4-0.7,0.5c-0.1,0.1-0.3,0.1-0.4,0.2
			c-0.2,0.1-0.1-0.2,0.1-0.4c0.1-0.2,0.2-0.3,0.4-0.5c0.2-0.2,0.3-0.4,0.4-0.5C7.9,196.2,8,196,8,196c0.1-0.1,0.2-0.2,0.4-0.3
			c0,0,0.2-0.2,0.6-0.5c0.1-0.1,0.3-0.2,0.5-0.4c0.2-0.1,0.3-0.2,0.5-0.3c0.3-0.2,0.5-0.3,0.4-0.1c0,0.1-0.1,0.2-0.2,0.4
			c-0.1,0.1-0.3,0.4-0.5,0.7c-0.2,0.3-0.4,0.5-0.4,0.5c0,0.1,0.2-0.1,0.5-0.3c0.3-0.2,0.6-0.5,0.7-0.5c0.1-0.1,0.1,0,0,0.1
			c-0.1,0.1-0.1,0.2-0.3,0.4c-0.2,0.2-0.3,0.3-0.4,0.5c-0.3,0.4-0.5,0.6-0.5,0.6C9.3,196.8,9.2,196.9,9,197z"/>
	</g>
</g>
</svg>
